%TF.GenerationSoftware,KiCad,Pcbnew,10.0.1*%
%TF.CreationDate,2026-04-21T20:21:27+02:00*%
%TF.ProjectId,DummyLoad,44756d6d-794c-46f6-9164-2e6b69636164,rev?*%
%TF.SameCoordinates,Original*%
%TF.FileFunction,Soldermask,Top*%
%TF.FilePolarity,Negative*%
%FSLAX46Y46*%
G04 Gerber Fmt 4.6, Leading zero omitted, Abs format (unit mm)*
G04 Created by KiCad (PCBNEW 10.0.1) date 2026-04-21 20:21:27*
%MOMM*%
%LPD*%
G01*
G04 APERTURE LIST*
G04 Aperture macros list*
%AMRoundRect*
0 Rectangle with rounded corners*
0 $1 Rounding radius*
0 $2 $3 $4 $5 $6 $7 $8 $9 X,Y pos of 4 corners*
0 Add a 4 corners polygon primitive as box body*
4,1,4,$2,$3,$4,$5,$6,$7,$8,$9,$2,$3,0*
0 Add four circle primitives for the rounded corners*
1,1,$1+$1,$2,$3*
1,1,$1+$1,$4,$5*
1,1,$1+$1,$6,$7*
1,1,$1+$1,$8,$9*
0 Add four rect primitives between the rounded corners*
20,1,$1+$1,$2,$3,$4,$5,0*
20,1,$1+$1,$4,$5,$6,$7,0*
20,1,$1+$1,$6,$7,$8,$9,0*
20,1,$1+$1,$8,$9,$2,$3,0*%
G04 Aperture macros list end*
%ADD10RoundRect,0.237500X-0.300000X-0.237500X0.300000X-0.237500X0.300000X0.237500X-0.300000X0.237500X0*%
%ADD11R,1.700000X1.700000*%
%ADD12C,1.700000*%
%ADD13RoundRect,0.249999X0.790001X1.550001X-0.790001X1.550001X-0.790001X-1.550001X0.790001X-1.550001X0*%
%ADD14O,2.080000X3.600000*%
%ADD15C,3.200000*%
%ADD16RoundRect,0.249999X-0.790001X-1.550001X0.790001X-1.550001X0.790001X1.550001X-0.790001X1.550001X0*%
%ADD17RoundRect,0.237500X-0.250000X-0.237500X0.250000X-0.237500X0.250000X0.237500X-0.250000X0.237500X0*%
%ADD18R,2.286000X2.286000*%
%ADD19C,2.286000*%
%ADD20RoundRect,0.237500X0.237500X-0.250000X0.237500X0.250000X-0.237500X0.250000X-0.237500X-0.250000X0*%
%ADD21R,1.168400X0.457200*%
%ADD22RoundRect,0.237500X0.250000X0.237500X-0.250000X0.237500X-0.250000X-0.237500X0.250000X-0.237500X0*%
%ADD23R,0.558800X1.460500*%
%ADD24C,1.440000*%
%ADD25R,1.524000X1.651000*%
%ADD26R,0.431000X1.527899*%
%ADD27RoundRect,0.237500X-0.237500X0.250000X-0.237500X-0.250000X0.237500X-0.250000X0.237500X0.250000X0*%
%ADD28RoundRect,0.237500X0.237500X-0.300000X0.237500X0.300000X-0.237500X0.300000X-0.237500X-0.300000X0*%
%ADD29RoundRect,0.250000X0.750000X0.750000X-0.750000X0.750000X-0.750000X-0.750000X0.750000X-0.750000X0*%
%ADD30C,2.000000*%
%ADD31RoundRect,0.237500X-0.237500X0.300000X-0.237500X-0.300000X0.237500X-0.300000X0.237500X0.300000X0*%
%ADD32RoundRect,0.102000X-0.699000X-0.699000X0.699000X-0.699000X0.699000X0.699000X-0.699000X0.699000X0*%
%ADD33C,1.602000*%
%ADD34C,3.204000*%
%ADD35C,1.498600*%
%ADD36RoundRect,0.237500X0.300000X0.237500X-0.300000X0.237500X-0.300000X-0.237500X0.300000X-0.237500X0*%
%ADD37R,2.000000X1.905000*%
%ADD38O,2.000000X1.905000*%
G04 APERTURE END LIST*
D10*
%TO.C,C6*%
X87362500Y-142500000D03*
X85637500Y-142500000D03*
%TD*%
D11*
%TO.C,J7*%
X115940000Y-45500000D03*
D12*
X118480000Y-45500000D03*
X121020000Y-45500000D03*
X123560000Y-45500000D03*
X126100000Y-45500000D03*
X128640000Y-45500000D03*
%TD*%
D13*
%TO.C,J4*%
X140045000Y-54277500D03*
D14*
X134965000Y-54277500D03*
%TD*%
D13*
%TO.C,J3*%
X153745000Y-54277500D03*
D14*
X148665000Y-54277500D03*
%TD*%
D15*
%TO.C,M3*%
X241000000Y-48000000D03*
%TD*%
%TO.C,M3*%
X39000000Y-48000000D03*
%TD*%
D14*
%TO.C,J5*%
X72520000Y-237722500D03*
X67440000Y-237722500D03*
X62360000Y-237722500D03*
D16*
X57280000Y-237722500D03*
%TD*%
D17*
%TO.C,R31*%
X91175000Y-156500000D03*
X93000000Y-156500000D03*
%TD*%
D18*
%TO.C,R11*%
X50000000Y-120080000D03*
D19*
X50000000Y-109920000D03*
%TD*%
D15*
%TO.C,M3*%
X39000000Y-262000000D03*
%TD*%
D18*
%TO.C,R1*%
X115000000Y-238080000D03*
D19*
X115000000Y-227920000D03*
%TD*%
D20*
%TO.C,R36*%
X180700000Y-146700000D03*
X180700000Y-144875000D03*
%TD*%
D21*
%TO.C,Q7*%
X67628600Y-208003592D03*
X67628600Y-209303590D03*
X69381200Y-208653591D03*
%TD*%
D22*
%TO.C,R26*%
X185138750Y-168793750D03*
X183313750Y-168793750D03*
%TD*%
D23*
%TO.C,Q6*%
X141195000Y-81824150D03*
X142465000Y-81824150D03*
X143735000Y-81824150D03*
X145005000Y-81824150D03*
X145005000Y-76375850D03*
X143735000Y-76375850D03*
X142465000Y-76375850D03*
X141195000Y-76375850D03*
%TD*%
D24*
%TO.C,RV2*%
X189766250Y-163513750D03*
X187226250Y-166053750D03*
X184686250Y-163513750D03*
%TD*%
%TO.C,RV3*%
X83580000Y-151000000D03*
X81040000Y-153540000D03*
X78500000Y-151000000D03*
%TD*%
D18*
%TO.C,R9*%
X50000000Y-238080000D03*
D19*
X50000000Y-227920000D03*
%TD*%
D22*
%TO.C,R25*%
X79952500Y-140780000D03*
X78127500Y-140780000D03*
%TD*%
D25*
%TO.C,D1*%
X90004900Y-212153591D03*
X93764900Y-212153591D03*
%TD*%
D22*
%TO.C,R40*%
X189912500Y-148300000D03*
X188087500Y-148300000D03*
%TD*%
D20*
%TO.C,R28*%
X193600000Y-154112500D03*
X193600000Y-152287500D03*
%TD*%
D26*
%TO.C,U1*%
X90025001Y-147313351D03*
X90674999Y-147313351D03*
X91325001Y-147313351D03*
X91974999Y-147313351D03*
X91974999Y-142686649D03*
X91325001Y-142686649D03*
X90674999Y-142686649D03*
X90025001Y-142686649D03*
%TD*%
D25*
%TO.C,D3*%
X181104902Y-212253592D03*
X184864902Y-212253592D03*
%TD*%
%TO.C,D4*%
X216764902Y-212353592D03*
X213004902Y-212353592D03*
%TD*%
D18*
%TO.C,R2*%
X115000000Y-180080000D03*
D19*
X115000000Y-169920000D03*
%TD*%
D21*
%TO.C,Q4*%
X208508602Y-211703593D03*
X208508602Y-213003591D03*
X210261202Y-212353592D03*
%TD*%
D22*
%TO.C,R38*%
X186392500Y-143100000D03*
X184567500Y-143100000D03*
%TD*%
D18*
%TO.C,R15*%
X230000000Y-129080000D03*
D19*
X230000000Y-118920000D03*
%TD*%
D18*
%TO.C,R16*%
X230000000Y-72080000D03*
D19*
X230000000Y-61920000D03*
%TD*%
D27*
%TO.C,R29*%
X87040000Y-150367500D03*
X87040000Y-152192500D03*
%TD*%
D28*
%TO.C,C2*%
X179000000Y-152862500D03*
X179000000Y-151137500D03*
%TD*%
D20*
%TO.C,R17*%
X101384900Y-213066091D03*
X101384900Y-211241091D03*
%TD*%
D27*
%TO.C,R22*%
X193226250Y-162881250D03*
X193226250Y-164706250D03*
%TD*%
D29*
%TO.C,C7*%
X140167677Y-65500000D03*
D30*
X135167677Y-65500000D03*
%TD*%
D21*
%TO.C,Q2*%
X67628600Y-211503592D03*
X67628600Y-212803590D03*
X69381200Y-212153591D03*
%TD*%
D31*
%TO.C,C4*%
X176500000Y-153137500D03*
X176500000Y-154862500D03*
%TD*%
D32*
%TO.C,J1*%
X107420000Y-255422500D03*
D33*
X109960000Y-255422500D03*
D34*
X102340000Y-260502500D03*
X112500000Y-260502500D03*
%TD*%
D20*
%TO.C,R34*%
X179000000Y-157912500D03*
X179000000Y-156087500D03*
%TD*%
D21*
%TO.C,Q1*%
X98261200Y-212803590D03*
X98261200Y-211503592D03*
X96508600Y-212153591D03*
%TD*%
D24*
%TO.C,RV4*%
X190980000Y-137600000D03*
X188440000Y-140140000D03*
X185900000Y-137600000D03*
%TD*%
D27*
%TO.C,R33*%
X101000000Y-141587500D03*
X101000000Y-143412500D03*
%TD*%
%TO.C,R18*%
X64504900Y-211241091D03*
X64504900Y-213066091D03*
%TD*%
D18*
%TO.C,R5*%
X165000000Y-247080000D03*
D19*
X165000000Y-236920000D03*
%TD*%
D31*
%TO.C,C1*%
X101000000Y-146637500D03*
X101000000Y-148362500D03*
%TD*%
D17*
%TO.C,R35*%
X87175000Y-156500000D03*
X89000000Y-156500000D03*
%TD*%
D18*
%TO.C,R10*%
X50000000Y-180080000D03*
D19*
X50000000Y-169920000D03*
%TD*%
D18*
%TO.C,R6*%
X165000000Y-188080000D03*
D19*
X165000000Y-177920000D03*
%TD*%
D18*
%TO.C,R8*%
X165000000Y-72080000D03*
D19*
X165000000Y-61920000D03*
%TD*%
D23*
%TO.C,Q5*%
X134995000Y-81824150D03*
X136265000Y-81824150D03*
X137535000Y-81824150D03*
X138805000Y-81824150D03*
X138805000Y-76375850D03*
X137535000Y-76375850D03*
X136265000Y-76375850D03*
X134995000Y-76375850D03*
%TD*%
D32*
%TO.C,J2*%
X172500000Y-255420000D03*
D33*
X175040000Y-255420000D03*
D34*
X167420000Y-260500000D03*
X177580000Y-260500000D03*
%TD*%
D27*
%TO.C,R20*%
X205384902Y-211441092D03*
X205384902Y-213266092D03*
%TD*%
D21*
%TO.C,Q8*%
X208528602Y-208203593D03*
X208528602Y-209503591D03*
X210281202Y-208853592D03*
%TD*%
D35*
%TO.C,K4*%
X217400000Y-230700001D03*
X217400000Y-218500000D03*
X211400002Y-216600001D03*
X205400004Y-218500000D03*
X205400004Y-230700001D03*
%TD*%
D18*
%TO.C,R12*%
X50000000Y-61080000D03*
D19*
X50000000Y-50920000D03*
%TD*%
D27*
%TO.C,R27*%
X92400000Y-138187500D03*
X92400000Y-140012500D03*
%TD*%
%TO.C,R30*%
X194480000Y-137187500D03*
X194480000Y-139012500D03*
%TD*%
D26*
%TO.C,U2*%
X189974999Y-151186649D03*
X189325001Y-151186649D03*
X188674999Y-151186649D03*
X188025001Y-151186649D03*
X188025001Y-155813351D03*
X188674999Y-155813351D03*
X189325001Y-155813351D03*
X189974999Y-155813351D03*
%TD*%
D36*
%TO.C,C5*%
X194862500Y-156000000D03*
X193137500Y-156000000D03*
%TD*%
D20*
%TO.C,R19*%
X192484902Y-213166092D03*
X192484902Y-211341092D03*
%TD*%
%TO.C,R23*%
X92400000Y-136312500D03*
X92400000Y-134487500D03*
%TD*%
D15*
%TO.C,M3*%
X241000000Y-262000000D03*
%TD*%
D18*
%TO.C,R14*%
X230000000Y-188080000D03*
D19*
X230000000Y-177920000D03*
%TD*%
D18*
%TO.C,R4*%
X115000000Y-61080000D03*
D19*
X115000000Y-50920000D03*
%TD*%
D24*
%TO.C,RV1*%
X84580000Y-135500000D03*
X82040000Y-138040000D03*
X79500000Y-135500000D03*
%TD*%
D18*
%TO.C,R7*%
X165000000Y-129160000D03*
D19*
X165000000Y-119000000D03*
%TD*%
D37*
%TO.C,U4*%
X182050000Y-150960000D03*
D38*
X182050000Y-153500000D03*
X182050000Y-156040000D03*
%TD*%
D15*
%TO.C,M3*%
X140000000Y-150000000D03*
%TD*%
D20*
%TO.C,R32*%
X180700000Y-142700000D03*
X180700000Y-140875000D03*
%TD*%
D16*
%TO.C,J6*%
X207380000Y-237722500D03*
D14*
X212460000Y-237722500D03*
X217540000Y-237722500D03*
X222620000Y-237722500D03*
%TD*%
D21*
%TO.C,Q3*%
X189361202Y-212903591D03*
X189361202Y-211603593D03*
X187608602Y-212253592D03*
%TD*%
D17*
%TO.C,R39*%
X90087500Y-150000000D03*
X91912500Y-150000000D03*
%TD*%
D37*
%TO.C,U3*%
X98000000Y-147540000D03*
D38*
X98000000Y-145000000D03*
X98000000Y-142460000D03*
%TD*%
D25*
%TO.C,D2*%
X75884900Y-212153591D03*
X72124900Y-212153591D03*
%TD*%
D18*
%TO.C,R13*%
X230000000Y-247080000D03*
D19*
X230000000Y-236920000D03*
%TD*%
D17*
%TO.C,R24*%
X190587500Y-159900000D03*
X192412500Y-159900000D03*
%TD*%
D22*
%TO.C,R37*%
X79080000Y-156500000D03*
X77255000Y-156500000D03*
%TD*%
D27*
%TO.C,R21*%
X88040000Y-136692500D03*
X88040000Y-134867500D03*
%TD*%
D18*
%TO.C,R3*%
X115000000Y-120080000D03*
D19*
X115000000Y-109920000D03*
%TD*%
D28*
%TO.C,C3*%
X103000000Y-145862500D03*
X103000000Y-144137500D03*
%TD*%
D35*
%TO.C,K3*%
X192500000Y-230700001D03*
X192500000Y-218500000D03*
X186500002Y-216600001D03*
X180500004Y-218500000D03*
X180500004Y-230700001D03*
%TD*%
%TO.C,K1*%
X101399998Y-230700000D03*
X101399998Y-218499999D03*
X95400000Y-216600000D03*
X89400002Y-218499999D03*
X89400002Y-230700000D03*
%TD*%
%TO.C,K2*%
X76399998Y-230700000D03*
X76399998Y-218499999D03*
X70400000Y-216600000D03*
X64400002Y-218499999D03*
X64400002Y-230700000D03*
%TD*%
M02*
