%TF.GenerationSoftware,KiCad,Pcbnew,10.0.1*%
%TF.CreationDate,2026-04-21T20:21:27+02:00*%
%TF.ProjectId,DummyLoad,44756d6d-794c-46f6-9164-2e6b69636164,rev?*%
%TF.SameCoordinates,Original*%
%TF.FileFunction,Copper,L1,Top*%
%TF.FilePolarity,Positive*%
%FSLAX46Y46*%
G04 Gerber Fmt 4.6, Leading zero omitted, Abs format (unit mm)*
G04 Created by KiCad (PCBNEW 10.0.1) date 2026-04-21 20:21:27*
%MOMM*%
%LPD*%
G01*
G04 APERTURE LIST*
G04 Aperture macros list*
%AMRoundRect*
0 Rectangle with rounded corners*
0 $1 Rounding radius*
0 $2 $3 $4 $5 $6 $7 $8 $9 X,Y pos of 4 corners*
0 Add a 4 corners polygon primitive as box body*
4,1,4,$2,$3,$4,$5,$6,$7,$8,$9,$2,$3,0*
0 Add four circle primitives for the rounded corners*
1,1,$1+$1,$2,$3*
1,1,$1+$1,$4,$5*
1,1,$1+$1,$6,$7*
1,1,$1+$1,$8,$9*
0 Add four rect primitives between the rounded corners*
20,1,$1+$1,$2,$3,$4,$5,0*
20,1,$1+$1,$4,$5,$6,$7,0*
20,1,$1+$1,$6,$7,$8,$9,0*
20,1,$1+$1,$8,$9,$2,$3,0*%
G04 Aperture macros list end*
%TA.AperFunction,SMDPad,CuDef*%
%ADD10RoundRect,0.237500X-0.300000X-0.237500X0.300000X-0.237500X0.300000X0.237500X-0.300000X0.237500X0*%
%TD*%
%TA.AperFunction,ComponentPad*%
%ADD11R,1.700000X1.700000*%
%TD*%
%TA.AperFunction,ComponentPad*%
%ADD12C,1.700000*%
%TD*%
%TA.AperFunction,ComponentPad*%
%ADD13RoundRect,0.249999X0.790001X1.550001X-0.790001X1.550001X-0.790001X-1.550001X0.790001X-1.550001X0*%
%TD*%
%TA.AperFunction,ComponentPad*%
%ADD14O,2.080000X3.600000*%
%TD*%
%TA.AperFunction,ComponentPad*%
%ADD15RoundRect,0.249999X-0.790001X-1.550001X0.790001X-1.550001X0.790001X1.550001X-0.790001X1.550001X0*%
%TD*%
%TA.AperFunction,SMDPad,CuDef*%
%ADD16RoundRect,0.237500X-0.250000X-0.237500X0.250000X-0.237500X0.250000X0.237500X-0.250000X0.237500X0*%
%TD*%
%TA.AperFunction,ComponentPad*%
%ADD17R,2.286000X2.286000*%
%TD*%
%TA.AperFunction,ComponentPad*%
%ADD18C,2.286000*%
%TD*%
%TA.AperFunction,SMDPad,CuDef*%
%ADD19RoundRect,0.237500X0.237500X-0.250000X0.237500X0.250000X-0.237500X0.250000X-0.237500X-0.250000X0*%
%TD*%
%TA.AperFunction,SMDPad,CuDef*%
%ADD20R,1.168400X0.457200*%
%TD*%
%TA.AperFunction,SMDPad,CuDef*%
%ADD21RoundRect,0.237500X0.250000X0.237500X-0.250000X0.237500X-0.250000X-0.237500X0.250000X-0.237500X0*%
%TD*%
%TA.AperFunction,SMDPad,CuDef*%
%ADD22R,0.558800X1.460500*%
%TD*%
%TA.AperFunction,ComponentPad*%
%ADD23C,1.440000*%
%TD*%
%TA.AperFunction,SMDPad,CuDef*%
%ADD24R,1.524000X1.651000*%
%TD*%
%TA.AperFunction,SMDPad,CuDef*%
%ADD25R,0.431000X1.527899*%
%TD*%
%TA.AperFunction,SMDPad,CuDef*%
%ADD26RoundRect,0.237500X-0.237500X0.250000X-0.237500X-0.250000X0.237500X-0.250000X0.237500X0.250000X0*%
%TD*%
%TA.AperFunction,SMDPad,CuDef*%
%ADD27RoundRect,0.237500X0.237500X-0.300000X0.237500X0.300000X-0.237500X0.300000X-0.237500X-0.300000X0*%
%TD*%
%TA.AperFunction,ComponentPad*%
%ADD28RoundRect,0.250000X0.750000X0.750000X-0.750000X0.750000X-0.750000X-0.750000X0.750000X-0.750000X0*%
%TD*%
%TA.AperFunction,ComponentPad*%
%ADD29C,2.000000*%
%TD*%
%TA.AperFunction,SMDPad,CuDef*%
%ADD30RoundRect,0.237500X-0.237500X0.300000X-0.237500X-0.300000X0.237500X-0.300000X0.237500X0.300000X0*%
%TD*%
%TA.AperFunction,ComponentPad*%
%ADD31R,1.398000X1.398000*%
%TD*%
%TA.AperFunction,ComponentPad*%
%ADD32C,1.398000*%
%TD*%
%TA.AperFunction,ComponentPad*%
%ADD33C,3.000000*%
%TD*%
%TA.AperFunction,ComponentPad*%
%ADD34C,1.498600*%
%TD*%
%TA.AperFunction,SMDPad,CuDef*%
%ADD35RoundRect,0.237500X0.300000X0.237500X-0.300000X0.237500X-0.300000X-0.237500X0.300000X-0.237500X0*%
%TD*%
%TA.AperFunction,ComponentPad*%
%ADD36R,2.000000X1.905000*%
%TD*%
%TA.AperFunction,ComponentPad*%
%ADD37O,2.000000X1.905000*%
%TD*%
%TA.AperFunction,ViaPad*%
%ADD38C,0.600000*%
%TD*%
%TA.AperFunction,Conductor*%
%ADD39C,0.200000*%
%TD*%
%TA.AperFunction,Conductor*%
%ADD40C,0.750000*%
%TD*%
G04 APERTURE END LIST*
D10*
%TO.P,C6,2*%
%TO.N,+12V*%
X87362500Y-142500000D03*
%TO.P,C6,1*%
%TO.N,GND*%
X85637500Y-142500000D03*
%TD*%
D11*
%TO.P,J7,1,Pin_1_1*%
%TO.N,/Temp_meas1*%
X115940000Y-45500000D03*
D12*
%TO.P,J7,2,Pin_2_2*%
%TO.N,/Temp_Control_Status_Left*%
X118480000Y-45500000D03*
%TO.P,J7,3,Pin_3_3*%
%TO.N,/Mute*%
X121020000Y-45500000D03*
%TO.P,J7,4,Pin_4_4*%
%TO.N,/Load_Select*%
X123560000Y-45500000D03*
%TO.P,J7,5,Pin_5_5*%
%TO.N,/Temp_meas2*%
X126100000Y-45500000D03*
%TO.P,J7,6,Pin_6_6*%
%TO.N,/Temp_Control_Status_Right*%
X128640000Y-45500000D03*
%TD*%
D13*
%TO.P,J4,1,Pin_1_1*%
%TO.N,+12V*%
X140045000Y-54277500D03*
D14*
%TO.P,J4,2,Pin_2_2*%
%TO.N,GND*%
X134965000Y-54277500D03*
%TD*%
D13*
%TO.P,J3,1,Pin_1_1*%
%TO.N,/Fan*%
X153745000Y-54277500D03*
D14*
%TO.P,J3,2,Pin_2_2*%
%TO.N,GND*%
X148665000Y-54277500D03*
%TD*%
%TO.P,J5,4,Pin_4_4*%
%TO.N,Left_Plus*%
X72520000Y-237722500D03*
%TO.P,J5,3,Pin_3_3*%
X67440000Y-237722500D03*
%TO.P,J5,2,Pin_2_2*%
%TO.N,GND*%
X62360000Y-237722500D03*
D15*
%TO.P,J5,1,Pin_1_1*%
X57280000Y-237722500D03*
%TD*%
D16*
%TO.P,R31,1*%
%TO.N,/Temp_Control_Status_Left*%
X91175000Y-156500000D03*
%TO.P,R31,2*%
%TO.N,+12V*%
X93000000Y-156500000D03*
%TD*%
D17*
%TO.P,R11,1*%
%TO.N,Net-(R10-Pad2)*%
X50000000Y-120080000D03*
D18*
%TO.P,R11,2*%
%TO.N,Net-(R11-Pad2)*%
X50000000Y-109920000D03*
%TD*%
D17*
%TO.P,R1,1*%
%TO.N,Net-(K1-Pad1)*%
X115000000Y-238080000D03*
D18*
%TO.P,R1,2*%
%TO.N,Net-(R1-Pad2)*%
X115000000Y-227920000D03*
%TD*%
D19*
%TO.P,R36,1*%
%TO.N,GND*%
X180700000Y-146700000D03*
%TO.P,R36,2*%
%TO.N,/Temp_Control_Status_Right*%
X180700000Y-144875000D03*
%TD*%
D20*
%TO.P,Q7,1,G_1*%
%TO.N,/Temp_Control_Status_Left*%
X67628600Y-208003592D03*
%TO.P,Q7,2,S_2*%
%TO.N,GND*%
X67628600Y-209303590D03*
%TO.P,Q7,3,D_3*%
%TO.N,/Temp_Control*%
X69381200Y-208653591D03*
%TD*%
D21*
%TO.P,R26,1*%
%TO.N,GND*%
X185138750Y-168793750D03*
%TO.P,R26,2*%
%TO.N,Net-(R26-Pad2)*%
X183313750Y-168793750D03*
%TD*%
D22*
%TO.P,Q6,1,S_1*%
%TO.N,+12V*%
X141195000Y-81824150D03*
%TO.P,Q6,2,S_2*%
X142465000Y-81824150D03*
%TO.P,Q6,3,S_3*%
X143735000Y-81824150D03*
%TO.P,Q6,4,G_4*%
%TO.N,Net-(Q6-G)*%
X145005000Y-81824150D03*
%TO.P,Q6,5,D_5*%
%TO.N,/Fan*%
X145005000Y-76375850D03*
%TO.P,Q6,6,D_6*%
X143735000Y-76375850D03*
%TO.P,Q6,7,D_7*%
X142465000Y-76375850D03*
%TO.P,Q6,8,D_8*%
X141195000Y-76375850D03*
%TD*%
D23*
%TO.P,RV2,1,1_1*%
%TO.N,Net-(R22-Pad1)*%
X189766250Y-163513750D03*
%TO.P,RV2,2,2_2*%
%TO.N,Net-(U2B--)*%
X187226250Y-166053750D03*
%TO.P,RV2,3,3_3*%
%TO.N,Net-(R26-Pad2)*%
X184686250Y-163513750D03*
%TD*%
%TO.P,RV3,1,1_1*%
%TO.N,Net-(R29-Pad1)*%
X83580000Y-151000000D03*
%TO.P,RV3,2,2_2*%
%TO.N,Net-(U1A--)*%
X81040000Y-153540000D03*
%TO.P,RV3,3,3_3*%
%TO.N,Net-(R37-Pad2)*%
X78500000Y-151000000D03*
%TD*%
D17*
%TO.P,R9,1*%
%TO.N,GND*%
X50000000Y-238080000D03*
D18*
%TO.P,R9,2*%
%TO.N,Net-(R10-Pad1)*%
X50000000Y-227920000D03*
%TD*%
D21*
%TO.P,R25,1*%
%TO.N,GND*%
X79952500Y-140780000D03*
%TO.P,R25,2*%
%TO.N,Net-(R25-Pad2)*%
X78127500Y-140780000D03*
%TD*%
D24*
%TO.P,D1,1*%
%TO.N,+12V*%
X90004900Y-212153591D03*
%TO.P,D1,2*%
%TO.N,Net-(Q1-D)*%
X93764900Y-212153591D03*
%TD*%
D21*
%TO.P,R40,1*%
%TO.N,/Temp_Control_Status_Right*%
X189912500Y-148300000D03*
%TO.P,R40,2*%
%TO.N,/Temp_meas2*%
X188087500Y-148300000D03*
%TD*%
D19*
%TO.P,R28,1*%
%TO.N,Net-(Q6-G)*%
X193600000Y-154112500D03*
%TO.P,R28,2*%
%TO.N,/Temp_meas2*%
X193600000Y-152287500D03*
%TD*%
D25*
%TO.P,U1,1*%
%TO.N,/Temp_Control_Status_Left*%
X90025001Y-147313351D03*
%TO.P,U1,2,-_2*%
%TO.N,Net-(U1A--)*%
X90674999Y-147313351D03*
%TO.P,U1,3,+_3*%
%TO.N,/Temp_meas1*%
X91325001Y-147313351D03*
%TO.P,U1,4,V-_4*%
%TO.N,GND*%
X91974999Y-147313351D03*
%TO.P,U1,5,+_5*%
%TO.N,/Temp_meas1*%
X91974999Y-142686649D03*
%TO.P,U1,6,-_6*%
%TO.N,Net-(U1B--)*%
X91325001Y-142686649D03*
%TO.P,U1,7*%
%TO.N,Net-(Q5-G)*%
X90674999Y-142686649D03*
%TO.P,U1,8,V+_8*%
%TO.N,+12V*%
X90025001Y-142686649D03*
%TD*%
D24*
%TO.P,D3,1*%
%TO.N,+12V*%
X181104902Y-212253592D03*
%TO.P,D3,2*%
%TO.N,Net-(Q3-D)*%
X184864902Y-212253592D03*
%TD*%
%TO.P,D4,1*%
%TO.N,+12V*%
X216764902Y-212353592D03*
%TO.P,D4,2*%
%TO.N,/Temp_Control*%
X213004902Y-212353592D03*
%TD*%
D17*
%TO.P,R2,1*%
%TO.N,Net-(R1-Pad2)*%
X115000000Y-180080000D03*
D18*
%TO.P,R2,2*%
%TO.N,Net-(R2-Pad2)*%
X115000000Y-169920000D03*
%TD*%
D20*
%TO.P,Q4,1,G_1*%
%TO.N,/Mute*%
X208508602Y-211703593D03*
%TO.P,Q4,2,S_2*%
%TO.N,GND*%
X208508602Y-213003591D03*
%TO.P,Q4,3,D_3*%
%TO.N,/Temp_Control*%
X210261202Y-212353592D03*
%TD*%
D21*
%TO.P,R38,1*%
%TO.N,GND*%
X186392500Y-143100000D03*
%TO.P,R38,2*%
%TO.N,Net-(R38-Pad2)*%
X184567500Y-143100000D03*
%TD*%
D17*
%TO.P,R15,1*%
%TO.N,Net-(R14-Pad2)*%
X230000000Y-129080000D03*
D18*
%TO.P,R15,2*%
%TO.N,Net-(R15-Pad2)*%
X230000000Y-118920000D03*
%TD*%
D17*
%TO.P,R16,1*%
%TO.N,Net-(R15-Pad2)*%
X230000000Y-72080000D03*
D18*
%TO.P,R16,2*%
%TO.N,Net-(K4-Pad3)*%
X230000000Y-61920000D03*
%TD*%
D26*
%TO.P,R29,1*%
%TO.N,Net-(R29-Pad1)*%
X87040000Y-150367500D03*
%TO.P,R29,2*%
%TO.N,+12V*%
X87040000Y-152192500D03*
%TD*%
D27*
%TO.P,C2,1*%
%TO.N,GND*%
X179000000Y-152862500D03*
%TO.P,C2,2*%
%TO.N,+12V*%
X179000000Y-151137500D03*
%TD*%
D19*
%TO.P,R17,1*%
%TO.N,/Load_Select*%
X101384900Y-213066091D03*
%TO.P,R17,2*%
%TO.N,GND*%
X101384900Y-211241091D03*
%TD*%
D26*
%TO.P,R22,1*%
%TO.N,Net-(R22-Pad1)*%
X193226250Y-162881250D03*
%TO.P,R22,2*%
%TO.N,+12V*%
X193226250Y-164706250D03*
%TD*%
D28*
%TO.P,C7,1*%
%TO.N,+12V*%
X140167677Y-65500000D03*
D29*
%TO.P,C7,2*%
%TO.N,GND*%
X135167677Y-65500000D03*
%TD*%
D20*
%TO.P,Q2,1,G_1*%
%TO.N,/Mute*%
X67628600Y-211503592D03*
%TO.P,Q2,2,S_2*%
%TO.N,GND*%
X67628600Y-212803590D03*
%TO.P,Q2,3,D_3*%
%TO.N,/Temp_Control*%
X69381200Y-212153591D03*
%TD*%
D30*
%TO.P,C4,1*%
%TO.N,GND*%
X176500000Y-153137500D03*
%TO.P,C4,2*%
%TO.N,/Temp_meas2*%
X176500000Y-154862500D03*
%TD*%
D31*
%TO.P,J1,1,In_1*%
%TO.N,Left_Plus*%
X107420000Y-255422500D03*
D32*
%TO.P,J1,2,Ext_2*%
%TO.N,GND*%
X109960000Y-255422500D03*
D33*
%TO.P,J1,S1*%
%TO.N,N/C*%
X102340000Y-260502500D03*
%TO.P,J1,S2*%
X112500000Y-260502500D03*
%TD*%
D19*
%TO.P,R34,1*%
%TO.N,Net-(U4-V_{OUT})*%
X179000000Y-157912500D03*
%TO.P,R34,2*%
%TO.N,/Temp_meas2*%
X179000000Y-156087500D03*
%TD*%
D20*
%TO.P,Q1,1,G_1*%
%TO.N,/Load_Select*%
X98261200Y-212803590D03*
%TO.P,Q1,2,S_2*%
%TO.N,GND*%
X98261200Y-211503592D03*
%TO.P,Q1,3,D_3*%
%TO.N,Net-(Q1-D)*%
X96508600Y-212153591D03*
%TD*%
D23*
%TO.P,RV4,1,1_1*%
%TO.N,Net-(R30-Pad1)*%
X190980000Y-137600000D03*
%TO.P,RV4,2,2_2*%
%TO.N,Net-(U2A--)*%
X188440000Y-140140000D03*
%TO.P,RV4,3,3_3*%
%TO.N,Net-(R38-Pad2)*%
X185900000Y-137600000D03*
%TD*%
D26*
%TO.P,R33,1*%
%TO.N,Net-(U3-V_{OUT})*%
X101000000Y-141587500D03*
%TO.P,R33,2*%
%TO.N,/Temp_meas1*%
X101000000Y-143412500D03*
%TD*%
%TO.P,R18,1*%
%TO.N,/Mute*%
X64504900Y-211241091D03*
%TO.P,R18,2*%
%TO.N,GND*%
X64504900Y-213066091D03*
%TD*%
D17*
%TO.P,R5,1*%
%TO.N,Net-(K3-Pad1)*%
X165000000Y-247080000D03*
D18*
%TO.P,R5,2*%
%TO.N,Net-(R5-Pad2)*%
X165000000Y-236920000D03*
%TD*%
D30*
%TO.P,C1,1*%
%TO.N,GND*%
X101000000Y-146637500D03*
%TO.P,C1,2*%
%TO.N,+12V*%
X101000000Y-148362500D03*
%TD*%
D16*
%TO.P,R35,1*%
%TO.N,GND*%
X87175000Y-156500000D03*
%TO.P,R35,2*%
%TO.N,/Temp_Control_Status_Left*%
X89000000Y-156500000D03*
%TD*%
D17*
%TO.P,R10,1*%
%TO.N,Net-(R10-Pad1)*%
X50000000Y-180080000D03*
D18*
%TO.P,R10,2*%
%TO.N,Net-(R10-Pad2)*%
X50000000Y-169920000D03*
%TD*%
D17*
%TO.P,R6,1*%
%TO.N,Net-(R5-Pad2)*%
X165000000Y-188080000D03*
D18*
%TO.P,R6,2*%
%TO.N,Net-(R6-Pad2)*%
X165000000Y-177920000D03*
%TD*%
D17*
%TO.P,R8,1*%
%TO.N,Net-(R7-Pad2)*%
X165000000Y-72080000D03*
D18*
%TO.P,R8,2*%
%TO.N,Net-(K4-Pad3)*%
X165000000Y-61920000D03*
%TD*%
D22*
%TO.P,Q5,1,S_1*%
%TO.N,+12V*%
X134995000Y-81824150D03*
%TO.P,Q5,2,S_2*%
X136265000Y-81824150D03*
%TO.P,Q5,3,S_3*%
X137535000Y-81824150D03*
%TO.P,Q5,4,G_4*%
%TO.N,Net-(Q5-G)*%
X138805000Y-81824150D03*
%TO.P,Q5,5,D_5*%
%TO.N,/Fan*%
X138805000Y-76375850D03*
%TO.P,Q5,6,D_6*%
X137535000Y-76375850D03*
%TO.P,Q5,7,D_7*%
X136265000Y-76375850D03*
%TO.P,Q5,8,D_8*%
X134995000Y-76375850D03*
%TD*%
D31*
%TO.P,J2,1,In_1*%
%TO.N,Right_Plus*%
X172500000Y-255420000D03*
D32*
%TO.P,J2,2,Ext_2*%
%TO.N,GND*%
X175040000Y-255420000D03*
D33*
%TO.P,J2,S1*%
%TO.N,N/C*%
X167420000Y-260500000D03*
%TO.P,J2,S2*%
X177580000Y-260500000D03*
%TD*%
D26*
%TO.P,R20,1*%
%TO.N,/Mute*%
X205384902Y-211441092D03*
%TO.P,R20,2*%
%TO.N,GND*%
X205384902Y-213266092D03*
%TD*%
D20*
%TO.P,Q8,1,G_1*%
%TO.N,/Temp_Control_Status_Right*%
X208528602Y-208203593D03*
%TO.P,Q8,2,S_2*%
%TO.N,GND*%
X208528602Y-209503591D03*
%TO.P,Q8,3,D_3*%
%TO.N,/Temp_Control*%
X210281202Y-208853592D03*
%TD*%
D34*
%TO.P,K4,1*%
%TO.N,unconnected-(K4-Pad1)*%
X217400000Y-230700001D03*
%TO.P,K4,2*%
%TO.N,+12V*%
X217400000Y-218500000D03*
%TO.P,K4,3*%
%TO.N,Net-(K4-Pad3)*%
X211400002Y-216600001D03*
%TO.P,K4,4*%
%TO.N,/Temp_Control*%
X205400004Y-218500000D03*
%TO.P,K4,5*%
%TO.N,Right_Plus*%
X205400004Y-230700001D03*
%TD*%
D17*
%TO.P,R12,1*%
%TO.N,Net-(R11-Pad2)*%
X50000000Y-61080000D03*
D18*
%TO.P,R12,2*%
%TO.N,Net-(K2-Pad3)*%
X50000000Y-50920000D03*
%TD*%
D26*
%TO.P,R27,1*%
%TO.N,Net-(Q5-G)*%
X92400000Y-138187500D03*
%TO.P,R27,2*%
%TO.N,/Temp_meas1*%
X92400000Y-140012500D03*
%TD*%
%TO.P,R30,1*%
%TO.N,Net-(R30-Pad1)*%
X194480000Y-137187500D03*
%TO.P,R30,2*%
%TO.N,+12V*%
X194480000Y-139012500D03*
%TD*%
D25*
%TO.P,U2,1*%
%TO.N,/Temp_Control_Status_Right*%
X189974999Y-151186649D03*
%TO.P,U2,2,-_2*%
%TO.N,Net-(U2A--)*%
X189325001Y-151186649D03*
%TO.P,U2,3,+_3*%
%TO.N,/Temp_meas2*%
X188674999Y-151186649D03*
%TO.P,U2,4,V-_4*%
%TO.N,GND*%
X188025001Y-151186649D03*
%TO.P,U2,5,+_5*%
%TO.N,/Temp_meas2*%
X188025001Y-155813351D03*
%TO.P,U2,6,-_6*%
%TO.N,Net-(U2B--)*%
X188674999Y-155813351D03*
%TO.P,U2,7*%
%TO.N,Net-(Q6-G)*%
X189325001Y-155813351D03*
%TO.P,U2,8,V+_8*%
%TO.N,+12V*%
X189974999Y-155813351D03*
%TD*%
D35*
%TO.P,C5,1*%
%TO.N,GND*%
X194862500Y-156000000D03*
%TO.P,C5,2*%
%TO.N,+12V*%
X193137500Y-156000000D03*
%TD*%
D19*
%TO.P,R19,1*%
%TO.N,/Load_Select*%
X192484902Y-213166092D03*
%TO.P,R19,2*%
%TO.N,GND*%
X192484902Y-211341092D03*
%TD*%
%TO.P,R23,1*%
%TO.N,Net-(Q5-G)*%
X92400000Y-136312500D03*
%TO.P,R23,2*%
%TO.N,+12V*%
X92400000Y-134487500D03*
%TD*%
D17*
%TO.P,R14,1*%
%TO.N,Net-(R13-Pad2)*%
X230000000Y-188080000D03*
D18*
%TO.P,R14,2*%
%TO.N,Net-(R14-Pad2)*%
X230000000Y-177920000D03*
%TD*%
D17*
%TO.P,R4,1*%
%TO.N,Net-(R3-Pad2)*%
X115000000Y-61080000D03*
D18*
%TO.P,R4,2*%
%TO.N,Net-(K2-Pad3)*%
X115000000Y-50920000D03*
%TD*%
D23*
%TO.P,RV1,1,1_1*%
%TO.N,Net-(R21-Pad1)*%
X84580000Y-135500000D03*
%TO.P,RV1,2,2_2*%
%TO.N,Net-(U1B--)*%
X82040000Y-138040000D03*
%TO.P,RV1,3,3_3*%
%TO.N,Net-(R25-Pad2)*%
X79500000Y-135500000D03*
%TD*%
D17*
%TO.P,R7,1*%
%TO.N,Net-(R6-Pad2)*%
X165000000Y-129160000D03*
D18*
%TO.P,R7,2*%
%TO.N,Net-(R7-Pad2)*%
X165000000Y-119000000D03*
%TD*%
D36*
%TO.P,U4,1,+V_{S}_1*%
%TO.N,+12V*%
X182050000Y-150960000D03*
D37*
%TO.P,U4,2,GND_2*%
%TO.N,GND*%
X182050000Y-153500000D03*
%TO.P,U4,3,V_{OUT}_3*%
%TO.N,Net-(U4-V_{OUT})*%
X182050000Y-156040000D03*
%TD*%
D19*
%TO.P,R32,1*%
%TO.N,/Temp_Control_Status_Right*%
X180700000Y-142700000D03*
%TO.P,R32,2*%
%TO.N,+12V*%
X180700000Y-140875000D03*
%TD*%
D15*
%TO.P,J6,1,Pin_1_1*%
%TO.N,Right_Plus*%
X207380000Y-237722500D03*
D14*
%TO.P,J6,2,Pin_2_2*%
X212460000Y-237722500D03*
%TO.P,J6,3,Pin_3_3*%
%TO.N,GND*%
X217540000Y-237722500D03*
%TO.P,J6,4,Pin_4_4*%
X222620000Y-237722500D03*
%TD*%
D20*
%TO.P,Q3,1,G_1*%
%TO.N,/Load_Select*%
X189361202Y-212903591D03*
%TO.P,Q3,2,S_2*%
%TO.N,GND*%
X189361202Y-211603593D03*
%TO.P,Q3,3,D_3*%
%TO.N,Net-(Q3-D)*%
X187608602Y-212253592D03*
%TD*%
D16*
%TO.P,R39,1*%
%TO.N,/Temp_Control_Status_Left*%
X90087500Y-150000000D03*
%TO.P,R39,2*%
%TO.N,/Temp_meas1*%
X91912500Y-150000000D03*
%TD*%
D36*
%TO.P,U3,1,+V_{S}_1*%
%TO.N,+12V*%
X98000000Y-147540000D03*
D37*
%TO.P,U3,2,GND_2*%
%TO.N,GND*%
X98000000Y-145000000D03*
%TO.P,U3,3,V_{OUT}_3*%
%TO.N,Net-(U3-V_{OUT})*%
X98000000Y-142460000D03*
%TD*%
D24*
%TO.P,D2,1*%
%TO.N,+12V*%
X75884900Y-212153591D03*
%TO.P,D2,2*%
%TO.N,/Temp_Control*%
X72124900Y-212153591D03*
%TD*%
D17*
%TO.P,R13,1*%
%TO.N,GND*%
X230000000Y-247080000D03*
D18*
%TO.P,R13,2*%
%TO.N,Net-(R13-Pad2)*%
X230000000Y-236920000D03*
%TD*%
D16*
%TO.P,R24,1*%
%TO.N,Net-(Q6-G)*%
X190587500Y-159900000D03*
%TO.P,R24,2*%
%TO.N,+12V*%
X192412500Y-159900000D03*
%TD*%
D21*
%TO.P,R37,1*%
%TO.N,GND*%
X79080000Y-156500000D03*
%TO.P,R37,2*%
%TO.N,Net-(R37-Pad2)*%
X77255000Y-156500000D03*
%TD*%
D26*
%TO.P,R21,2*%
%TO.N,+12V*%
X88040000Y-136692500D03*
%TO.P,R21,1*%
%TO.N,Net-(R21-Pad1)*%
X88040000Y-134867500D03*
%TD*%
D17*
%TO.P,R3,1*%
%TO.N,Net-(R2-Pad2)*%
X115000000Y-120080000D03*
D18*
%TO.P,R3,2*%
%TO.N,Net-(R3-Pad2)*%
X115000000Y-109920000D03*
%TD*%
D27*
%TO.P,C3,1*%
%TO.N,GND*%
X103000000Y-145862500D03*
%TO.P,C3,2*%
%TO.N,/Temp_meas1*%
X103000000Y-144137500D03*
%TD*%
D34*
%TO.P,K3,1*%
%TO.N,Net-(K3-Pad1)*%
X192500000Y-230700001D03*
%TO.P,K3,2*%
%TO.N,Net-(Q3-D)*%
X192500000Y-218500000D03*
%TO.P,K3,3*%
%TO.N,GND*%
X186500002Y-216600001D03*
%TO.P,K3,4*%
%TO.N,+12V*%
X180500004Y-218500000D03*
%TO.P,K3,5*%
%TO.N,unconnected-(K3-Pad5)*%
X180500004Y-230700001D03*
%TD*%
%TO.P,K1,1*%
%TO.N,Net-(K1-Pad1)*%
X101399998Y-230700000D03*
%TO.P,K1,2*%
%TO.N,Net-(Q1-D)*%
X101399998Y-218499999D03*
%TO.P,K1,3*%
%TO.N,GND*%
X95400000Y-216600000D03*
%TO.P,K1,4*%
%TO.N,+12V*%
X89400002Y-218499999D03*
%TO.P,K1,5*%
%TO.N,unconnected-(K1-Pad5)*%
X89400002Y-230700000D03*
%TD*%
%TO.P,K2,1*%
%TO.N,unconnected-(K2-Pad1)*%
X76399998Y-230700000D03*
%TO.P,K2,2*%
%TO.N,+12V*%
X76399998Y-218499999D03*
%TO.P,K2,3*%
%TO.N,Net-(K2-Pad3)*%
X70400000Y-216600000D03*
%TO.P,K2,4*%
%TO.N,/Temp_Control*%
X64400002Y-218499999D03*
%TO.P,K2,5*%
%TO.N,Left_Plus*%
X64400002Y-230700000D03*
%TD*%
D38*
%TO.N,GND*%
X103000000Y-211000000D03*
X207200000Y-210200000D03*
X204100000Y-214100000D03*
X193700000Y-210800000D03*
%TO.N,Net-(Q6-G)*%
X145100000Y-83700000D03*
X194800000Y-153700000D03*
%TO.N,+12V*%
X193700000Y-160600000D03*
X193700000Y-166000000D03*
%TO.N,GND*%
X186400000Y-169400000D03*
X186700000Y-150600000D03*
X177800000Y-152400000D03*
X175600000Y-151900000D03*
%TO.N,+12V*%
X195200000Y-140100000D03*
X182000000Y-140300000D03*
%TO.N,GND*%
X187600000Y-143800000D03*
X181800000Y-147100000D03*
X195400000Y-157200000D03*
%TO.N,+12V*%
X192500000Y-157200000D03*
%TO.N,GND*%
X86500000Y-157500000D03*
%TO.N,+12V*%
X94000000Y-155500000D03*
%TO.N,Net-(Q5-G)*%
X93800000Y-135400000D03*
X138200000Y-83500000D03*
%TO.N,+12V*%
X91300000Y-133700000D03*
%TO.N,GND*%
X103500000Y-147100000D03*
X99900000Y-145900000D03*
X92900000Y-147800000D03*
%TO.N,+12V*%
X88600000Y-137900000D03*
X87900000Y-141300000D03*
X87300000Y-153500000D03*
%TO.N,GND*%
X80000000Y-157300000D03*
X66604900Y-209853591D03*
X63304900Y-213853591D03*
%TO.N,+12V*%
X143900000Y-80200000D03*
X142600000Y-80200000D03*
X141400000Y-80200000D03*
X137700000Y-80200000D03*
X136400000Y-80200000D03*
X135100000Y-80200000D03*
%TO.N,GND*%
X84900000Y-141800000D03*
X80700000Y-140100000D03*
%TD*%
%TO.N,GND*%
D39*
X102758909Y-211241091D02*
X103000000Y-211000000D01*
X101384900Y-211241091D02*
X102758909Y-211241091D01*
%TO.N,/Mute*%
X202058908Y-211441092D02*
X205384902Y-211441092D01*
X200400000Y-213100000D02*
X202058908Y-211441092D01*
X200400000Y-217100000D02*
X200400000Y-213100000D01*
X91846409Y-223500000D02*
X194000000Y-223500000D01*
X78700000Y-210353591D02*
X91846409Y-223500000D01*
X194000000Y-223500000D02*
X200400000Y-217100000D01*
%TO.N,/Temp_Control*%
X198400004Y-225500000D02*
X205400004Y-218500000D01*
X71707800Y-215291736D02*
X81916064Y-225500000D01*
X81916064Y-225500000D02*
X198400004Y-225500000D01*
X71707800Y-212570691D02*
X71707800Y-215291736D01*
X72124900Y-212153591D02*
X71707800Y-212570691D01*
%TO.N,GND*%
X207896409Y-209503591D02*
X207200000Y-210200000D01*
X208528602Y-209503591D02*
X207896409Y-209503591D01*
X204933908Y-213266092D02*
X204100000Y-214100000D01*
X205384902Y-213266092D02*
X204933908Y-213266092D01*
X193158908Y-211341092D02*
X193700000Y-210800000D01*
X192484902Y-211341092D02*
X193158908Y-211341092D01*
%TO.N,/Load_Select*%
X194600000Y-220000000D02*
X194600000Y-215281190D01*
X107000000Y-221400000D02*
X193200000Y-221400000D01*
X194600000Y-215281190D02*
X192484902Y-213166092D01*
X101384900Y-215784900D02*
X107000000Y-221400000D01*
X101384900Y-213066091D02*
X101384900Y-215784900D01*
X193200000Y-221400000D02*
X194600000Y-220000000D01*
X123700000Y-45640000D02*
X123560000Y-45500000D01*
X109200000Y-211900000D02*
X123700000Y-197400000D01*
X102550991Y-211900000D02*
X109200000Y-211900000D01*
X123700000Y-197400000D02*
X123700000Y-45640000D01*
X101384900Y-213066091D02*
X102550991Y-211900000D01*
%TO.N,/Mute*%
X78700000Y-210353591D02*
X108146409Y-210353591D01*
%TO.N,Net-(Q6-G)*%
X145100000Y-83700000D02*
X145100000Y-81919150D01*
X145100000Y-81919150D02*
X145005000Y-81824150D01*
X194387500Y-154112500D02*
X194800000Y-153700000D01*
X193600000Y-154112500D02*
X194387500Y-154112500D01*
%TO.N,/Temp_Control_Status_Right*%
X181700000Y-142700000D02*
X180700000Y-142700000D01*
X183100000Y-141300000D02*
X181700000Y-142700000D01*
X195800000Y-134000000D02*
X185600000Y-134000000D01*
X185600000Y-134000000D02*
X183100000Y-136500000D01*
X208528602Y-146728602D02*
X195800000Y-134000000D01*
X208528602Y-208203593D02*
X208528602Y-146728602D01*
X183100000Y-136500000D02*
X183100000Y-141300000D01*
%TO.N,+12V*%
X193000000Y-159900000D02*
X193700000Y-160600000D01*
X192412500Y-159900000D02*
X193000000Y-159900000D01*
X193226250Y-165526250D02*
X193700000Y-166000000D01*
X193226250Y-164706250D02*
X193226250Y-165526250D01*
%TO.N,GND*%
X185793750Y-168793750D02*
X186400000Y-169400000D01*
X185138750Y-168793750D02*
X185793750Y-168793750D01*
%TO.N,Net-(Q6-G)*%
X189325001Y-158637501D02*
X189325001Y-155813351D01*
X190587500Y-159900000D02*
X189325001Y-158637501D01*
%TO.N,GND*%
X187286649Y-151186649D02*
X186700000Y-150600000D01*
X188025001Y-151186649D02*
X187286649Y-151186649D01*
X178262500Y-152862500D02*
X177800000Y-152400000D01*
X179000000Y-152862500D02*
X178262500Y-152862500D01*
X176500000Y-152800000D02*
X175600000Y-151900000D01*
X176500000Y-153137500D02*
X176500000Y-152800000D01*
%TO.N,Net-(R30-Pad1)*%
X194367500Y-137300000D02*
X194480000Y-137187500D01*
X191280000Y-137300000D02*
X194367500Y-137300000D01*
X190980000Y-137600000D02*
X191280000Y-137300000D01*
%TO.N,+12V*%
X194480000Y-139380000D02*
X195200000Y-140100000D01*
X194480000Y-139012500D02*
X194480000Y-139380000D01*
X181425000Y-140875000D02*
X182000000Y-140300000D01*
X180700000Y-140875000D02*
X181425000Y-140875000D01*
%TO.N,GND*%
X186900000Y-143100000D02*
X187600000Y-143800000D01*
X186392500Y-143100000D02*
X186900000Y-143100000D01*
X181400000Y-146700000D02*
X181800000Y-147100000D01*
X180700000Y-146700000D02*
X181400000Y-146700000D01*
%TO.N,/Temp_Control_Status_Right*%
X128300000Y-45840000D02*
X128640000Y-45500000D01*
X128300000Y-100800000D02*
X128300000Y-45840000D01*
X170200000Y-142700000D02*
X128300000Y-100800000D01*
X180700000Y-142700000D02*
X170200000Y-142700000D01*
X180700000Y-144875000D02*
X180700000Y-142700000D01*
X189912500Y-147612500D02*
X187175000Y-144875000D01*
X187175000Y-144875000D02*
X180700000Y-144875000D01*
X189912500Y-148300000D02*
X189912500Y-147612500D01*
%TO.N,Net-(U2A--)*%
X189325001Y-152150598D02*
X189325001Y-151186649D01*
X189674403Y-152500000D02*
X189325001Y-152150598D01*
X191700000Y-147000000D02*
X191700000Y-152100000D01*
X191300000Y-152500000D02*
X189674403Y-152500000D01*
X188440000Y-143740000D02*
X191700000Y-147000000D01*
X191700000Y-152100000D02*
X191300000Y-152500000D01*
X188440000Y-140140000D02*
X188440000Y-143740000D01*
%TO.N,/Temp_meas2*%
X188674999Y-152474999D02*
X188674999Y-151186649D01*
X189400000Y-153200000D02*
X188674999Y-152474999D01*
X192687500Y-153200000D02*
X189400000Y-153200000D01*
X193600000Y-152287500D02*
X192687500Y-153200000D01*
%TO.N,Net-(R38-Pad2)*%
X184567500Y-138932500D02*
X185900000Y-137600000D01*
X184567500Y-143100000D02*
X184567500Y-138932500D01*
%TO.N,Net-(Q6-G)*%
X189325001Y-154849402D02*
X189325001Y-155813351D01*
X190061903Y-154112500D02*
X189325001Y-154849402D01*
X193600000Y-154112500D02*
X190061903Y-154112500D01*
%TO.N,/Temp_meas2*%
X126000000Y-45600000D02*
X126100000Y-45500000D01*
X126000000Y-101700000D02*
X126000000Y-45600000D01*
X174800000Y-154100000D02*
X174800000Y-150500000D01*
X175562500Y-154862500D02*
X174800000Y-154100000D01*
X176500000Y-154862500D02*
X175562500Y-154862500D01*
X174800000Y-150500000D02*
X126000000Y-101700000D01*
X177900000Y-157187500D02*
X179000000Y-156087500D01*
X177900000Y-158900000D02*
X177900000Y-157187500D01*
X185600000Y-160100000D02*
X179100000Y-160100000D01*
X188025001Y-157674999D02*
X185600000Y-160100000D01*
X188025001Y-155813351D02*
X188025001Y-157674999D01*
X179100000Y-160100000D02*
X177900000Y-158900000D01*
X188674999Y-154132353D02*
X188674999Y-151186649D01*
X188025001Y-154782351D02*
X188674999Y-154132353D01*
X188025001Y-155813351D02*
X188025001Y-154782351D01*
%TO.N,Net-(U2B--)*%
X188674999Y-164605001D02*
X188674999Y-155813351D01*
X187226250Y-166053750D02*
X188674999Y-164605001D01*
%TO.N,Net-(R22-Pad1)*%
X192593750Y-163513750D02*
X193226250Y-162881250D01*
X189766250Y-163513750D02*
X192593750Y-163513750D01*
%TO.N,Net-(R26-Pad2)*%
X183313750Y-164886250D02*
X184686250Y-163513750D01*
X183313750Y-168793750D02*
X183313750Y-164886250D01*
%TO.N,/Temp_Control_Status_Right*%
X189974999Y-148362499D02*
X189912500Y-148300000D01*
X189974999Y-151186649D02*
X189974999Y-148362499D01*
%TO.N,/Temp_meas2*%
X188087500Y-149587500D02*
X188087500Y-148300000D01*
X188674999Y-150174999D02*
X188087500Y-149587500D01*
X188674999Y-151186649D02*
X188674999Y-150174999D01*
%TO.N,GND*%
X194862500Y-156462500D02*
X194862500Y-156000000D01*
X195400000Y-157200000D02*
X195400000Y-157000000D01*
X195400000Y-157000000D02*
X194862500Y-156462500D01*
%TO.N,+12V*%
X193137500Y-156562500D02*
X192500000Y-157200000D01*
X193137500Y-156000000D02*
X193137500Y-156562500D01*
X190161648Y-156000000D02*
X189974999Y-155813351D01*
X193137500Y-156000000D02*
X190161648Y-156000000D01*
%TO.N,GND*%
X87175000Y-156825000D02*
X86500000Y-157500000D01*
X87175000Y-156500000D02*
X87175000Y-156825000D01*
%TO.N,+12V*%
X93000000Y-156500000D02*
X94000000Y-155500000D01*
%TO.N,/Temp_Control_Status_Left*%
X91175000Y-151087500D02*
X90087500Y-150000000D01*
X91175000Y-156500000D02*
X91175000Y-151087500D01*
X89000000Y-156500000D02*
X91175000Y-156500000D01*
X89000000Y-156500000D02*
X89000000Y-192298701D01*
X75470109Y-208003592D02*
X89000000Y-194473701D01*
X67628600Y-208003592D02*
X75470109Y-208003592D01*
X89000000Y-194473701D02*
X89000000Y-156500000D01*
%TO.N,+12V*%
X179177500Y-150960000D02*
X179000000Y-151137500D01*
X182050000Y-150960000D02*
X179177500Y-150960000D01*
%TO.N,Net-(U4-V_{OUT})*%
X180177500Y-157912500D02*
X182050000Y-156040000D01*
X179000000Y-157912500D02*
X180177500Y-157912500D01*
%TO.N,/Temp_meas2*%
X177775000Y-154862500D02*
X179000000Y-156087500D01*
X176500000Y-154862500D02*
X177775000Y-154862500D01*
%TO.N,/Mute*%
X121400000Y-45880000D02*
X121020000Y-45500000D01*
X121400000Y-197100000D02*
X121400000Y-45880000D01*
X108146409Y-210353591D02*
X121400000Y-197100000D01*
X68778601Y-210353591D02*
X78700000Y-210353591D01*
X67628600Y-211503592D02*
X68778601Y-210353591D01*
%TO.N,Right_Plus*%
D40*
X172500000Y-255420000D02*
X190197500Y-237722500D01*
X190197500Y-237722500D02*
X207380000Y-237722500D01*
%TO.N,Left_Plus*%
X89720000Y-237722500D02*
X72520000Y-237722500D01*
X107420000Y-255422500D02*
X89720000Y-237722500D01*
%TO.N,/Mute*%
D39*
X205647403Y-211703593D02*
X205384902Y-211441092D01*
X208508602Y-211703593D02*
X205647403Y-211703593D01*
%TO.N,GND*%
X208508602Y-213003591D02*
X205647403Y-213003591D01*
X205647403Y-213003591D02*
X205384902Y-213266092D01*
%TO.N,/Temp_Control*%
X210261202Y-208873592D02*
X210281202Y-208853592D01*
X210261202Y-212353592D02*
X210261202Y-208873592D01*
X210261202Y-212353592D02*
X213004902Y-212353592D01*
X205400004Y-218500000D02*
X210261202Y-213638802D01*
X210261202Y-213638802D02*
X210261202Y-212353592D01*
%TO.N,+12V*%
X217400000Y-218500000D02*
X217400000Y-212988690D01*
X217400000Y-212988690D02*
X216764902Y-212353592D01*
%TO.N,GND*%
X192222401Y-211603593D02*
X192484902Y-211341092D01*
X189361202Y-211603593D02*
X192222401Y-211603593D01*
%TO.N,/Load_Select*%
X192222401Y-212903591D02*
X192484902Y-213166092D01*
X189361202Y-212903591D02*
X192222401Y-212903591D01*
%TO.N,Net-(Q3-D)*%
X187608602Y-213608602D02*
X192500000Y-218500000D01*
X187608602Y-212253592D02*
X187608602Y-213608602D01*
X184864902Y-212253592D02*
X187608602Y-212253592D01*
%TO.N,+12V*%
X180500004Y-212858490D02*
X181104902Y-212253592D01*
X180500004Y-218500000D02*
X180500004Y-212858490D01*
%TO.N,Net-(Q5-G)*%
X92412500Y-136300000D02*
X92400000Y-136312500D01*
X93200000Y-136300000D02*
X92412500Y-136300000D01*
X93800000Y-135700000D02*
X93200000Y-136300000D01*
X93800000Y-135400000D02*
X93800000Y-135700000D01*
X138805000Y-82895000D02*
X138200000Y-83500000D01*
X138805000Y-81824150D02*
X138805000Y-82895000D01*
%TO.N,/Temp_meas1*%
X110800000Y-45500000D02*
X115940000Y-45500000D01*
X103000000Y-53300000D02*
X110800000Y-45500000D01*
X103000000Y-144137500D02*
X103000000Y-53300000D01*
%TO.N,+12V*%
X92087500Y-134487500D02*
X91300000Y-133700000D01*
X92400000Y-134487500D02*
X92087500Y-134487500D01*
%TO.N,Net-(Q5-G)*%
X92400000Y-138187500D02*
X92400000Y-136312500D01*
X90674999Y-139912501D02*
X92400000Y-138187500D01*
X90674999Y-142686649D02*
X90674999Y-139912501D01*
%TO.N,/Temp_meas1*%
X91974999Y-142686649D02*
X91974999Y-140437501D01*
X91974999Y-140437501D02*
X92400000Y-140012500D01*
%TO.N,/Temp_Control_Status_Left*%
X119100000Y-46120000D02*
X118480000Y-45500000D01*
X111025000Y-150775000D02*
X119100000Y-142700000D01*
X90862500Y-150775000D02*
X111025000Y-150775000D01*
X90087500Y-150000000D02*
X90862500Y-150775000D01*
X119100000Y-142700000D02*
X119100000Y-46120000D01*
%TO.N,GND*%
X103000000Y-146600000D02*
X103500000Y-147100000D01*
X103000000Y-145862500D02*
X103000000Y-146600000D01*
X100637500Y-146637500D02*
X99900000Y-145900000D01*
X101000000Y-146637500D02*
X100637500Y-146637500D01*
X92413351Y-147313351D02*
X92900000Y-147800000D01*
X91974999Y-147313351D02*
X92413351Y-147313351D01*
%TO.N,+12V*%
X88040000Y-137340000D02*
X88600000Y-137900000D01*
X88040000Y-136692500D02*
X88040000Y-137340000D01*
X87362500Y-141837500D02*
X87900000Y-141300000D01*
X87362500Y-142500000D02*
X87362500Y-141837500D01*
X89838352Y-142500000D02*
X90025001Y-142686649D01*
X87362500Y-142500000D02*
X89838352Y-142500000D01*
%TO.N,Net-(U1B--)*%
X83800000Y-139800000D02*
X82040000Y-138040000D01*
X85000000Y-144000000D02*
X83800000Y-142800000D01*
X90975599Y-144000000D02*
X85000000Y-144000000D01*
X83800000Y-142800000D02*
X83800000Y-139800000D01*
X91325001Y-142686649D02*
X91325001Y-143650598D01*
X91325001Y-143650598D02*
X90975599Y-144000000D01*
%TO.N,+12V*%
X87040000Y-153240000D02*
X87300000Y-153500000D01*
X87040000Y-152192500D02*
X87040000Y-153240000D01*
%TO.N,GND*%
X79200000Y-156500000D02*
X80000000Y-157300000D01*
X79080000Y-156500000D02*
X79200000Y-156500000D01*
%TO.N,/Temp_Control*%
X62104900Y-216204897D02*
X64400002Y-218499999D01*
X63604900Y-208653591D02*
X62104900Y-210153591D01*
X62104900Y-210153591D02*
X62104900Y-216204897D01*
X69381200Y-208653591D02*
X63604900Y-208653591D01*
%TO.N,GND*%
X67154901Y-209303590D02*
X66604900Y-209853591D01*
X67628600Y-209303590D02*
X67154901Y-209303590D01*
X64092400Y-213066091D02*
X63304900Y-213853591D01*
X64504900Y-213066091D02*
X64092400Y-213066091D01*
%TO.N,+12V*%
D40*
X142465000Y-81824150D02*
X143735000Y-81824150D01*
X141195000Y-81824150D02*
X142465000Y-81824150D01*
X136265000Y-81824150D02*
X137535000Y-81824150D01*
X134995000Y-81824150D02*
X136265000Y-81824150D01*
X143735000Y-80365000D02*
X143900000Y-80200000D01*
X143735000Y-81824150D02*
X143735000Y-80365000D01*
X142465000Y-80335000D02*
X142600000Y-80200000D01*
X142465000Y-81824150D02*
X142465000Y-80335000D01*
X141195000Y-80405000D02*
X141400000Y-80200000D01*
X141195000Y-81824150D02*
X141195000Y-80405000D01*
X137535000Y-80365000D02*
X137700000Y-80200000D01*
X137535000Y-81824150D02*
X137535000Y-80365000D01*
X136265000Y-80335000D02*
X136400000Y-80200000D01*
X136265000Y-81824150D02*
X136265000Y-80335000D01*
X134995000Y-80305000D02*
X135100000Y-80200000D01*
X134995000Y-81824150D02*
X134995000Y-80305000D01*
%TO.N,/Fan*%
X153745000Y-68955000D02*
X153745000Y-54277500D01*
X145005000Y-76375850D02*
X146324150Y-76375850D01*
X146324150Y-76375850D02*
X153745000Y-68955000D01*
X143735000Y-76375850D02*
X145005000Y-76375850D01*
X142465000Y-76375850D02*
X143735000Y-76375850D01*
X141195000Y-76375850D02*
X142465000Y-76375850D01*
X138805000Y-76375850D02*
X141195000Y-76375850D01*
X137535000Y-76375850D02*
X138805000Y-76375850D01*
X136265000Y-76375850D02*
X137535000Y-76375850D01*
X135024150Y-76375850D02*
X136265000Y-76375850D01*
X135000000Y-76400000D02*
X135024150Y-76375850D01*
X134995000Y-76395000D02*
X135000000Y-76400000D01*
X134995000Y-76375850D02*
X134995000Y-76395000D01*
%TO.N,GND*%
D39*
X64767401Y-212803590D02*
X64504900Y-213066091D01*
X80280000Y-140780000D02*
X79952500Y-140780000D01*
X85500000Y-142500000D02*
X85637500Y-142500000D01*
X101122399Y-211503592D02*
X101384900Y-211241091D01*
X80700000Y-140100000D02*
X80700000Y-140360000D01*
X98261200Y-211503592D02*
X101122399Y-211503592D01*
X67628600Y-212803590D02*
X64767401Y-212803590D01*
X84900000Y-141800000D02*
X84900000Y-141900000D01*
X84900000Y-141900000D02*
X85500000Y-142500000D01*
X80700000Y-140360000D02*
X80280000Y-140780000D01*
%TO.N,+12V*%
X89400002Y-212758489D02*
X90004900Y-212153591D01*
X98822500Y-148362500D02*
X98000000Y-147540000D01*
X101000000Y-148362500D02*
X98822500Y-148362500D01*
X89400002Y-218499999D02*
X89400002Y-212758489D01*
X76399998Y-212668689D02*
X75884900Y-212153591D01*
X76399998Y-218499999D02*
X76399998Y-212668689D01*
%TO.N,/Temp_meas1*%
X91325001Y-144367647D02*
X91325001Y-147313351D01*
X91912500Y-150000000D02*
X103500000Y-150000000D01*
X91325001Y-147313351D02*
X91325001Y-149412501D01*
X101000000Y-143412500D02*
X102275000Y-143412500D01*
X91974999Y-142025001D02*
X91912500Y-141962502D01*
X104500000Y-149000000D02*
X104500000Y-145637500D01*
X104500000Y-145637500D02*
X103000000Y-144137500D01*
X103500000Y-150000000D02*
X104500000Y-149000000D01*
X91974999Y-142686649D02*
X91974999Y-143717649D01*
X91974999Y-143717649D02*
X91325001Y-144367647D01*
X91974999Y-142686649D02*
X91974999Y-142025001D01*
X91325001Y-149412501D02*
X91912500Y-150000000D01*
X102275000Y-143412500D02*
X103000000Y-144137500D01*
%TO.N,/Temp_Control_Status_Left*%
X90087500Y-147375850D02*
X90025001Y-147313351D01*
X90087500Y-150000000D02*
X90087500Y-147375850D01*
%TO.N,/Load_Select*%
X101122399Y-212803590D02*
X101384900Y-213066091D01*
X98261200Y-212803590D02*
X101122399Y-212803590D01*
%TO.N,/Mute*%
X64767401Y-211503592D02*
X64504900Y-211241091D01*
X67628600Y-211503592D02*
X64767401Y-211503592D01*
%TO.N,Net-(Q1-D)*%
X93764900Y-212153591D02*
X96508600Y-212153591D01*
X96508600Y-213608601D02*
X96508600Y-212153591D01*
X101399998Y-218499999D02*
X96508600Y-213608601D01*
%TO.N,/Temp_Control*%
X72124900Y-212153591D02*
X69381200Y-212153591D01*
X64400002Y-218499999D02*
X69381200Y-213518801D01*
X69381200Y-213518801D02*
X69381200Y-212153591D01*
%TO.N,Net-(R21-Pad1)*%
X85212500Y-134867500D02*
X84580000Y-135500000D01*
X88040000Y-134867500D02*
X85212500Y-134867500D01*
%TO.N,Net-(R25-Pad2)*%
X78127500Y-140780000D02*
X78127500Y-136872500D01*
X78127500Y-136872500D02*
X79500000Y-135500000D01*
%TO.N,Net-(R29-Pad1)*%
X84212500Y-150367500D02*
X83580000Y-151000000D01*
X87040000Y-150367500D02*
X84212500Y-150367500D01*
%TO.N,Net-(U3-V_{OUT})*%
X100127500Y-142460000D02*
X101000000Y-141587500D01*
X98000000Y-142460000D02*
X100127500Y-142460000D01*
%TO.N,Net-(R37-Pad2)*%
X77255000Y-152245000D02*
X78500000Y-151000000D01*
X77255000Y-156500000D02*
X77255000Y-152245000D01*
%TO.N,Net-(U1A--)*%
X90500000Y-146000000D02*
X89500000Y-146000000D01*
X90674999Y-146174999D02*
X90500000Y-146000000D01*
X81040000Y-150960000D02*
X81040000Y-153540000D01*
X88000000Y-149000000D02*
X83000000Y-149000000D01*
X89500000Y-146000000D02*
X88500000Y-147000000D01*
X88500000Y-148500000D02*
X88000000Y-149000000D01*
X83000000Y-149000000D02*
X81040000Y-150960000D01*
X90674999Y-147313351D02*
X90674999Y-146174999D01*
X88500000Y-147000000D02*
X88500000Y-148500000D01*
%TD*%
M02*
