M48
; DRILL file KiCad 10.0.1 date 2026-04-24T08:56:07
; FORMAT={-:-/ absolute / metric / decimal}
; #@! TF.CreationDate,2026-04-24T08:56:07+02:00
; #@! TF.GenerationSoftware,Kicad,Pcbnew,10.0.1
; #@! TF.FileFunction,Plated,1,4,PTH
FMAT,2
METRIC
; #@! TA.AperFunction,Plated,PTH,ViaDrill
T1C0.300
; #@! TA.AperFunction,Plated,PTH,ComponentDrill
T2C0.800
; #@! TA.AperFunction,Plated,PTH,ComponentDrill
T3C0.890
; #@! TA.AperFunction,Plated,PTH,ComponentDrill
T4C0.991
; #@! TA.AperFunction,Plated,PTH,ComponentDrill
T5C1.000
; #@! TA.AperFunction,Plated,PTH,ComponentDrill
T6C1.100
; #@! TA.AperFunction,Plated,PTH,ComponentDrill
T7C1.400
; #@! TA.AperFunction,Plated,PTH,ComponentDrill
T8C1.778
; #@! TA.AperFunction,Plated,PTH,ComponentDrill
T9C2.000
%
G90
G05
T1
X63.305Y-213.854
X66.605Y-209.854
X80.0Y-157.3
X80.7Y-140.1
X84.9Y-141.8
X86.5Y-157.5
X87.3Y-153.5
X87.9Y-141.3
X88.6Y-137.9
X91.3Y-133.7
X92.9Y-147.8
X93.8Y-135.4
X94.0Y-155.5
X99.9Y-145.9
X103.0Y-211.0
X103.5Y-147.1
X135.1Y-80.2
X136.4Y-80.2
X137.7Y-80.2
X138.2Y-83.5
X141.4Y-80.2
X142.6Y-80.2
X143.9Y-80.2
X145.1Y-83.7
X175.6Y-151.9
X177.8Y-152.4
X181.8Y-147.1
X182.0Y-140.3
X186.4Y-169.4
X186.7Y-150.6
X187.6Y-143.8
X192.5Y-157.2
X193.7Y-160.6
X193.7Y-166.0
X193.7Y-210.8
X194.8Y-153.7
X195.2Y-140.1
X195.4Y-157.2
X204.1Y-214.1
X207.2Y-210.2
T2
X78.5Y-151.0
X79.5Y-135.5
X81.04Y-153.54
X82.04Y-138.04
X83.58Y-151.0
X84.58Y-135.5
X184.686Y-163.514
X185.9Y-137.6
X187.226Y-166.054
X188.44Y-140.14
X189.766Y-163.514
X190.98Y-137.6
T3
X107.42Y-255.422
X109.96Y-255.422
X172.5Y-255.42
X175.04Y-255.42
T4
X64.4Y-218.5
X64.4Y-230.7
X70.4Y-216.6
X76.4Y-218.5
X76.4Y-230.7
X89.4Y-218.5
X89.4Y-230.7
X95.4Y-216.6
X101.4Y-218.5
X101.4Y-230.7
X180.5Y-218.5
X180.5Y-230.7
X186.5Y-216.6
X192.5Y-218.5
X192.5Y-230.7
X205.4Y-218.5
X205.4Y-230.7
X211.4Y-216.6
X217.4Y-218.5
X217.4Y-230.7
T5
X115.94Y-45.5
X118.48Y-45.5
X121.02Y-45.5
X123.56Y-45.5
X126.1Y-45.5
X128.64Y-45.5
X135.168Y-65.5
X140.168Y-65.5
T6
X98.0Y-142.46
X98.0Y-145.0
X98.0Y-147.54
X182.05Y-150.96
X182.05Y-153.5
X182.05Y-156.04
T7
X57.28Y-237.722
X62.36Y-237.722
X67.44Y-237.722
X72.52Y-237.722
X134.965Y-54.277
X140.045Y-54.277
X148.665Y-54.277
X153.745Y-54.277
X207.38Y-237.722
X212.46Y-237.722
X217.54Y-237.722
X222.62Y-237.722
T8
X50.0Y-50.92
X50.0Y-61.08
X50.0Y-109.92
X50.0Y-120.08
X50.0Y-169.92
X50.0Y-180.08
X50.0Y-227.92
X50.0Y-238.08
X115.0Y-50.92
X115.0Y-61.08
X115.0Y-109.92
X115.0Y-120.08
X115.0Y-169.92
X115.0Y-180.08
X115.0Y-227.92
X115.0Y-238.08
X165.0Y-61.92
X165.0Y-72.08
X165.0Y-119.0
X165.0Y-129.16
X165.0Y-177.92
X165.0Y-188.08
X165.0Y-236.92
X165.0Y-247.08
X230.0Y-61.92
X230.0Y-72.08
X230.0Y-118.92
X230.0Y-129.08
X230.0Y-177.92
X230.0Y-188.08
X230.0Y-236.92
X230.0Y-247.08
T9
X102.34Y-260.502
X112.5Y-260.502
X167.42Y-260.5
X177.58Y-260.5
M30
