%TF.GenerationSoftware,KiCad,Pcbnew,10.0.1*%
%TF.CreationDate,2026-05-14T15:32:22+02:00*%
%TF.ProjectId,AudioAnalyZer,41756469-6f41-46e6-916c-795a65722e6b,rev?*%
%TF.SameCoordinates,Original*%
%TF.FileFunction,Copper,L1,Top*%
%TF.FilePolarity,Positive*%
%FSLAX46Y46*%
G04 Gerber Fmt 4.6, Leading zero omitted, Abs format (unit mm)*
G04 Created by KiCad (PCBNEW 10.0.1) date 2026-05-14 15:32:22*
%MOMM*%
%LPD*%
G01*
G04 APERTURE LIST*
G04 Aperture macros list*
%AMRoundRect*
0 Rectangle with rounded corners*
0 $1 Rounding radius*
0 $2 $3 $4 $5 $6 $7 $8 $9 X,Y pos of 4 corners*
0 Add a 4 corners polygon primitive as box body*
4,1,4,$2,$3,$4,$5,$6,$7,$8,$9,$2,$3,0*
0 Add four circle primitives for the rounded corners*
1,1,$1+$1,$2,$3*
1,1,$1+$1,$4,$5*
1,1,$1+$1,$6,$7*
1,1,$1+$1,$8,$9*
0 Add four rect primitives between the rounded corners*
20,1,$1+$1,$2,$3,$4,$5,0*
20,1,$1+$1,$4,$5,$6,$7,0*
20,1,$1+$1,$6,$7,$8,$9,0*
20,1,$1+$1,$8,$9,$2,$3,0*%
G04 Aperture macros list end*
%TA.AperFunction,SMDPad,CuDef*%
%ADD10R,1.553299X0.279400*%
%TD*%
%TA.AperFunction,SMDPad,CuDef*%
%ADD11R,0.279400X1.553299*%
%TD*%
%TA.AperFunction,SMDPad,CuDef*%
%ADD12R,1.650000X1.297000*%
%TD*%
%TA.AperFunction,SMDPad,CuDef*%
%ADD13R,3.150400X2.327400*%
%TD*%
%TA.AperFunction,SMDPad,CuDef*%
%ADD14C,1.500000*%
%TD*%
%TA.AperFunction,ComponentPad*%
%ADD15C,0.800000*%
%TD*%
%TA.AperFunction,ComponentPad*%
%ADD16C,6.400000*%
%TD*%
%TA.AperFunction,SMDPad,CuDef*%
%ADD17R,2.000000X0.700000*%
%TD*%
%TA.AperFunction,SMDPad,CuDef*%
%ADD18R,0.700000X2.000000*%
%TD*%
%TA.AperFunction,SMDPad,CuDef*%
%ADD19RoundRect,0.237500X0.237500X-0.300000X0.237500X0.300000X-0.237500X0.300000X-0.237500X-0.300000X0*%
%TD*%
%TA.AperFunction,SMDPad,CuDef*%
%ADD20RoundRect,0.237500X0.237500X-0.250000X0.237500X0.250000X-0.237500X0.250000X-0.237500X-0.250000X0*%
%TD*%
%TA.AperFunction,SMDPad,CuDef*%
%ADD21RoundRect,0.237500X-0.237500X0.300000X-0.237500X-0.300000X0.237500X-0.300000X0.237500X0.300000X0*%
%TD*%
%TA.AperFunction,SMDPad,CuDef*%
%ADD22RoundRect,0.237500X-0.237500X0.250000X-0.237500X-0.250000X0.237500X-0.250000X0.237500X0.250000X0*%
%TD*%
%TA.AperFunction,SMDPad,CuDef*%
%ADD23RoundRect,0.237500X-0.250000X-0.237500X0.250000X-0.237500X0.250000X0.237500X-0.250000X0.237500X0*%
%TD*%
%TA.AperFunction,SMDPad,CuDef*%
%ADD24RoundRect,0.237500X0.287500X0.237500X-0.287500X0.237500X-0.287500X-0.237500X0.287500X-0.237500X0*%
%TD*%
%TA.AperFunction,SMDPad,CuDef*%
%ADD25RoundRect,0.237500X-0.300000X-0.237500X0.300000X-0.237500X0.300000X0.237500X-0.300000X0.237500X0*%
%TD*%
%TA.AperFunction,SMDPad,CuDef*%
%ADD26RoundRect,0.237500X0.300000X0.237500X-0.300000X0.237500X-0.300000X-0.237500X0.300000X-0.237500X0*%
%TD*%
%TA.AperFunction,SMDPad,CuDef*%
%ADD27R,1.997800X2.742400*%
%TD*%
%TA.AperFunction,ComponentPad*%
%ADD28C,1.600000*%
%TD*%
%TA.AperFunction,SMDPad,CuDef*%
%ADD29RoundRect,0.250000X0.850000X0.350000X-0.850000X0.350000X-0.850000X-0.350000X0.850000X-0.350000X0*%
%TD*%
%TA.AperFunction,SMDPad,CuDef*%
%ADD30RoundRect,0.249997X2.950003X2.650003X-2.950003X2.650003X-2.950003X-2.650003X2.950003X-2.650003X0*%
%TD*%
%TA.AperFunction,SMDPad,CuDef*%
%ADD31R,2.000000X3.500000*%
%TD*%
%TA.AperFunction,SMDPad,CuDef*%
%ADD32RoundRect,0.237500X-0.237500X0.287500X-0.237500X-0.287500X0.237500X-0.287500X0.237500X0.287500X0*%
%TD*%
%TA.AperFunction,SMDPad,CuDef*%
%ADD33RoundRect,0.250000X-1.950000X-1.000000X1.950000X-1.000000X1.950000X1.000000X-1.950000X1.000000X0*%
%TD*%
%TA.AperFunction,SMDPad,CuDef*%
%ADD34RoundRect,0.100000X-0.637500X-0.100000X0.637500X-0.100000X0.637500X0.100000X-0.637500X0.100000X0*%
%TD*%
%TA.AperFunction,SMDPad,CuDef*%
%ADD35RoundRect,0.250000X1.500000X0.550000X-1.500000X0.550000X-1.500000X-0.550000X1.500000X-0.550000X0*%
%TD*%
%TA.AperFunction,SMDPad,CuDef*%
%ADD36R,3.090000X2.180000*%
%TD*%
%TA.AperFunction,SMDPad,CuDef*%
%ADD37RoundRect,0.250000X1.100000X-0.412500X1.100000X0.412500X-1.100000X0.412500X-1.100000X-0.412500X0*%
%TD*%
%TA.AperFunction,SMDPad,CuDef*%
%ADD38RoundRect,0.250000X-0.475000X0.250000X-0.475000X-0.250000X0.475000X-0.250000X0.475000X0.250000X0*%
%TD*%
%TA.AperFunction,SMDPad,CuDef*%
%ADD39RoundRect,0.250000X2.000000X-1.400000X2.000000X1.400000X-2.000000X1.400000X-2.000000X-1.400000X0*%
%TD*%
%TA.AperFunction,ComponentPad*%
%ADD40R,1.398000X1.398000*%
%TD*%
%TA.AperFunction,ComponentPad*%
%ADD41C,1.398000*%
%TD*%
%TA.AperFunction,ComponentPad*%
%ADD42C,3.000000*%
%TD*%
%TA.AperFunction,SMDPad,CuDef*%
%ADD43RoundRect,0.237500X0.237500X-0.287500X0.237500X0.287500X-0.237500X0.287500X-0.237500X-0.287500X0*%
%TD*%
%TA.AperFunction,SMDPad,CuDef*%
%ADD44RoundRect,0.237500X0.250000X0.237500X-0.250000X0.237500X-0.250000X-0.237500X0.250000X-0.237500X0*%
%TD*%
%TA.AperFunction,SMDPad,CuDef*%
%ADD45R,1.470000X1.140000*%
%TD*%
%TA.AperFunction,ComponentPad*%
%ADD46R,1.700000X1.700000*%
%TD*%
%TA.AperFunction,ComponentPad*%
%ADD47C,1.700000*%
%TD*%
%TA.AperFunction,SMDPad,CuDef*%
%ADD48RoundRect,0.250000X0.550000X-1.500000X0.550000X1.500000X-0.550000X1.500000X-0.550000X-1.500000X0*%
%TD*%
%TA.AperFunction,SMDPad,CuDef*%
%ADD49RoundRect,0.250000X-1.000000X-0.650000X1.000000X-0.650000X1.000000X0.650000X-1.000000X0.650000X0*%
%TD*%
%TA.AperFunction,SMDPad,CuDef*%
%ADD50RoundRect,0.075000X0.910000X0.225000X-0.910000X0.225000X-0.910000X-0.225000X0.910000X-0.225000X0*%
%TD*%
%TA.AperFunction,SMDPad,CuDef*%
%ADD51RoundRect,0.250000X-0.250000X-0.475000X0.250000X-0.475000X0.250000X0.475000X-0.250000X0.475000X0*%
%TD*%
%TA.AperFunction,SMDPad,CuDef*%
%ADD52RoundRect,0.075000X-0.910000X-0.225000X0.910000X-0.225000X0.910000X0.225000X-0.910000X0.225000X0*%
%TD*%
%TA.AperFunction,SMDPad,CuDef*%
%ADD53RoundRect,0.237500X-0.287500X-0.237500X0.287500X-0.237500X0.287500X0.237500X-0.287500X0.237500X0*%
%TD*%
%TA.AperFunction,SMDPad,CuDef*%
%ADD54RoundRect,0.250000X-1.000000X1.950000X-1.000000X-1.950000X1.000000X-1.950000X1.000000X1.950000X0*%
%TD*%
%TA.AperFunction,SMDPad,CuDef*%
%ADD55RoundRect,0.250000X-1.100000X0.325000X-1.100000X-0.325000X1.100000X-0.325000X1.100000X0.325000X0*%
%TD*%
%TA.AperFunction,SMDPad,CuDef*%
%ADD56R,0.950000X2.150000*%
%TD*%
%TA.AperFunction,SMDPad,CuDef*%
%ADD57R,3.250000X2.150000*%
%TD*%
%TA.AperFunction,SMDPad,CuDef*%
%ADD58RoundRect,0.250000X1.100000X-0.325000X1.100000X0.325000X-1.100000X0.325000X-1.100000X-0.325000X0*%
%TD*%
%TA.AperFunction,SMDPad,CuDef*%
%ADD59RoundRect,0.250000X0.325000X0.650000X-0.325000X0.650000X-0.325000X-0.650000X0.325000X-0.650000X0*%
%TD*%
%TA.AperFunction,SMDPad,CuDef*%
%ADD60R,1.656099X0.558000*%
%TD*%
%TA.AperFunction,SMDPad,CuDef*%
%ADD61R,2.387600X3.098800*%
%TD*%
%TA.AperFunction,SMDPad,CuDef*%
%ADD62R,2.327400X3.150400*%
%TD*%
%TA.AperFunction,SMDPad,CuDef*%
%ADD63RoundRect,0.250000X-0.325000X-0.650000X0.325000X-0.650000X0.325000X0.650000X-0.325000X0.650000X0*%
%TD*%
%TA.AperFunction,SMDPad,CuDef*%
%ADD64RoundRect,0.250000X0.325000X1.100000X-0.325000X1.100000X-0.325000X-1.100000X0.325000X-1.100000X0*%
%TD*%
%TA.AperFunction,SMDPad,CuDef*%
%ADD65RoundRect,0.250000X-0.445000X0.457500X-0.445000X-0.457500X0.445000X-0.457500X0.445000X0.457500X0*%
%TD*%
%TA.AperFunction,SMDPad,CuDef*%
%ADD66RoundRect,0.250000X0.450000X-0.350000X0.450000X0.350000X-0.450000X0.350000X-0.450000X-0.350000X0*%
%TD*%
%TA.AperFunction,SMDPad,CuDef*%
%ADD67RoundRect,0.250000X-0.650000X0.325000X-0.650000X-0.325000X0.650000X-0.325000X0.650000X0.325000X0*%
%TD*%
%TA.AperFunction,SMDPad,CuDef*%
%ADD68RoundRect,0.075000X0.225000X-0.910000X0.225000X0.910000X-0.225000X0.910000X-0.225000X-0.910000X0*%
%TD*%
%TA.AperFunction,SMDPad,CuDef*%
%ADD69RoundRect,0.250000X0.650000X-0.325000X0.650000X0.325000X-0.650000X0.325000X-0.650000X-0.325000X0*%
%TD*%
%TA.AperFunction,ComponentPad*%
%ADD70R,4.000000X2.000000*%
%TD*%
%TA.AperFunction,ComponentPad*%
%ADD71O,3.300000X2.000000*%
%TD*%
%TA.AperFunction,ComponentPad*%
%ADD72O,2.000000X3.500000*%
%TD*%
%TA.AperFunction,ComponentPad*%
%ADD73RoundRect,0.249999X0.790001X1.550001X-0.790001X1.550001X-0.790001X-1.550001X0.790001X-1.550001X0*%
%TD*%
%TA.AperFunction,ComponentPad*%
%ADD74O,2.080000X3.600000*%
%TD*%
%TA.AperFunction,SMDPad,CuDef*%
%ADD75RoundRect,0.225000X-0.225000X-0.250000X0.225000X-0.250000X0.225000X0.250000X-0.225000X0.250000X0*%
%TD*%
%TA.AperFunction,SMDPad,CuDef*%
%ADD76RoundRect,0.170000X-0.295000X-0.170000X0.295000X-0.170000X0.295000X0.170000X-0.295000X0.170000X0*%
%TD*%
%TA.AperFunction,SMDPad,CuDef*%
%ADD77RoundRect,0.120000X-0.345000X-0.120000X0.345000X-0.120000X0.345000X0.120000X-0.345000X0.120000X0*%
%TD*%
%TA.AperFunction,SMDPad,CuDef*%
%ADD78RoundRect,0.250000X1.000000X0.650000X-1.000000X0.650000X-1.000000X-0.650000X1.000000X-0.650000X0*%
%TD*%
%TA.AperFunction,SMDPad,CuDef*%
%ADD79RoundRect,0.250000X0.250000X0.475000X-0.250000X0.475000X-0.250000X-0.475000X0.250000X-0.475000X0*%
%TD*%
%TA.AperFunction,ComponentPad*%
%ADD80C,2.540000*%
%TD*%
%TA.AperFunction,SMDPad,CuDef*%
%ADD81RoundRect,0.250000X-0.625000X0.400000X-0.625000X-0.400000X0.625000X-0.400000X0.625000X0.400000X0*%
%TD*%
%TA.AperFunction,ComponentPad*%
%ADD82C,1.308000*%
%TD*%
%TA.AperFunction,ComponentPad*%
%ADD83C,1.208000*%
%TD*%
%TA.AperFunction,ComponentPad*%
%ADD84C,1.258000*%
%TD*%
%TA.AperFunction,SMDPad,CuDef*%
%ADD85RoundRect,0.250000X0.625000X-0.400000X0.625000X0.400000X-0.625000X0.400000X-0.625000X-0.400000X0*%
%TD*%
%TA.AperFunction,SMDPad,CuDef*%
%ADD86RoundRect,0.250000X-0.457500X-0.445000X0.457500X-0.445000X0.457500X0.445000X-0.457500X0.445000X0*%
%TD*%
%TA.AperFunction,SMDPad,CuDef*%
%ADD87R,1.140000X1.470000*%
%TD*%
%TA.AperFunction,ViaPad*%
%ADD88C,0.600000*%
%TD*%
%TA.AperFunction,Conductor*%
%ADD89C,0.250000*%
%TD*%
%TA.AperFunction,Conductor*%
%ADD90C,0.500000*%
%TD*%
%TA.AperFunction,Conductor*%
%ADD91C,1.000000*%
%TD*%
%TA.AperFunction,Conductor*%
%ADD92C,0.750000*%
%TD*%
%TA.AperFunction,Conductor*%
%ADD93C,2.000000*%
%TD*%
G04 APERTURE END LIST*
D10*
%TO.P,U1,48,VCOMR_48*%
%TO.N,VCOMR*%
X215229249Y-168950000D03*
%TO.P,U1,47,REFGNDR_47*%
%TO.N,GND*%
X215229249Y-168450001D03*
%TO.P,U1,46,VREFR_46*%
%TO.N,ADC_VREFR*%
X215229249Y-167949999D03*
%TO.P,U1,45,DGND_45*%
%TO.N,GND*%
X215229249Y-167450000D03*
%TO.P,U1,44,FMT0_44*%
%TO.N,FMT0*%
X215229249Y-166950001D03*
%TO.P,U1,43,FMT1_43*%
%TO.N,FMT1*%
X215229249Y-166450000D03*
%TO.P,U1,42,OWL0_42*%
%TO.N,OWL0*%
X215229249Y-165950000D03*
%TO.P,U1,41,OWL1_41*%
%TO.N,OWL1*%
X215229249Y-165449999D03*
%TO.P,U1,40,DGND_40*%
%TO.N,GND*%
X215229249Y-164950000D03*
%TO.P,U1,39,S/\u002AM_39*%
%TO.N,S{slash}\u002AM*%
X215229249Y-164450001D03*
%TO.P,U1,38,OVFR_38*%
%TO.N,OVFR*%
X215229249Y-163949999D03*
%TO.P,U1,37,OVFL_37*%
%TO.N,OVFL*%
X215229249Y-163450000D03*
D11*
%TO.P,U1,36,\u002ARST_36*%
%TO.N,\u002ARST*%
X216850000Y-161829249D03*
%TO.P,U1,35,MCKI_35*%
%TO.N,ADC_SCKI{slash}MCKI*%
X217349999Y-161829249D03*
%TO.P,U1,34,LRCK_34*%
%TO.N,ADC_LRCK*%
X217850001Y-161829249D03*
%TO.P,U1,33,BCK_33*%
%TO.N,ADC_BCK*%
X218350000Y-161829249D03*
%TO.P,U1,32,DATA_32*%
%TO.N,ADC_DATA*%
X218849999Y-161829249D03*
%TO.P,U1,31,VDD_31*%
%TO.N,+3.3V*%
X219350000Y-161829249D03*
%TO.P,U1,30,DGND_30*%
%TO.N,GND*%
X219850000Y-161829249D03*
%TO.P,U1,29,DSDR_29*%
%TO.N,unconnected-(U1A-DSDR-Pad29)*%
X220350001Y-161829249D03*
%TO.P,U1,28,DSDL_28*%
%TO.N,unconnected-(U1A-DSDL-Pad28)*%
X220850000Y-161829249D03*
%TO.P,U1,27,DSDCLK_27*%
%TO.N,DSDCLK*%
X221349999Y-161829249D03*
%TO.P,U1,26,SUB0/WCKO_26*%
%TO.N,SUB0*%
X221850001Y-161829249D03*
%TO.P,U1,25,SUB1/MCKO_25*%
%TO.N,SUB1*%
X222350000Y-161829249D03*
D10*
%TO.P,U1,24,DSDMODE_24*%
%TO.N,DSDMODE*%
X223970751Y-163450000D03*
%TO.P,U1,23,MODEN_23*%
%TO.N,MODEN*%
X223970751Y-163949999D03*
%TO.P,U1,22,DSDEN/MOD6_22*%
%TO.N,DSDEN*%
X223970751Y-164450001D03*
%TO.P,U1,21,DF/MOD5_21*%
%TO.N,DF*%
X223970751Y-164950000D03*
%TO.P,U1,20,FS1/MOD4_20*%
%TO.N,FS1*%
X223970751Y-165449999D03*
%TO.P,U1,19,FS0_/MOD3_19*%
%TO.N,FS0*%
X223970751Y-165950000D03*
%TO.P,U1,18,HPFDL/MOD2_18*%
%TO.N,HPFDL*%
X223970751Y-166450000D03*
%TO.P,U1,17,HPFDR_/MOD1_17*%
X223970751Y-166950001D03*
%TO.P,U1,16,PCMEN_16*%
%TO.N,PCMEN*%
X223970751Y-167450000D03*
%TO.P,U1,15,VREFL_15*%
%TO.N,ADC_VREFL*%
X223970751Y-167949999D03*
%TO.P,U1,14,REFGNDL_14*%
%TO.N,GND*%
X223970751Y-168450001D03*
%TO.P,U1,13,VCOML_13*%
%TO.N,VCOML*%
X223970751Y-168950000D03*
D11*
%TO.P,U1,12,AGND_12*%
%TO.N,GND*%
X222350000Y-170570751D03*
%TO.P,U1,11,VINL+_11*%
%TO.N,+VIN_L*%
X221850001Y-170570751D03*
%TO.P,U1,10,VINL-_10*%
%TO.N,-VIN_L*%
X221349999Y-170570751D03*
%TO.P,U1,9,VCC2_9*%
%TO.N,+4V_A*%
X220850000Y-170570751D03*
%TO.P,U1,8,AGND_8*%
%TO.N,GND*%
X220350001Y-170570751D03*
%TO.P,U1,7,AGND_7*%
X219850000Y-170570751D03*
%TO.P,U1,6,AGND_6*%
X219350000Y-170570751D03*
%TO.P,U1,5,AGND_5*%
X218849999Y-170570751D03*
%TO.P,U1,4,VCC1_4*%
%TO.N,+4V_A*%
X218350000Y-170570751D03*
%TO.P,U1,3,VINR+_3*%
%TO.N,+VIN_R*%
X217850001Y-170570751D03*
%TO.P,U1,2,VINR-_2*%
%TO.N,-VIN_R*%
X217349999Y-170570751D03*
%TO.P,U1,1,AGND_1*%
%TO.N,GND*%
X216850000Y-170570751D03*
%TD*%
D12*
%TO.P,OSC1,4,VCC_4*%
%TO.N,+3.3V*%
X176087799Y-159620000D03*
%TO.P,OSC1,3,OUTPUT_3*%
%TO.N,Net-(OSC1-OUTPUT)*%
X176087799Y-164700000D03*
%TO.P,OSC1,2,GND_2*%
%TO.N,GND*%
X171681601Y-164700000D03*
%TO.P,OSC1,1,OUTPUTENABLE/DISABLE_1*%
%TO.N,Net-(OSC1-OUTPUTENABLE{slash}DISABLE)*%
X171681601Y-159620000D03*
%TD*%
D13*
%TO.P,L2,1,1_1*%
%TO.N,Net-(U13-+Vout)*%
X200300000Y-123509999D03*
%TO.P,L2,2,2_2*%
%TO.N,+15V*%
X200300000Y-117290001D03*
%TD*%
%TO.P,L3,1,1_1*%
%TO.N,Net-(U13--Vout)*%
X200300000Y-131300000D03*
%TO.P,L3,2,2_2*%
%TO.N,-15V*%
X200300000Y-137519998D03*
%TD*%
D14*
%TO.P,TP31,1,1_1*%
%TO.N,CAL_NSource_R*%
X161000000Y-216000000D03*
%TD*%
D15*
%TO.P,M3,1*%
%TO.N,N/C*%
X71955921Y-83700000D03*
X72658865Y-82002944D03*
X72658865Y-85397056D03*
X74355921Y-81300000D03*
D16*
X74355921Y-83700000D03*
D15*
X74355921Y-86100000D03*
X76052977Y-82002944D03*
X76052977Y-85397056D03*
X76755921Y-83700000D03*
%TD*%
%TO.P,M3,1*%
%TO.N,N/C*%
X71955921Y-224823593D03*
X72658865Y-223126537D03*
X72658865Y-226520649D03*
X74355921Y-222423593D03*
D16*
X74355921Y-224823593D03*
D15*
X74355921Y-227223593D03*
X76052977Y-223126537D03*
X76052977Y-226520649D03*
X76755921Y-224823593D03*
%TD*%
%TO.P,M3,1*%
%TO.N,N/C*%
X260844079Y-224823593D03*
X261547023Y-223126537D03*
X261547023Y-226520649D03*
X263244079Y-222423593D03*
D16*
X263244079Y-224823593D03*
D15*
X263244079Y-227223593D03*
X264941135Y-223126537D03*
X264941135Y-226520649D03*
X265644079Y-224823593D03*
%TD*%
%TO.P,M3,1*%
%TO.N,N/C*%
X260800000Y-83700000D03*
X261502944Y-82002944D03*
X261502944Y-85397056D03*
X263200000Y-81300000D03*
D16*
X263200000Y-83700000D03*
D15*
X263200000Y-86100000D03*
X264897056Y-82002944D03*
X264897056Y-85397056D03*
X265600000Y-83700000D03*
%TD*%
D17*
%TO.P,K10,8*%
%TO.N,Net-(Q8-D)*%
X168500000Y-203200000D03*
%TO.P,K10,7*%
%TO.N,GND*%
X168500000Y-206400000D03*
%TO.P,K10,6*%
%TO.N,CAL_NSource_L*%
X168500000Y-208600000D03*
%TO.P,K10,5*%
%TO.N,GND*%
X168500000Y-210800000D03*
%TO.P,K10,4*%
%TO.N,OUTL*%
X162500000Y-210800000D03*
%TO.P,K10,3*%
%TO.N,CAL_PSource_L*%
X162500000Y-208600000D03*
%TO.P,K10,2*%
%TO.N,DC_REF_2V5*%
X162500000Y-206400000D03*
%TO.P,K10,1*%
%TO.N,+12V*%
X162500000Y-203200000D03*
%TD*%
D18*
%TO.P,K5,1*%
%TO.N,Net-(Q2-D)*%
X180900000Y-208997500D03*
%TO.P,K5,2*%
%TO.N,Net-(K5-Pad2)*%
X184100000Y-208997500D03*
%TO.P,K5,3*%
%TO.N,INPUT_N_R*%
X186300000Y-208997500D03*
%TO.P,K5,4*%
%TO.N,Net-(K5-Pad4)*%
X188500000Y-208997500D03*
%TO.P,K5,5*%
%TO.N,Net-(K5-Pad5)*%
X188500000Y-202997500D03*
%TO.P,K5,6*%
%TO.N,INPUT_P_R*%
X186300000Y-202997500D03*
%TO.P,K5,7*%
%TO.N,Net-(K5-Pad7)*%
X184100000Y-202997500D03*
%TO.P,K5,8*%
%TO.N,+12V*%
X180900000Y-202997500D03*
%TD*%
D14*
%TO.P,TP12,1,1_1*%
%TO.N,Net-(C34-Pad2)*%
X192000000Y-181200000D03*
%TD*%
D19*
%TO.P,C35,1*%
%TO.N,Net-(U4-VIN-)*%
X210200000Y-191162500D03*
%TO.P,C35,2*%
%TO.N,Net-(U4-VOUT+)*%
X210200000Y-189437500D03*
%TD*%
D20*
%TO.P,R46,1*%
%TO.N,Net-(C51-Pad2)*%
X242100000Y-181112500D03*
%TO.P,R46,2*%
%TO.N,+VIN_L*%
X242100000Y-179287500D03*
%TD*%
D14*
%TO.P,TP34,1,1_1*%
%TO.N,Net-(Q7-G)*%
X162600000Y-195200000D03*
%TD*%
D21*
%TO.P,C81,1*%
%TO.N,GND*%
X244725000Y-163285000D03*
%TO.P,C81,2*%
%TO.N,+4V_A*%
X244725000Y-165010000D03*
%TD*%
D20*
%TO.P,R37,1*%
%TO.N,Net-(K8-Pad7)*%
X233200000Y-204112500D03*
%TO.P,R37,2*%
%TO.N,Net-(K8-Pad5)*%
X233200000Y-202287500D03*
%TD*%
D22*
%TO.P,R65,1*%
%TO.N,Net-(U2-OUTL)*%
X124400000Y-212187500D03*
%TO.P,R65,2*%
%TO.N,OUTL*%
X124400000Y-214012500D03*
%TD*%
D20*
%TO.P,R22,1*%
%TO.N,Net-(K6-Pad7)*%
X193100000Y-204312500D03*
%TO.P,R22,2*%
%TO.N,Net-(K6-Pad5)*%
X193100000Y-202487500D03*
%TD*%
%TO.P,R20,1*%
%TO.N,Net-(K6-Pad2)*%
X205900000Y-204312500D03*
%TO.P,R20,2*%
%TO.N,Net-(K6-Pad4)*%
X205900000Y-202487500D03*
%TD*%
D19*
%TO.P,C33,1*%
%TO.N,Net-(U4-VIN+)*%
X188600000Y-191162500D03*
%TO.P,C33,2*%
%TO.N,Net-(U4-VOUT-)*%
X188600000Y-189437500D03*
%TD*%
D14*
%TO.P,TP30,1,1_1*%
%TO.N,CAL_PSource_R*%
X161000000Y-220000000D03*
%TD*%
D23*
%TO.P,R13,1*%
%TO.N,+12V*%
X154575000Y-100700000D03*
%TO.P,R13,2*%
%TO.N,Net-(U8-FB)*%
X156400000Y-100700000D03*
%TD*%
D14*
%TO.P,TP27,1,1_1*%
%TO.N,GND*%
X168184700Y-165760000D03*
%TD*%
D20*
%TO.P,R38,1*%
%TO.N,Net-(K8-Pad4)*%
X242970000Y-198212500D03*
%TO.P,R38,2*%
%TO.N,Net-(U7-VIN-)*%
X242970000Y-196387500D03*
%TD*%
%TO.P,R15,1*%
%TO.N,Net-(U4-VOUT+)*%
X202000000Y-184812500D03*
%TO.P,R15,2*%
%TO.N,Net-(C36-Pad2)*%
X202000000Y-182987500D03*
%TD*%
D24*
%TO.P,D9,1,K_1*%
%TO.N,Net-(D9-K)*%
X254475000Y-168900000D03*
%TO.P,D9,2,A_2*%
%TO.N,+4V_A*%
X252725000Y-168900000D03*
%TD*%
D25*
%TO.P,C88,1*%
%TO.N,GND*%
X177237500Y-184962500D03*
%TO.P,C88,2*%
%TO.N,Net-(U12-VOUT)*%
X178962500Y-184962500D03*
%TD*%
D19*
%TO.P,C38,1*%
%TO.N,+15V*%
X211700000Y-195600000D03*
%TO.P,C38,2*%
%TO.N,GND*%
X211700000Y-193875000D03*
%TD*%
D26*
%TO.P,C41,1*%
%TO.N,VCOMR*%
X214462500Y-170600000D03*
%TO.P,C41,2*%
%TO.N,GND*%
X212737500Y-170600000D03*
%TD*%
%TO.P,C30,1*%
%TO.N,Net-(U11-BOOT)*%
X167187500Y-137300000D03*
%TO.P,C30,2*%
%TO.N,Net-(D5-K)*%
X165462500Y-137300000D03*
%TD*%
D27*
%TO.P,F2,1*%
%TO.N,Net-(F2-Pad1)*%
X204900899Y-96500000D03*
%TO.P,F2,2*%
%TO.N,+48V*%
X210099101Y-96500000D03*
%TD*%
D28*
%TO.P,S1,1,1_1*%
%TO.N,Net-(C65-Pad2)*%
X198100000Y-163850000D03*
%TO.P,S1,2,2_2*%
%TO.N,GND*%
X198100000Y-157350000D03*
%TO.P,S1,3,3_3*%
%TO.N,\u002ARST*%
X202600000Y-163850000D03*
%TO.P,S1,4,4_4*%
%TO.N,Net-(R63-Pad2)*%
X202600000Y-157350000D03*
%TD*%
D23*
%TO.P,R35,1*%
%TO.N,Net-(K7-Pad7)*%
X225587500Y-199500000D03*
%TO.P,R35,2*%
%TO.N,Net-(K7-Pad5)*%
X227412500Y-199500000D03*
%TD*%
%TO.P,R75,1*%
%TO.N,Net-(D2-A)*%
X257812500Y-162047500D03*
%TO.P,R75,2*%
%TO.N,Net-(R75-Pad2)*%
X259637500Y-162047500D03*
%TD*%
D14*
%TO.P,TP19,1,1_1*%
%TO.N,TEENSY_ADC_DATA*%
X129400000Y-108200000D03*
%TD*%
%TO.P,TP1,1,1_1*%
%TO.N,+12V*%
X156587500Y-111400000D03*
%TD*%
D19*
%TO.P,C36,1*%
%TO.N,Net-(U4-VIN-)*%
X214600000Y-187075000D03*
%TO.P,C36,2*%
%TO.N,Net-(C36-Pad2)*%
X214600000Y-185350000D03*
%TD*%
D29*
%TO.P,U10,1,ADJ_1*%
%TO.N,Net-(D2-A)*%
X255225000Y-158055000D03*
D30*
%TO.P,U10,2,VO_2*%
%TO.N,+4V_A*%
X248925000Y-155775000D03*
D29*
%TO.P,U10,3,VI_3*%
%TO.N,+15V*%
X255225000Y-153495000D03*
%TD*%
D25*
%TO.P,C61,1*%
%TO.N,OUTL*%
X127237500Y-214000000D03*
%TO.P,C61,2*%
%TO.N,GND*%
X128962500Y-214000000D03*
%TD*%
D26*
%TO.P,C69,1*%
%TO.N,+3.3V_DAC_A*%
X115862500Y-210000000D03*
%TO.P,C69,2*%
%TO.N,GND*%
X114137500Y-210000000D03*
%TD*%
D31*
%TO.P,L7,1,1_1*%
%TO.N,Net-(D5-K)*%
X157325000Y-140800000D03*
%TO.P,L7,2,2_2*%
%TO.N,+5V*%
X148325000Y-140800000D03*
%TD*%
D19*
%TO.P,C51,1*%
%TO.N,Net-(U7-VIN-)*%
X254600000Y-187025000D03*
%TO.P,C51,2*%
%TO.N,Net-(C51-Pad2)*%
X254600000Y-185300000D03*
%TD*%
D21*
%TO.P,C77,1*%
%TO.N,GND*%
X247625000Y-163285000D03*
%TO.P,C77,2*%
%TO.N,+4V_A*%
X247625000Y-165010000D03*
%TD*%
D14*
%TO.P,TP13,1,1_1*%
%TO.N,VOCMR*%
X209700000Y-206600000D03*
%TD*%
D18*
%TO.P,K7,1*%
%TO.N,Net-(Q5-D)*%
X221000000Y-208800000D03*
%TO.P,K7,2*%
%TO.N,Net-(K7-Pad2)*%
X224200000Y-208800000D03*
%TO.P,K7,3*%
%TO.N,INPUT_N_L*%
X226400000Y-208800000D03*
%TO.P,K7,4*%
%TO.N,Net-(K7-Pad4)*%
X228600000Y-208800000D03*
%TO.P,K7,5*%
%TO.N,Net-(K7-Pad5)*%
X228600000Y-202800000D03*
%TO.P,K7,6*%
%TO.N,INPUT_P_L*%
X226400000Y-202800000D03*
%TO.P,K7,7*%
%TO.N,Net-(K7-Pad7)*%
X224200000Y-202800000D03*
%TO.P,K7,8*%
%TO.N,+12V*%
X221000000Y-202800000D03*
%TD*%
D26*
%TO.P,C58,1*%
%TO.N,-15V*%
X234832500Y-190700000D03*
%TO.P,C58,2*%
%TO.N,GND*%
X233107500Y-190700000D03*
%TD*%
D23*
%TO.P,R21,1*%
%TO.N,+48V*%
X235500000Y-94000000D03*
%TO.P,R21,2*%
%TO.N,Net-(U13-+Vin)*%
X237325000Y-94000000D03*
%TD*%
D20*
%TO.P,R36,1*%
%TO.N,Net-(K8-Pad2)*%
X245800000Y-204112500D03*
%TO.P,R36,2*%
%TO.N,Net-(K8-Pad4)*%
X245800000Y-202287500D03*
%TD*%
D32*
%TO.P,D10,1,K_1*%
%TO.N,Net-(D10-K)*%
X149500000Y-156702500D03*
%TO.P,D10,2,A_2*%
%TO.N,+3.3V*%
X149500000Y-158452500D03*
%TD*%
D17*
%TO.P,K3,1*%
%TO.N,+12V*%
X186700000Y-224500000D03*
%TO.P,K3,2*%
%TO.N,unconnected-(K3-Pad2)*%
X186700000Y-221300000D03*
%TO.P,K3,3*%
%TO.N,INPUT_N_R*%
X186700000Y-219100000D03*
%TO.P,K3,4*%
%TO.N,CAL_NSource_R*%
X186700000Y-216900000D03*
%TO.P,K3,5*%
%TO.N,CAL_PSource_R*%
X180700000Y-216900000D03*
%TO.P,K3,6*%
%TO.N,INPUT_P_R*%
X180700000Y-219100000D03*
%TO.P,K3,7*%
%TO.N,unconnected-(K3-Pad7)*%
X180700000Y-221300000D03*
%TO.P,K3,8*%
%TO.N,Net-(Q1-D)*%
X180700000Y-224500000D03*
%TD*%
D20*
%TO.P,R23,1*%
%TO.N,Net-(K6-Pad4)*%
X202900000Y-198300000D03*
%TO.P,R23,2*%
%TO.N,Net-(U4-VIN-)*%
X202900000Y-196475000D03*
%TD*%
D14*
%TO.P,TP5,1,1_1*%
%TO.N,+3.3V*%
X146300000Y-167577500D03*
%TD*%
D26*
%TO.P,C45,1*%
%TO.N,-15V*%
X254300000Y-205000000D03*
%TO.P,C45,2*%
%TO.N,GND*%
X252575000Y-205000000D03*
%TD*%
D17*
%TO.P,K8,1*%
%TO.N,Net-(Q6-D)*%
X242470000Y-208600000D03*
%TO.P,K8,2*%
%TO.N,Net-(K8-Pad2)*%
X242470000Y-205400000D03*
%TO.P,K8,3*%
%TO.N,Net-(K7-Pad4)*%
X242470000Y-203200000D03*
%TO.P,K8,4*%
%TO.N,Net-(K8-Pad4)*%
X242470000Y-201000000D03*
%TO.P,K8,5*%
%TO.N,Net-(K8-Pad5)*%
X236470000Y-201000000D03*
%TO.P,K8,6*%
%TO.N,Net-(K7-Pad5)*%
X236470000Y-203200000D03*
%TO.P,K8,7*%
%TO.N,Net-(K8-Pad7)*%
X236470000Y-205400000D03*
%TO.P,K8,8*%
%TO.N,+12V*%
X236470000Y-208600000D03*
%TD*%
D14*
%TO.P,TP38,1,1_1*%
%TO.N,OUTR*%
X112300000Y-218700000D03*
%TD*%
D20*
%TO.P,R86,1*%
%TO.N,Net-(D8-K)*%
X146787500Y-117100000D03*
%TO.P,R86,2*%
%TO.N,GND*%
X146787500Y-115275000D03*
%TD*%
D33*
%TO.P,C11,1*%
%TO.N,Net-(U13-+Vin)*%
X244800000Y-87000000D03*
%TO.P,C11,2*%
%TO.N,Net-(C11-Pad2)*%
X252200000Y-87000000D03*
%TD*%
D34*
%TO.P,U2,1,CPVDD_1*%
%TO.N,+3.3V_DAC_A*%
X118337500Y-203775000D03*
%TO.P,U2,2,CAPP_2*%
%TO.N,Net-(U2-CAPP)*%
X118337500Y-204425000D03*
%TO.P,U2,3,CPGND_3*%
%TO.N,GND*%
X118337500Y-205075000D03*
%TO.P,U2,4,CAPM_4*%
%TO.N,Net-(U2-CAPM)*%
X118337500Y-205725000D03*
%TO.P,U2,5,VNEG_5*%
%TO.N,Net-(U2-VNEG)*%
X118337500Y-206375000D03*
%TO.P,U2,6,OUTL_6*%
%TO.N,Net-(U2-OUTL)*%
X118337500Y-207025000D03*
%TO.P,U2,7,OUTR_7*%
%TO.N,Net-(U2-OUTR)*%
X118337500Y-207675000D03*
%TO.P,U2,8,AVDD_8*%
%TO.N,+3.3V_DAC_A*%
X118337500Y-208325000D03*
%TO.P,U2,9,AGND_9*%
%TO.N,GND*%
X118337500Y-208975000D03*
%TO.P,U2,10,DEMP_10*%
X118337500Y-209625000D03*
%TO.P,U2,11,FLT_11*%
X124062500Y-209625000D03*
%TO.P,U2,12,SCK_12*%
X124062500Y-208975000D03*
%TO.P,U2,13,BCK_13*%
%TO.N,DAC_BCK*%
X124062500Y-208325000D03*
%TO.P,U2,14,DIN_14*%
%TO.N,DAC_DIN*%
X124062500Y-207675000D03*
%TO.P,U2,15,LRCK_15*%
%TO.N,DAC_LRCK*%
X124062500Y-207025000D03*
%TO.P,U2,16,FMT_16*%
%TO.N,GND*%
X124062500Y-206375000D03*
%TO.P,U2,17,XSMT_17*%
%TO.N,Net-(U2-XSMT)*%
X124062500Y-205725000D03*
%TO.P,U2,18,LDOO_18*%
%TO.N,Net-(U2-LDOO)*%
X124062500Y-205075000D03*
%TO.P,U2,19,DGND_19*%
%TO.N,GND*%
X124062500Y-204425000D03*
%TO.P,U2,20,DVDD_20*%
%TO.N,+3.3V*%
X124062500Y-203775000D03*
%TD*%
D19*
%TO.P,C48,1*%
%TO.N,Net-(U7-VIN+)*%
X224400000Y-187062500D03*
%TO.P,C48,2*%
%TO.N,Net-(C48-Pad2)*%
X224400000Y-185337500D03*
%TD*%
D32*
%TO.P,D7,1,K_1*%
%TO.N,Net-(D7-K)*%
X144762500Y-136025000D03*
%TO.P,D7,2,A_2*%
%TO.N,+5V*%
X144762500Y-137775000D03*
%TD*%
D35*
%TO.P,C23,1*%
%TO.N,+12V*%
X151487500Y-109100000D03*
%TO.P,C23,2*%
%TO.N,GND*%
X146087500Y-109100000D03*
%TD*%
D36*
%TO.P,D4,A*%
%TO.N,GND*%
X218000000Y-106985000D03*
%TO.P,D4,C*%
%TO.N,+48V*%
X218000000Y-100015000D03*
%TD*%
D14*
%TO.P,TP20,1,1_1*%
%TO.N,\u002ARST*%
X200800000Y-171900000D03*
%TD*%
D37*
%TO.P,C25,1*%
%TO.N,+48V*%
X176925000Y-133162500D03*
%TO.P,C25,2*%
%TO.N,GND*%
X176925000Y-130037500D03*
%TD*%
D23*
%TO.P,R3,1*%
%TO.N,Net-(K5-Pad7)*%
X185400000Y-199700000D03*
%TO.P,R3,2*%
%TO.N,Net-(K5-Pad5)*%
X187225000Y-199700000D03*
%TD*%
D38*
%TO.P,C70,1*%
%TO.N,GND*%
X127500000Y-200400000D03*
%TO.P,C70,2*%
%TO.N,+3.3V*%
X127500000Y-202300000D03*
%TD*%
D39*
%TO.P,D3,1,K_1*%
%TO.N,Net-(D3-K)*%
X161787500Y-118800000D03*
%TO.P,D3,2,A_2*%
%TO.N,GND*%
X170587500Y-118800000D03*
%TD*%
D24*
%TO.P,D11,1,K_1*%
%TO.N,Net-(D11-K)*%
X198575000Y-113100000D03*
%TO.P,D11,2,A_2*%
%TO.N,+15V*%
X196825000Y-113100000D03*
%TD*%
D14*
%TO.P,TP4,1,1_1*%
%TO.N,+15V*%
X193600000Y-113100000D03*
%TD*%
D40*
%TO.P,J6,1*%
%TO.N,OUTR*%
X101300000Y-216420000D03*
D41*
%TO.P,J6,2*%
%TO.N,GND*%
X103840000Y-216420000D03*
D42*
%TO.P,J6,S1*%
X96220000Y-221500000D03*
%TO.P,J6,S2*%
X106380000Y-221500000D03*
%TD*%
D20*
%TO.P,R44,1*%
%TO.N,Net-(U7-VOUT+)*%
X242100000Y-184712500D03*
%TO.P,R44,2*%
%TO.N,Net-(C51-Pad2)*%
X242100000Y-182887500D03*
%TD*%
D43*
%TO.P,D13,1,K_1*%
%TO.N,Net-(D13-K)*%
X155800000Y-174052500D03*
%TO.P,D13,2,A_2*%
%TO.N,+3.3V_DAC_A*%
X155800000Y-172302500D03*
%TD*%
D23*
%TO.P,R74,1*%
%TO.N,+4V_A*%
X254000000Y-160547500D03*
%TO.P,R74,2*%
%TO.N,Net-(D2-A)*%
X255825000Y-160547500D03*
%TD*%
D25*
%TO.P,C40,1*%
%TO.N,VCOMR*%
X216637500Y-191200000D03*
%TO.P,C40,2*%
%TO.N,GND*%
X218362500Y-191200000D03*
%TD*%
D20*
%TO.P,R25,1*%
%TO.N,Net-(U4-VIN+)*%
X187100000Y-187212500D03*
%TO.P,R25,2*%
%TO.N,Net-(C34-Pad2)*%
X187100000Y-185387500D03*
%TD*%
D14*
%TO.P,TP2,1,1_1*%
%TO.N,+5V*%
X154262500Y-133800000D03*
%TD*%
D20*
%TO.P,R43,1*%
%TO.N,Net-(U7-VOUT-)*%
X237200000Y-184700000D03*
%TO.P,R43,2*%
%TO.N,Net-(C48-Pad2)*%
X237200000Y-182875000D03*
%TD*%
D44*
%TO.P,R11,1*%
%TO.N,Net-(U8-RT{slash}CLK)*%
X171500000Y-103600000D03*
%TO.P,R11,2*%
%TO.N,GND*%
X169675000Y-103600000D03*
%TD*%
D14*
%TO.P,TP18,1,1_1*%
%TO.N,TEENSY_ADC_LRCK*%
X120400000Y-96600000D03*
%TD*%
D39*
%TO.P,D5,1,K_1*%
%TO.N,Net-(D5-K)*%
X161825000Y-142800000D03*
%TO.P,D5,2,A_2*%
%TO.N,GND*%
X170625000Y-142800000D03*
%TD*%
D45*
%TO.P,FB1,1*%
%TO.N,+3.3V*%
X152400000Y-170225000D03*
%TO.P,FB1,2*%
%TO.N,+3.3V_DAC_A*%
X152400000Y-172005000D03*
%TD*%
D25*
%TO.P,C57,1*%
%TO.N,+15V*%
X244307500Y-190700000D03*
%TO.P,C57,2*%
%TO.N,GND*%
X246032500Y-190700000D03*
%TD*%
D23*
%TO.P,R82,1*%
%TO.N,Net-(U4-ENABLE)*%
X198500000Y-187700000D03*
%TO.P,R82,2*%
%TO.N,+15V*%
X200325000Y-187700000D03*
%TD*%
D46*
%TO.P,J7,1,Pin_1_1*%
%TO.N,Temp_meas2*%
X131750000Y-88685000D03*
D47*
%TO.P,J7,2,Pin_2_2*%
%TO.N,Temp_meas1*%
X134290000Y-88685000D03*
%TO.P,J7,3,Pin_3_3*%
%TO.N,Mute*%
X136830000Y-88685000D03*
%TO.P,J7,4,Pin_4_4*%
%TO.N,Load_Select*%
X139370000Y-88685000D03*
%TO.P,J7,5,Pin_5_5*%
%TO.N,Temp_Control_Status_Right*%
X141910000Y-88685000D03*
%TO.P,J7,6,Pin_6_6*%
%TO.N,Temp_Control_Status_Left*%
X144450000Y-88685000D03*
%TD*%
D23*
%TO.P,R90,1*%
%TO.N,Net-(D12-A)*%
X200687500Y-141400000D03*
%TO.P,R90,2*%
%TO.N,GND*%
X202512500Y-141400000D03*
%TD*%
%TO.P,R1,1*%
%TO.N,Net-(K5-Pad2)*%
X185287500Y-212400000D03*
%TO.P,R1,2*%
%TO.N,Net-(K5-Pad4)*%
X187112500Y-212400000D03*
%TD*%
D40*
%TO.P,J3,1*%
%TO.N,INPUT_P_L*%
X236500000Y-216350000D03*
D41*
%TO.P,J3,2*%
%TO.N,INPUT_N_L*%
X239040000Y-216350000D03*
D42*
%TO.P,J3,S1*%
X231420000Y-221430000D03*
%TO.P,J3,S2*%
X241580000Y-221430000D03*
%TD*%
D19*
%TO.P,C34,1*%
%TO.N,Net-(U4-VIN+)*%
X184200000Y-187062500D03*
%TO.P,C34,2*%
%TO.N,Net-(C34-Pad2)*%
X184200000Y-185337500D03*
%TD*%
D20*
%TO.P,R40,1*%
%TO.N,Net-(U6-+IN)*%
X256700000Y-195712500D03*
%TO.P,R40,2*%
%TO.N,VCOML*%
X256700000Y-193887500D03*
%TD*%
D48*
%TO.P,C5,1*%
%TO.N,Net-(U13--Vout)*%
X209800000Y-137000000D03*
%TO.P,C5,2*%
%TO.N,GND*%
X209800000Y-131600000D03*
%TD*%
D25*
%TO.P,C87,1*%
%TO.N,GND*%
X177237500Y-182062500D03*
%TO.P,C87,2*%
%TO.N,Net-(U12-VOUT)*%
X178962500Y-182062500D03*
%TD*%
D49*
%TO.P,D2,1,K_1*%
%TO.N,+4V_A*%
X251125000Y-164447500D03*
%TO.P,D2,2,A_2*%
%TO.N,Net-(D2-A)*%
X255125000Y-164447500D03*
%TD*%
D50*
%TO.P,U4,1,VIN-_1*%
%TO.N,Net-(U4-VIN-)*%
X201940000Y-193400000D03*
%TO.P,U4,2,VOCM_2*%
%TO.N,VOCMR*%
X201940000Y-192130000D03*
%TO.P,U4,3,V+_3*%
%TO.N,+15V*%
X201940000Y-190860000D03*
%TO.P,U4,4,VOUT+_4*%
%TO.N,Net-(U4-VOUT+)*%
X201940000Y-189590000D03*
%TO.P,U4,5,VOUT-_5*%
%TO.N,Net-(U4-VOUT-)*%
X197000000Y-189590000D03*
%TO.P,U4,6,V-_6*%
%TO.N,-15V*%
X197000000Y-190860000D03*
%TO.P,U4,7,ENABLE_7*%
%TO.N,Net-(U4-ENABLE)*%
X197000000Y-192130000D03*
%TO.P,U4,8,VIN+_8*%
%TO.N,Net-(U4-VIN+)*%
X197000000Y-193400000D03*
%TD*%
D51*
%TO.P,C78,1*%
%TO.N,Net-(D2-A)*%
X257675000Y-158347500D03*
%TO.P,C78,2*%
%TO.N,GND*%
X259575000Y-158347500D03*
%TD*%
D23*
%TO.P,R88,1*%
%TO.N,Net-(D10-K)*%
X149387500Y-153777500D03*
%TO.P,R88,2*%
%TO.N,GND*%
X151212500Y-153777500D03*
%TD*%
D20*
%TO.P,R17,1*%
%TO.N,Net-(C36-Pad2)*%
X202000000Y-181212500D03*
%TO.P,R17,2*%
%TO.N,+VIN_R*%
X202000000Y-179387500D03*
%TD*%
D52*
%TO.P,U12,1,NIC_1*%
%TO.N,unconnected-(U12-NIC-Pad1)*%
X175662500Y-176357500D03*
%TO.P,U12,2,VIN_2*%
%TO.N,Net-(U12-VIN)*%
X175662500Y-177627500D03*
%TO.P,U12,3,NIC_3*%
%TO.N,unconnected-(U12-NIC-Pad3)*%
X175662500Y-178897500D03*
%TO.P,U12,4,GND_4*%
%TO.N,GND*%
X175662500Y-180167500D03*
%TO.P,U12,5,NIC_5*%
%TO.N,unconnected-(U12-NIC-Pad5)*%
X180612500Y-180167500D03*
%TO.P,U12,6,VOUT_6*%
%TO.N,Net-(U12-VOUT)*%
X180612500Y-178897500D03*
%TO.P,U12,7,NIC_7*%
%TO.N,unconnected-(U12-NIC-Pad7)*%
X180612500Y-177627500D03*
%TO.P,U12,8,DNC_8*%
%TO.N,unconnected-(U12-DNC-Pad8)*%
X180612500Y-176357500D03*
%TD*%
D43*
%TO.P,D6,1,K_1*%
%TO.N,Net-(D6-K)*%
X212000000Y-102075000D03*
%TO.P,D6,2,A_2*%
%TO.N,+48V*%
X212000000Y-100325000D03*
%TD*%
D53*
%TO.P,D12,1,K_1*%
%TO.N,-15V*%
X197025000Y-141400000D03*
%TO.P,D12,2,A_2*%
%TO.N,Net-(D12-A)*%
X198775000Y-141400000D03*
%TD*%
D54*
%TO.P,C29,1*%
%TO.N,+48V*%
X224500000Y-83800000D03*
%TO.P,C29,2*%
%TO.N,GND*%
X224500000Y-92200000D03*
%TD*%
D55*
%TO.P,C42,1*%
%TO.N,ADC_VREFR*%
X208500000Y-169025000D03*
%TO.P,C42,2*%
%TO.N,GND*%
X208500000Y-171975000D03*
%TD*%
D14*
%TO.P,TP21,1,1_1*%
%TO.N,ADC_VREFR*%
X209800000Y-165600000D03*
%TD*%
D56*
%TO.P,U9,1,GROUND_1*%
%TO.N,GND*%
X154700000Y-161800000D03*
%TO.P,U9,2,VOUT_2*%
%TO.N,+3.3V*%
X152400000Y-161800000D03*
%TO.P,U9,3,VIN_3*%
%TO.N,+5V*%
X150100000Y-161800000D03*
D57*
%TO.P,U9,4,VOUT_4*%
%TO.N,+3.3V*%
X152400000Y-167600000D03*
%TD*%
D25*
%TO.P,C85,1*%
%TO.N,GND*%
X170675000Y-176562500D03*
%TO.P,C85,2*%
%TO.N,Net-(U12-VIN)*%
X172400000Y-176562500D03*
%TD*%
D26*
%TO.P,C60,1*%
%TO.N,OUTR*%
X115100000Y-214000000D03*
%TO.P,C60,2*%
%TO.N,GND*%
X113375000Y-214000000D03*
%TD*%
D58*
%TO.P,C18,1*%
%TO.N,+48V*%
X176787500Y-108875000D03*
%TO.P,C18,2*%
%TO.N,GND*%
X176787500Y-105925000D03*
%TD*%
D25*
%TO.P,C59,1*%
%TO.N,-VIN_L*%
X223837500Y-176100000D03*
%TO.P,C59,2*%
%TO.N,+VIN_L*%
X225562500Y-176100000D03*
%TD*%
D59*
%TO.P,C27,1*%
%TO.N,-15V*%
X194700000Y-187400000D03*
%TO.P,C27,2*%
%TO.N,GND*%
X191750000Y-187400000D03*
%TD*%
D60*
%TO.P,U8,1,BOOT_1*%
%TO.N,Net-(U8-BOOT)*%
X169109448Y-110005000D03*
%TO.P,U8,2,VIN_2*%
%TO.N,+48V*%
X169109448Y-108735000D03*
%TO.P,U8,3,EN_3*%
%TO.N,Net-(U8-EN)*%
X169109448Y-107465000D03*
%TO.P,U8,4,RT/CLK_4*%
%TO.N,Net-(U8-RT{slash}CLK)*%
X169109448Y-106195000D03*
%TO.P,U8,5,FB_5*%
%TO.N,Net-(U8-FB)*%
X163465552Y-106195000D03*
%TO.P,U8,6,COMP_6*%
%TO.N,Net-(U8-COMP)*%
X163465552Y-107465000D03*
%TO.P,U8,7,GND_7*%
%TO.N,GND*%
X163465552Y-108735000D03*
%TO.P,U8,8,SW_8*%
%TO.N,Net-(D3-K)*%
X163465552Y-110005000D03*
D61*
%TO.P,U8,EPAD*%
%TO.N,GND*%
X166287500Y-108100000D03*
%TD*%
D21*
%TO.P,C73,1*%
%TO.N,GND*%
X118100000Y-200437500D03*
%TO.P,C73,2*%
%TO.N,+3.3V_DAC_A*%
X118100000Y-202162500D03*
%TD*%
D40*
%TO.P,J4,1*%
%TO.N,OUTL*%
X141300000Y-216420000D03*
D41*
%TO.P,J4,2*%
%TO.N,GND*%
X143840000Y-216420000D03*
D42*
%TO.P,J4,S1*%
X136220000Y-221500000D03*
%TO.P,J4,S2*%
X146380000Y-221500000D03*
%TD*%
D38*
%TO.P,C72,1*%
%TO.N,GND*%
X115000000Y-200350000D03*
%TO.P,C72,2*%
%TO.N,+3.3V_DAC_A*%
X115000000Y-202250000D03*
%TD*%
D62*
%TO.P,L6,1,1_1*%
%TO.N,+48V*%
X233390001Y-87000000D03*
%TO.P,L6,2,2_2*%
%TO.N,Net-(U13-+Vin)*%
X239609999Y-87000000D03*
%TD*%
D17*
%TO.P,K6,1*%
%TO.N,Net-(Q3-D)*%
X202400000Y-208800000D03*
%TO.P,K6,2*%
%TO.N,Net-(K6-Pad2)*%
X202400000Y-205600000D03*
%TO.P,K6,3*%
%TO.N,Net-(K5-Pad4)*%
X202400000Y-203400000D03*
%TO.P,K6,4*%
%TO.N,Net-(K6-Pad4)*%
X202400000Y-201200000D03*
%TO.P,K6,5*%
%TO.N,Net-(K6-Pad5)*%
X196400000Y-201200000D03*
%TO.P,K6,6*%
%TO.N,Net-(K5-Pad5)*%
X196400000Y-203400000D03*
%TO.P,K6,7*%
%TO.N,Net-(K6-Pad7)*%
X196400000Y-205600000D03*
%TO.P,K6,8*%
%TO.N,+12V*%
X196400000Y-208800000D03*
%TD*%
D20*
%TO.P,R39,1*%
%TO.N,Net-(K8-Pad5)*%
X235970000Y-198212500D03*
%TO.P,R39,2*%
%TO.N,Net-(U7-VIN+)*%
X235970000Y-196387500D03*
%TD*%
D14*
%TO.P,TP25,1,1_1*%
%TO.N,ADC_SCKI{slash}MCKI*%
X189184700Y-164760000D03*
%TD*%
D48*
%TO.P,C4,1*%
%TO.N,Net-(U13-+Vout)*%
X209800000Y-123200000D03*
%TO.P,C4,2*%
%TO.N,GND*%
X209800000Y-117800000D03*
%TD*%
D23*
%TO.P,R14,1*%
%TO.N,Net-(U8-FB)*%
X165675000Y-103600000D03*
%TO.P,R14,2*%
%TO.N,GND*%
X167500000Y-103600000D03*
%TD*%
D14*
%TO.P,TP3,1,1_1*%
%TO.N,-15V*%
X193500000Y-141400000D03*
%TD*%
D63*
%TO.P,C54,1*%
%TO.N,+15V*%
X244225000Y-187300000D03*
%TO.P,C54,2*%
%TO.N,GND*%
X247175000Y-187300000D03*
%TD*%
D25*
%TO.P,C52,1*%
%TO.N,VCOML*%
X224737500Y-170600000D03*
%TO.P,C52,2*%
%TO.N,GND*%
X226462500Y-170600000D03*
%TD*%
D64*
%TO.P,C17,1*%
%TO.N,+5V*%
X150900000Y-127600000D03*
%TO.P,C17,2*%
%TO.N,GND*%
X147950000Y-127600000D03*
%TD*%
D40*
%TO.P,J1,1*%
%TO.N,INPUT_P_R*%
X196408250Y-216422500D03*
D41*
%TO.P,J1,2*%
%TO.N,INPUT_N_R*%
X198948250Y-216422500D03*
D42*
%TO.P,J1,S1*%
X191328250Y-221502500D03*
%TO.P,J1,S2*%
X201488250Y-221502500D03*
%TD*%
D65*
%TO.P,C79,1*%
%TO.N,+5V*%
X146400000Y-161472500D03*
%TO.P,C79,2*%
%TO.N,GND*%
X146400000Y-164177500D03*
%TD*%
D25*
%TO.P,C84,1*%
%TO.N,+3.3V*%
X219937500Y-159500000D03*
%TO.P,C84,2*%
%TO.N,GND*%
X221662500Y-159500000D03*
%TD*%
D21*
%TO.P,C82,1*%
%TO.N,+4V_A*%
X220400000Y-172837500D03*
%TO.P,C82,2*%
%TO.N,GND*%
X220400000Y-174562500D03*
%TD*%
D66*
%TO.P,R5,1*%
%TO.N,+48V*%
X173025000Y-133100000D03*
%TO.P,R5,2*%
%TO.N,Net-(U11-EN)*%
X173025000Y-131100000D03*
%TD*%
D22*
%TO.P,R77,1*%
%TO.N,Net-(U12-VOUT)*%
X179037500Y-187862500D03*
%TO.P,R77,2*%
%TO.N,DC_REF_2V5*%
X179037500Y-189687500D03*
%TD*%
D67*
%TO.P,C8,1*%
%TO.N,+15V*%
X193600000Y-116825000D03*
%TO.P,C8,2*%
%TO.N,GND*%
X193600000Y-119775000D03*
%TD*%
D68*
%TO.P,U6,1,OFFSET_TRIM_1_1*%
%TO.N,unconnected-(U6-OFFSET_TRIM_1-Pad1)*%
X250530000Y-202740000D03*
%TO.P,U6,2,-IN_2*%
%TO.N,VOCML*%
X251800000Y-202740000D03*
%TO.P,U6,3,+IN_3*%
%TO.N,Net-(U6-+IN)*%
X253070000Y-202740000D03*
%TO.P,U6,4,V-_4*%
%TO.N,-15V*%
X254340000Y-202740000D03*
%TO.P,U6,5,NC_5*%
%TO.N,unconnected-(U6-NC-Pad5)*%
X254340000Y-197800000D03*
%TO.P,U6,6,OUTPUT_6*%
%TO.N,VOCML*%
X253070000Y-197800000D03*
%TO.P,U6,7,V+_7*%
%TO.N,+15V*%
X251800000Y-197800000D03*
%TO.P,U6,8,OFFSET_TRIM_2_8*%
%TO.N,unconnected-(U6-OFFSET_TRIM_2-Pad8)*%
X250530000Y-197800000D03*
%TD*%
D20*
%TO.P,R30,1*%
%TO.N,Net-(U5-+IN)*%
X216600000Y-195812500D03*
%TO.P,R30,2*%
%TO.N,VCOMR*%
X216600000Y-193987500D03*
%TD*%
D26*
%TO.P,C43,1*%
%TO.N,ADC_VREFR*%
X212925000Y-168900000D03*
%TO.P,C43,2*%
%TO.N,GND*%
X211200000Y-168900000D03*
%TD*%
D20*
%TO.P,R42,1*%
%TO.N,Net-(U7-VIN-)*%
X251700000Y-187100000D03*
%TO.P,R42,2*%
%TO.N,Net-(C51-Pad2)*%
X251700000Y-185275000D03*
%TD*%
%TO.P,R45,1*%
%TO.N,Net-(C48-Pad2)*%
X237200000Y-181112500D03*
%TO.P,R45,2*%
%TO.N,-VIN_L*%
X237200000Y-179287500D03*
%TD*%
D23*
%TO.P,R10,1*%
%TO.N,Net-(U8-EN)*%
X173275000Y-103600000D03*
%TO.P,R10,2*%
%TO.N,GND*%
X175100000Y-103600000D03*
%TD*%
D69*
%TO.P,C9,1*%
%TO.N,-15V*%
X193500000Y-137975000D03*
%TO.P,C9,2*%
%TO.N,GND*%
X193500000Y-135025000D03*
%TD*%
D23*
%TO.P,R47,1*%
%TO.N,Net-(OSC1-OUTPUTENABLE{slash}DISABLE)*%
X172884700Y-156160000D03*
%TO.P,R47,2*%
%TO.N,+3.3V*%
X174709700Y-156160000D03*
%TD*%
D70*
%TO.P,J2,1*%
%TO.N,Net-(F2-Pad1)*%
X207500000Y-90500000D03*
D71*
%TO.P,J2,2*%
%TO.N,GND*%
X207500000Y-84500000D03*
D72*
%TO.P,J2,MP*%
X212000000Y-83500000D03*
X203000000Y-83500000D03*
%TD*%
D73*
%TO.P,J5,1,Pin_1_1*%
%TO.N,+12V*%
X157345000Y-88677500D03*
D74*
%TO.P,J5,2,Pin_2_2*%
%TO.N,GND*%
X152265000Y-88677500D03*
%TD*%
D32*
%TO.P,D14,1,K_1*%
%TO.N,Net-(D14-K)*%
X116590000Y-85395000D03*
%TO.P,D14,2,A_2*%
%TO.N,Net-(D14-A)*%
X116590000Y-87145000D03*
%TD*%
D60*
%TO.P,U11,1,BOOT_1*%
%TO.N,Net-(U11-BOOT)*%
X169268896Y-134110000D03*
%TO.P,U11,2,VIN_2*%
%TO.N,+48V*%
X169268896Y-132840000D03*
%TO.P,U11,3,EN_3*%
%TO.N,Net-(U11-EN)*%
X169268896Y-131570000D03*
%TO.P,U11,4,RT/CLK_4*%
%TO.N,Net-(U11-RT{slash}CLK)*%
X169268896Y-130300000D03*
%TO.P,U11,5,FB_5*%
%TO.N,Net-(U11-FB)*%
X163625000Y-130300000D03*
%TO.P,U11,6,COMP_6*%
%TO.N,Net-(U11-COMP)*%
X163625000Y-131570000D03*
%TO.P,U11,7,GND_7*%
%TO.N,GND*%
X163625000Y-132840000D03*
%TO.P,U11,8,SW_8*%
%TO.N,Net-(D5-K)*%
X163625000Y-134110000D03*
D61*
%TO.P,U11,EPAD*%
%TO.N,GND*%
X166446948Y-132205000D03*
%TD*%
D25*
%TO.P,C47,1*%
%TO.N,VCOML*%
X256737500Y-191100000D03*
%TO.P,C47,2*%
%TO.N,GND*%
X258462500Y-191100000D03*
%TD*%
D23*
%TO.P,R89,1*%
%TO.N,Net-(D11-K)*%
X200587500Y-113100000D03*
%TO.P,R89,2*%
%TO.N,GND*%
X202412500Y-113100000D03*
%TD*%
D22*
%TO.P,R91,1*%
%TO.N,Net-(D13-K)*%
X155812500Y-176065000D03*
%TO.P,R91,2*%
%TO.N,GND*%
X155812500Y-177890000D03*
%TD*%
D23*
%TO.P,R87,1*%
%TO.N,Net-(D9-K)*%
X256287500Y-168900000D03*
%TO.P,R87,2*%
%TO.N,GND*%
X258112500Y-168900000D03*
%TD*%
D25*
%TO.P,C39,1*%
%TO.N,Net-(U5-+IN)*%
X216637500Y-199100000D03*
%TO.P,C39,2*%
%TO.N,GND*%
X218362500Y-199100000D03*
%TD*%
D19*
%TO.P,C49,1*%
%TO.N,Net-(U7-VIN+)*%
X228800000Y-191062500D03*
%TO.P,C49,2*%
%TO.N,Net-(U7-VOUT-)*%
X228800000Y-189337500D03*
%TD*%
%TO.P,C44,1*%
%TO.N,+15V*%
X251800000Y-195562500D03*
%TO.P,C44,2*%
%TO.N,GND*%
X251800000Y-193837500D03*
%TD*%
D20*
%TO.P,R92,1*%
%TO.N,Net-(D14-K)*%
X116590000Y-83482500D03*
%TO.P,R92,2*%
%TO.N,GND*%
X116590000Y-81657500D03*
%TD*%
D14*
%TO.P,TP32,1,1_1*%
%TO.N,CAL_NSource_L*%
X214000000Y-213000000D03*
%TD*%
D44*
%TO.P,R6,1*%
%TO.N,Net-(U11-COMP)*%
X161237500Y-131600000D03*
%TO.P,R6,2*%
%TO.N,Net-(C14-Pad2)*%
X159412500Y-131600000D03*
%TD*%
D14*
%TO.P,TP6,1,1_1*%
%TO.N,+48V*%
X207600000Y-102000000D03*
%TD*%
D66*
%TO.P,R9,1*%
%TO.N,+48V*%
X172787500Y-108800000D03*
%TO.P,R9,2*%
%TO.N,Net-(U8-EN)*%
X172787500Y-106800000D03*
%TD*%
D14*
%TO.P,TP33,1,1_1*%
%TO.N,CAL_PSource_L*%
X214000000Y-217000000D03*
%TD*%
%TO.P,TP8,1,1_1*%
%TO.N,+3.3V_DAC_A*%
X161200000Y-174100000D03*
%TD*%
D20*
%TO.P,R16,1*%
%TO.N,Net-(U4-VOUT-)*%
X197000000Y-184812500D03*
%TO.P,R16,2*%
%TO.N,Net-(C34-Pad2)*%
X197000000Y-182987500D03*
%TD*%
D75*
%TO.P,C31,1*%
%TO.N,-VIN_R*%
X213925000Y-176100000D03*
%TO.P,C31,2*%
%TO.N,+VIN_R*%
X215475000Y-176100000D03*
%TD*%
D26*
%TO.P,C65,1*%
%TO.N,\u002ARST*%
X200862500Y-167300000D03*
%TO.P,C65,2*%
%TO.N,Net-(C65-Pad2)*%
X199137500Y-167300000D03*
%TD*%
D20*
%TO.P,R18,1*%
%TO.N,Net-(C34-Pad2)*%
X197000000Y-181200000D03*
%TO.P,R18,2*%
%TO.N,-VIN_R*%
X197000000Y-179375000D03*
%TD*%
D64*
%TO.P,C19,1*%
%TO.N,+48V*%
X177562500Y-112300000D03*
%TO.P,C19,2*%
%TO.N,GND*%
X174612500Y-112300000D03*
%TD*%
D26*
%TO.P,C37,1*%
%TO.N,-15V*%
X214162500Y-205000000D03*
%TO.P,C37,2*%
%TO.N,GND*%
X212437500Y-205000000D03*
%TD*%
D23*
%TO.P,R48,1*%
%TO.N,Net-(OSC1-OUTPUT)*%
X178372200Y-164760000D03*
%TO.P,R48,2*%
%TO.N,ADC_SCKI{slash}MCKI*%
X180197200Y-164760000D03*
%TD*%
D44*
%TO.P,R12,1*%
%TO.N,Net-(U8-COMP)*%
X161100000Y-107500000D03*
%TO.P,R12,2*%
%TO.N,Net-(C21-Pad2)*%
X159275000Y-107500000D03*
%TD*%
D23*
%TO.P,R8,1*%
%TO.N,Net-(U11-FB)*%
X165812500Y-127800000D03*
%TO.P,R8,2*%
%TO.N,GND*%
X167637500Y-127800000D03*
%TD*%
D76*
%TO.P,RN3,1,R1.1_1*%
%TO.N,TEENSY_ADC_DATA*%
X212072500Y-149700000D03*
D77*
%TO.P,RN3,2,R2.1_2*%
%TO.N,TEENSY_ADC_BCK*%
X212072500Y-150600000D03*
%TO.P,RN3,3,R3.1_3*%
%TO.N,TEENSY_ADC_LRCK*%
X212072500Y-151400000D03*
D76*
%TO.P,RN3,4,R4.1_4*%
%TO.N,unconnected-(RN3-R4.1-Pad4)*%
X212072500Y-152300000D03*
%TO.P,RN3,5,R4.2_5*%
%TO.N,unconnected-(RN3-R4.2-Pad5)*%
X213812500Y-152300000D03*
D77*
%TO.P,RN3,6,R3.2_6*%
%TO.N,ADC_LRCK*%
X213812500Y-151400000D03*
%TO.P,RN3,7,R2.2_7*%
%TO.N,ADC_BCK*%
X213812500Y-150600000D03*
D76*
%TO.P,RN3,8,R1.2_8*%
%TO.N,ADC_DATA*%
X213812500Y-149700000D03*
%TD*%
D14*
%TO.P,TP40,1,1_1*%
%TO.N,TEENSY_DAC_XSMT*%
X97200000Y-151600000D03*
%TD*%
D64*
%TO.P,C12,1*%
%TO.N,+48V*%
X177675000Y-136700000D03*
%TO.P,C12,2*%
%TO.N,GND*%
X174725000Y-136700000D03*
%TD*%
D23*
%TO.P,R4,1*%
%TO.N,Net-(U11-EN)*%
X173325000Y-127800000D03*
%TO.P,R4,2*%
%TO.N,GND*%
X175150000Y-127800000D03*
%TD*%
D26*
%TO.P,C28,1*%
%TO.N,-15V*%
X194700000Y-190800000D03*
%TO.P,C28,2*%
%TO.N,GND*%
X192975000Y-190800000D03*
%TD*%
D14*
%TO.P,TP7,1,1_1*%
%TO.N,+4V_A*%
X249800000Y-170200000D03*
%TD*%
D17*
%TO.P,K4,1*%
%TO.N,+12V*%
X226800000Y-224400000D03*
%TO.P,K4,2*%
%TO.N,unconnected-(K4-Pad2)*%
X226800000Y-221200000D03*
%TO.P,K4,3*%
%TO.N,INPUT_N_L*%
X226800000Y-219000000D03*
%TO.P,K4,4*%
%TO.N,CAL_NSource_L*%
X226800000Y-216800000D03*
%TO.P,K4,5*%
%TO.N,CAL_PSource_L*%
X220800000Y-216800000D03*
%TO.P,K4,6*%
%TO.N,INPUT_P_L*%
X220800000Y-219000000D03*
%TO.P,K4,7*%
%TO.N,unconnected-(K4-Pad7)*%
X220800000Y-221200000D03*
%TO.P,K4,8*%
%TO.N,Net-(Q4-D)*%
X220800000Y-224400000D03*
%TD*%
D23*
%TO.P,R34,1*%
%TO.N,Net-(K7-Pad2)*%
X225487500Y-212200000D03*
%TO.P,R34,2*%
%TO.N,Net-(K7-Pad4)*%
X227312500Y-212200000D03*
%TD*%
D26*
%TO.P,C20,1*%
%TO.N,Net-(U8-BOOT)*%
X167050000Y-113195000D03*
%TO.P,C20,2*%
%TO.N,Net-(D3-K)*%
X165325000Y-113195000D03*
%TD*%
D25*
%TO.P,C46,1*%
%TO.N,Net-(U6-+IN)*%
X256737500Y-199000000D03*
%TO.P,C46,2*%
%TO.N,GND*%
X258462500Y-199000000D03*
%TD*%
D78*
%TO.P,D1,1,K_1*%
%TO.N,+15V*%
X250925000Y-149947500D03*
%TO.P,D1,2,A_2*%
%TO.N,+4V_A*%
X246925000Y-149947500D03*
%TD*%
D32*
%TO.P,D8,1,K_1*%
%TO.N,Net-(D8-K)*%
X146787500Y-118912500D03*
%TO.P,D8,2,A_2*%
%TO.N,+12V*%
X146787500Y-120662500D03*
%TD*%
D63*
%TO.P,C67,1*%
%TO.N,Net-(U2-VNEG)*%
X110025000Y-206700000D03*
%TO.P,C67,2*%
%TO.N,GND*%
X112975000Y-206700000D03*
%TD*%
D25*
%TO.P,C22,1*%
%TO.N,GND*%
X159325000Y-104600000D03*
%TO.P,C22,2*%
%TO.N,Net-(U8-COMP)*%
X161050000Y-104600000D03*
%TD*%
D44*
%TO.P,R19,1*%
%TO.N,Net-(U11-RT{slash}CLK)*%
X171537500Y-127800000D03*
%TO.P,R19,2*%
%TO.N,GND*%
X169712500Y-127800000D03*
%TD*%
D33*
%TO.P,C3,1*%
%TO.N,Net-(U13-+Vin)*%
X244300000Y-98500000D03*
%TO.P,C3,2*%
%TO.N,GND*%
X252700000Y-98500000D03*
%TD*%
D26*
%TO.P,C14,1*%
%TO.N,GND*%
X161187500Y-128700000D03*
%TO.P,C14,2*%
%TO.N,Net-(C14-Pad2)*%
X159462500Y-128700000D03*
%TD*%
D14*
%TO.P,TP14,1,1_1*%
%TO.N,VOCML*%
X249900000Y-206700000D03*
%TD*%
D21*
%TO.P,C83,1*%
%TO.N,+4V_A*%
X218800000Y-172837500D03*
%TO.P,C83,2*%
%TO.N,GND*%
X218800000Y-174562500D03*
%TD*%
D79*
%TO.P,C68,1*%
%TO.N,+3.3V_DAC_A*%
X120050000Y-198200000D03*
%TO.P,C68,2*%
%TO.N,GND*%
X118150000Y-198200000D03*
%TD*%
D14*
%TO.P,TP24,1,1_1*%
%TO.N,+3.3V*%
X220000000Y-154900000D03*
%TD*%
D25*
%TO.P,C62,1*%
%TO.N,+3.3V*%
X178822200Y-159560000D03*
%TO.P,C62,2*%
%TO.N,GND*%
X180547200Y-159560000D03*
%TD*%
D14*
%TO.P,TP15,1,1_1*%
%TO.N,Net-(C51-Pad2)*%
X247100000Y-181100000D03*
%TD*%
D25*
%TO.P,C56,1*%
%TO.N,ADC_VREFL*%
X226337500Y-168900000D03*
%TO.P,C56,2*%
%TO.N,GND*%
X228062500Y-168900000D03*
%TD*%
D80*
%TO.P,U13,1,+Vin_1*%
%TO.N,Net-(U13-+Vin)*%
X251700000Y-125200000D03*
%TO.P,U13,2,-Vin_2*%
%TO.N,GND*%
X251700000Y-130300000D03*
%TO.P,U13,3,+Vout_3*%
%TO.N,Net-(U13-+Vout)*%
X231400000Y-117500000D03*
%TO.P,U13,4,COM_4*%
%TO.N,GND*%
X231400000Y-127700000D03*
%TO.P,U13,5,-Vout_5*%
%TO.N,Net-(U13--Vout)*%
X231400000Y-137900000D03*
%TD*%
D62*
%TO.P,L5,1,1_1*%
%TO.N,Net-(D3-K)*%
X157297499Y-117900000D03*
%TO.P,L5,2,2_2*%
%TO.N,+12V*%
X151077501Y-117900000D03*
%TD*%
D50*
%TO.P,U7,1,VIN-_1*%
%TO.N,Net-(U7-VIN-)*%
X242040000Y-193305000D03*
%TO.P,U7,2,VOCM_2*%
%TO.N,VOCML*%
X242040000Y-192035000D03*
%TO.P,U7,3,V+_3*%
%TO.N,+15V*%
X242040000Y-190765000D03*
%TO.P,U7,4,VOUT+_4*%
%TO.N,Net-(U7-VOUT+)*%
X242040000Y-189495000D03*
%TO.P,U7,5,VOUT-_5*%
%TO.N,Net-(U7-VOUT-)*%
X237100000Y-189495000D03*
%TO.P,U7,6,V-_6*%
%TO.N,-15V*%
X237100000Y-190765000D03*
%TO.P,U7,7,ENABLE_7*%
%TO.N,Net-(U7-ENABLE)*%
X237100000Y-192035000D03*
%TO.P,U7,8,VIN+_8*%
%TO.N,Net-(U7-VIN+)*%
X237100000Y-193305000D03*
%TD*%
D14*
%TO.P,TP29,1,1_1*%
%TO.N,GND*%
X172537500Y-184062500D03*
%TD*%
%TO.P,TP41,1,1_1*%
%TO.N,GND*%
X128700000Y-222400000D03*
%TD*%
D22*
%TO.P,R63,1*%
%TO.N,+3.3V*%
X201900000Y-153287500D03*
%TO.P,R63,2*%
%TO.N,Net-(R63-Pad2)*%
X201900000Y-155112500D03*
%TD*%
D55*
%TO.P,C53,1*%
%TO.N,ADC_VREFL*%
X230800000Y-169025000D03*
%TO.P,C53,2*%
%TO.N,GND*%
X230800000Y-171975000D03*
%TD*%
D81*
%TO.P,R84,1*%
%TO.N,Net-(D6-K)*%
X212000000Y-104350000D03*
%TO.P,R84,2*%
%TO.N,GND*%
X212000000Y-107450000D03*
%TD*%
D14*
%TO.P,TP16,1,1_1*%
%TO.N,Net-(C48-Pad2)*%
X232200000Y-181100000D03*
%TD*%
D22*
%TO.P,R76,1*%
%TO.N,Net-(R75-Pad2)*%
X259625000Y-163835000D03*
%TO.P,R76,2*%
%TO.N,GND*%
X259625000Y-165660000D03*
%TD*%
D35*
%TO.P,C24,1*%
%TO.N,+12V*%
X151487500Y-100700000D03*
%TO.P,C24,2*%
%TO.N,GND*%
X146087500Y-100700000D03*
%TD*%
D64*
%TO.P,C16,1*%
%TO.N,+5V*%
X150900000Y-132200000D03*
%TO.P,C16,2*%
%TO.N,GND*%
X147950000Y-132200000D03*
%TD*%
D20*
%TO.P,R24,1*%
%TO.N,Net-(K6-Pad5)*%
X195900000Y-198312500D03*
%TO.P,R24,2*%
%TO.N,Net-(U4-VIN+)*%
X195900000Y-196487500D03*
%TD*%
D17*
%TO.P,K9,1*%
%TO.N,+12V*%
X150300000Y-203200000D03*
%TO.P,K9,2*%
%TO.N,DC_REF_2V5*%
X150300000Y-206400000D03*
%TO.P,K9,3*%
%TO.N,CAL_PSource_R*%
X150300000Y-208600000D03*
%TO.P,K9,4*%
%TO.N,OUTR*%
X150300000Y-210800000D03*
%TO.P,K9,5*%
%TO.N,GND*%
X156300000Y-210800000D03*
%TO.P,K9,6*%
%TO.N,CAL_NSource_R*%
X156300000Y-208600000D03*
%TO.P,K9,7*%
%TO.N,GND*%
X156300000Y-206400000D03*
%TO.P,K9,8*%
%TO.N,Net-(Q7-D)*%
X156300000Y-203200000D03*
%TD*%
D26*
%TO.P,C74,1*%
%TO.N,GND*%
X127862500Y-204600000D03*
%TO.P,C74,2*%
%TO.N,Net-(U2-LDOO)*%
X126137500Y-204600000D03*
%TD*%
D23*
%TO.P,R7,1*%
%TO.N,+5V*%
X152712500Y-127600000D03*
%TO.P,R7,2*%
%TO.N,Net-(U11-FB)*%
X154537500Y-127600000D03*
%TD*%
D25*
%TO.P,C1,1*%
%TO.N,+15V*%
X204237500Y-190800000D03*
%TO.P,C1,2*%
%TO.N,GND*%
X205962500Y-190800000D03*
%TD*%
D82*
%TO.P,U3,7,RX2_7*%
%TO.N,TEENSY_DAC_DATA*%
X97700000Y-99920000D03*
%TO.P,U3,8,TX2_8*%
%TO.N,TEENSY_ADC_DATA*%
X97700000Y-102460000D03*
%TO.P,U3,14,A0_14*%
%TO.N,Temp_meas1*%
X112940000Y-110080000D03*
%TO.P,U3,15,A1_15*%
%TO.N,Temp_meas2*%
X112940000Y-107540000D03*
%TO.P,U3,20,A6_20*%
%TO.N,TEENSY_ADC_LRCK*%
X112940000Y-94840000D03*
%TO.P,U3,21,A7_21*%
%TO.N,TEENSY_ADC_BCK*%
X112940000Y-92300000D03*
%TO.P,U3,23,A9_23*%
%TO.N,Net-(D14-A)*%
X112940000Y-87220000D03*
%TO.P,U3,24,A10_24*%
%TO.N,EXT_CAL_SEL*%
X97700000Y-117700000D03*
%TO.P,U3,25,A11_25*%
%TO.N,RANGE_15_TO_9*%
X97700000Y-120240000D03*
%TO.P,U3,26,A12_26*%
%TO.N,RANGE_9_TO_3*%
X97700000Y-122780000D03*
%TO.P,U3,27,A13_27*%
%TO.N,CAL_SRC_SEL*%
X97700000Y-125320000D03*
%TO.P,U3,28,RX7_28*%
%TO.N,ADC_HPF_DISABLE*%
X97700000Y-127860000D03*
%TO.P,U3,29,TX7_29*%
%TO.N,TEENSY_DAC_XSMT*%
X97700000Y-130400000D03*
%TO.P,U3,30,CRX3_30*%
%TO.N,Mute*%
X97700000Y-132940000D03*
%TO.P,U3,31,CTX3_31*%
%TO.N,Load_Select*%
X97700000Y-135480000D03*
%TO.P,U3,34,RX8_34*%
%TO.N,Temp_Control_Status_Left*%
X112940000Y-135480000D03*
%TO.P,U3,35,TX8_35*%
%TO.N,Temp_Control_Status_Right*%
X112940000Y-132940000D03*
%TO.P,U3,36,CS2_36*%
%TO.N,Teensy_OVFL*%
X112940000Y-130400000D03*
%TO.P,U3,37,CS3_37*%
%TO.N,Teensy_OVFR*%
X112940000Y-127860000D03*
%TO.P,U3,GND1,GND_GND1*%
%TO.N,GND*%
X97700000Y-79600000D03*
%TO.P,U3,GND2,GND_GND2*%
X112940000Y-115160000D03*
%TO.P,U3,GND3,GND_GND3*%
X112940000Y-82140000D03*
%TO.P,U3,GND4,GND_GND4*%
X105320000Y-125320000D03*
D83*
%TO.P,U3,GND5,GND_GND5*%
X108490000Y-94570000D03*
D84*
%TO.P,U3,USB_GND1,USB_GND_USB_GND1*%
X100750000Y-93570000D03*
%TO.P,U3,USB_GND2,USB_GND_USB_GND2*%
X100750000Y-96110000D03*
D82*
%TO.P,U3,VIN,VIN_VIN*%
%TO.N,+5V*%
X112940000Y-79600000D03*
%TO.P,U3,VUSB,VUSB_VUSB*%
%TO.N,unconnected-(U3-PadVUSB)*%
X110400000Y-82140000D03*
%TD*%
D85*
%TO.P,R2,1*%
%TO.N,GND*%
X257000000Y-92550000D03*
%TO.P,R2,2*%
%TO.N,Net-(C11-Pad2)*%
X257000000Y-89450000D03*
%TD*%
D25*
%TO.P,C63,1*%
%TO.N,+3.3V*%
X178822200Y-155360000D03*
%TO.P,C63,2*%
%TO.N,GND*%
X180547200Y-155360000D03*
%TD*%
D21*
%TO.P,C21,1*%
%TO.N,GND*%
X156300000Y-105700000D03*
%TO.P,C21,2*%
%TO.N,Net-(C21-Pad2)*%
X156300000Y-107425000D03*
%TD*%
%TO.P,C71,1*%
%TO.N,GND*%
X124300000Y-200437500D03*
%TO.P,C71,2*%
%TO.N,+3.3V*%
X124300000Y-202162500D03*
%TD*%
D86*
%TO.P,C80,1*%
%TO.N,+3.3V*%
X152800000Y-158125000D03*
%TO.P,C80,2*%
%TO.N,GND*%
X155505000Y-158125000D03*
%TD*%
D21*
%TO.P,C64,1*%
%TO.N,ADC_SCKI{slash}MCKI*%
X183184700Y-164760000D03*
%TO.P,C64,2*%
%TO.N,GND*%
X183184700Y-166485000D03*
%TD*%
D19*
%TO.P,C86,1*%
%TO.N,GND*%
X172437500Y-180225000D03*
%TO.P,C86,2*%
%TO.N,Net-(U12-VIN)*%
X172437500Y-178500000D03*
%TD*%
D87*
%TO.P,FB2,1*%
%TO.N,+4V_A*%
X172427500Y-173162500D03*
%TO.P,FB2,2*%
%TO.N,Net-(U12-VIN)*%
X170647500Y-173162500D03*
%TD*%
D21*
%TO.P,C15,1*%
%TO.N,GND*%
X156525000Y-129775000D03*
%TO.P,C15,2*%
%TO.N,Net-(U11-COMP)*%
X156525000Y-131500000D03*
%TD*%
D59*
%TO.P,C55,1*%
%TO.N,-15V*%
X234875000Y-187300000D03*
%TO.P,C55,2*%
%TO.N,GND*%
X231925000Y-187300000D03*
%TD*%
D14*
%TO.P,TP17,1,1_1*%
%TO.N,TEENSY_ADC_BCK*%
X136500000Y-105900000D03*
%TD*%
D20*
%TO.P,R85,1*%
%TO.N,Net-(D7-K)*%
X144762500Y-134212500D03*
%TO.P,R85,2*%
%TO.N,GND*%
X144762500Y-132387500D03*
%TD*%
D14*
%TO.P,TP22,1,1_1*%
%TO.N,ADC_VREFL*%
X229500000Y-165600000D03*
%TD*%
D25*
%TO.P,C76,1*%
%TO.N,GND*%
X254062500Y-150047500D03*
%TO.P,C76,2*%
%TO.N,+15V*%
X255787500Y-150047500D03*
%TD*%
D14*
%TO.P,TP26,1,1_1*%
%TO.N,ADC_HPF_DISABLE*%
X120600000Y-143800000D03*
%TD*%
D23*
%TO.P,R83,1*%
%TO.N,Net-(U7-ENABLE)*%
X238757500Y-187600000D03*
%TO.P,R83,2*%
%TO.N,+15V*%
X240582500Y-187600000D03*
%TD*%
D20*
%TO.P,R26,1*%
%TO.N,Net-(U4-VIN-)*%
X211700000Y-187125000D03*
%TO.P,R26,2*%
%TO.N,Net-(C36-Pad2)*%
X211700000Y-185300000D03*
%TD*%
D22*
%TO.P,R64,1*%
%TO.N,Net-(U2-OUTR)*%
X118000000Y-212187500D03*
%TO.P,R64,2*%
%TO.N,OUTR*%
X118000000Y-214012500D03*
%TD*%
D19*
%TO.P,C50,1*%
%TO.N,Net-(U7-VIN-)*%
X250300000Y-191062500D03*
%TO.P,C50,2*%
%TO.N,Net-(U7-VOUT+)*%
X250300000Y-189337500D03*
%TD*%
D14*
%TO.P,TP28,1,1_1*%
%TO.N,DC_REF_2V5*%
X172437500Y-188862500D03*
%TD*%
%TO.P,TP11,1,1_1*%
%TO.N,Net-(C36-Pad2)*%
X207000000Y-181200000D03*
%TD*%
D63*
%TO.P,C2,1*%
%TO.N,+15V*%
X204225000Y-187400000D03*
%TO.P,C2,2*%
%TO.N,GND*%
X207175000Y-187400000D03*
%TD*%
D67*
%TO.P,C66,1*%
%TO.N,Net-(U2-CAPP)*%
X111100000Y-200425000D03*
%TO.P,C66,2*%
%TO.N,Net-(U2-CAPM)*%
X111100000Y-203375000D03*
%TD*%
D79*
%TO.P,C75,1*%
%TO.N,GND*%
X131700000Y-204400000D03*
%TO.P,C75,2*%
%TO.N,Net-(U2-LDOO)*%
X129800000Y-204400000D03*
%TD*%
D68*
%TO.P,U5,1,OFFSET_TRIM_1_1*%
%TO.N,unconnected-(U5-OFFSET_TRIM_1-Pad1)*%
X210395000Y-202770000D03*
%TO.P,U5,2,-IN_2*%
%TO.N,VOCMR*%
X211665000Y-202770000D03*
%TO.P,U5,3,+IN_3*%
%TO.N,Net-(U5-+IN)*%
X212935000Y-202770000D03*
%TO.P,U5,4,V-_4*%
%TO.N,-15V*%
X214205000Y-202770000D03*
%TO.P,U5,5,NC_5*%
%TO.N,unconnected-(U5-NC-Pad5)*%
X214205000Y-197830000D03*
%TO.P,U5,6,OUTPUT_6*%
%TO.N,VOCMR*%
X212935000Y-197830000D03*
%TO.P,U5,7,V+_7*%
%TO.N,+15V*%
X211665000Y-197830000D03*
%TO.P,U5,8,OFFSET_TRIM_2_8*%
%TO.N,unconnected-(U5-OFFSET_TRIM_2-Pad8)*%
X210395000Y-197830000D03*
%TD*%
D14*
%TO.P,TP39,1,1_1*%
%TO.N,OUTL*%
X145700000Y-212100000D03*
%TD*%
D20*
%TO.P,R41,1*%
%TO.N,Net-(U7-VIN+)*%
X227300000Y-187112500D03*
%TO.P,R41,2*%
%TO.N,Net-(C48-Pad2)*%
X227300000Y-185287500D03*
%TD*%
D88*
%TO.N,TEENSY_DAC_XSMT*%
X97200000Y-151600000D03*
%TO.N,ADC_HPF_DISABLE*%
X120600000Y-143800000D03*
%TO.N,TEENSY_ADC_DATA*%
X129400000Y-108200000D03*
%TO.N,TEENSY_ADC_BCK*%
X136500000Y-105900000D03*
%TO.N,TEENSY_ADC_LRCK*%
X120400000Y-96600000D03*
%TO.N,GND*%
X167000000Y-207300000D03*
X154800000Y-207200000D03*
X130200000Y-213700000D03*
%TO.N,CAL_SRC_SEL*%
X101400000Y-127300000D03*
%TO.N,GND*%
X128700000Y-222400000D03*
%TO.N,Net-(Q7-G)*%
X162600000Y-195200000D03*
%TO.N,GND*%
X176100000Y-184800000D03*
X176100000Y-182600000D03*
X175200000Y-181300000D03*
X171400000Y-180900000D03*
X170300000Y-177900000D03*
X172537500Y-184062500D03*
%TO.N,+5V*%
X148800000Y-161800000D03*
X145700000Y-160000000D03*
%TO.N,+3.3V*%
X146300000Y-167577500D03*
%TO.N,GND*%
X157100000Y-178900000D03*
%TO.N,+3.3V*%
X219300000Y-163900000D03*
%TO.N,FMT0*%
X216966241Y-166567820D03*
%TO.N,PCMEN*%
X221400000Y-168100000D03*
%TO.N,FS1*%
X222400000Y-165900000D03*
%TO.N,+3.3V*%
X220000000Y-154900000D03*
%TO.N,GND*%
X211000000Y-170300000D03*
X212400000Y-171700000D03*
X231900000Y-173100000D03*
X231925000Y-171800000D03*
X227696926Y-170203073D03*
X227400000Y-171200000D03*
X222600000Y-168400000D03*
X222124460Y-169312602D03*
X220100000Y-168700000D03*
X218900000Y-168700000D03*
X220800000Y-169294100D03*
X218400000Y-169294100D03*
X217200000Y-169200000D03*
X216700000Y-168300000D03*
X216746758Y-167337126D03*
X216700000Y-164700000D03*
X220200000Y-163400000D03*
X222700000Y-158300000D03*
%TO.N,+15V*%
X210500000Y-195900000D03*
X211300000Y-199500000D03*
%TO.N,GND*%
X191000000Y-189000000D03*
X191800000Y-191700000D03*
X207500000Y-163300000D03*
X207500000Y-166000000D03*
X206400000Y-171300000D03*
X208675000Y-171900000D03*
X207500000Y-167900000D03*
X233200000Y-168200000D03*
X233200000Y-162700000D03*
X233000000Y-159900000D03*
X233000000Y-156700000D03*
X231300000Y-151200000D03*
X228700000Y-151300000D03*
X226000000Y-151300000D03*
%TO.N,TEENSY_ADC_DATA*%
X212800000Y-149200000D03*
%TO.N,TEENSY_ADC_BCK*%
X210800000Y-150500000D03*
%TO.N,TEENSY_ADC_LRCK*%
X210800000Y-151300000D03*
%TO.N,+5V*%
X143000000Y-126800000D03*
X143000000Y-127400000D03*
X143000000Y-128000000D03*
%TO.N,+3.3V_DAC_A*%
X152800000Y-173100000D03*
X152000000Y-173100000D03*
X156900000Y-172700000D03*
X161200000Y-174100000D03*
%TO.N,ADC_LRCK*%
X134200000Y-204700000D03*
%TO.N,ADC_BCK*%
X134550000Y-205850000D03*
%TO.N,GND*%
X212300000Y-154700000D03*
X207500000Y-154700000D03*
%TO.N,ADC_LRCK*%
X207425413Y-152941529D03*
X215200000Y-153200000D03*
%TO.N,ADC_BCK*%
X215900000Y-154600000D03*
X206550000Y-152950000D03*
%TO.N,CAL_NSource_R*%
X161000000Y-216000000D03*
%TO.N,CAL_PSource_R*%
X161000000Y-220000000D03*
%TO.N,CAL_NSource_L*%
X214000000Y-213000000D03*
%TO.N,CAL_PSource_L*%
X214000000Y-217000000D03*
%TO.N,CAL_PSource_R*%
X151900000Y-209000000D03*
%TO.N,CAL_NSource_R*%
X158097250Y-209075000D03*
%TO.N,CAL_NSource_L*%
X170300000Y-209600000D03*
%TO.N,CAL_PSource_L*%
X163900000Y-209500000D03*
%TO.N,CAL_PSource_R*%
X180000000Y-217800000D03*
%TO.N,CAL_NSource_R*%
X184900000Y-217200000D03*
%TO.N,CAL_NSource_L*%
X226500000Y-215700000D03*
%TO.N,CAL_PSource_L*%
X217900000Y-217275000D03*
%TO.N,GND*%
X169100000Y-211800000D03*
X156800000Y-211800000D03*
X158900000Y-195100000D03*
X159200000Y-192200000D03*
X171300000Y-192300000D03*
X171000000Y-195200000D03*
%TO.N,+12V*%
X163700000Y-199200000D03*
X151700000Y-199300000D03*
%TO.N,Net-(Q7-D)*%
X156880000Y-200200000D03*
%TO.N,Net-(Q8-D)*%
X169080000Y-200200000D03*
%TO.N,+12V*%
X196000000Y-210000000D03*
X197500000Y-212700000D03*
%TO.N,-15V*%
X258600000Y-179300000D03*
X221500000Y-180200000D03*
%TO.N,Net-(F2-Pad1)*%
X203100000Y-97200000D03*
X203000000Y-95800000D03*
%TO.N,+48V*%
X234300000Y-93600000D03*
%TO.N,Net-(Q2-D)*%
X178100000Y-209600000D03*
%TO.N,+12V*%
X153300000Y-99500000D03*
X149300000Y-118500000D03*
X179600000Y-201600000D03*
X235700000Y-209900000D03*
X149300000Y-117300000D03*
X185800000Y-228400000D03*
X150200000Y-202200000D03*
X177200000Y-204200000D03*
X220600000Y-204700000D03*
X153900000Y-101700000D03*
X156587500Y-111400000D03*
X147200000Y-121800000D03*
X228500000Y-225400000D03*
X162300000Y-202200000D03*
X153900000Y-108500000D03*
X154000000Y-109800000D03*
X216800000Y-204200000D03*
X152300000Y-99500000D03*
X225700000Y-226300000D03*
X188100000Y-226000000D03*
X237700000Y-212200000D03*
%TO.N,+4V_A*%
X248925000Y-155775000D03*
X247400000Y-151500000D03*
X248400000Y-166000000D03*
X220100000Y-172100000D03*
X251600000Y-153400000D03*
X250700000Y-165800000D03*
X246200000Y-151500000D03*
X246300000Y-158100000D03*
X173900000Y-172800000D03*
X251600000Y-158100000D03*
X245500000Y-166100000D03*
X251800000Y-168000000D03*
X251300000Y-170800000D03*
X246400000Y-153600000D03*
X219300000Y-172100000D03*
%TO.N,DAC_DIN*%
X122700000Y-207600000D03*
%TO.N,+15V*%
X243000000Y-186400000D03*
X251400000Y-199500000D03*
X200300000Y-190700000D03*
X201000000Y-186600000D03*
X241100000Y-186400000D03*
X203900000Y-189800000D03*
X244300000Y-189600000D03*
X250500000Y-195600000D03*
X203000000Y-186900000D03*
X240600000Y-190400000D03*
%TO.N,VCOMR*%
X214100000Y-174500000D03*
X217000000Y-175700000D03*
%TO.N,+48V*%
X211700000Y-96200000D03*
X218700000Y-98400000D03*
X231700000Y-86300000D03*
X211800000Y-97300000D03*
X177200000Y-110000000D03*
X176400000Y-109900000D03*
X172800000Y-109900000D03*
X173400000Y-134300000D03*
X178700000Y-112800000D03*
X170700000Y-108900000D03*
X178800000Y-137200000D03*
X177500000Y-134500000D03*
X172500000Y-134200000D03*
X223900000Y-81100000D03*
X178800000Y-112000000D03*
X212700000Y-99400000D03*
X217200000Y-98300000D03*
X178800000Y-136400000D03*
X231700000Y-87400000D03*
X224900000Y-81100000D03*
X176600000Y-134400000D03*
X170900000Y-133200000D03*
X207600000Y-102000000D03*
%TO.N,+15V*%
X248400000Y-139000000D03*
X199800000Y-115400000D03*
X201100000Y-115500000D03*
X196000000Y-112000000D03*
X248000000Y-138600000D03*
X193600000Y-113100000D03*
X248850000Y-139450000D03*
X192800000Y-115600000D03*
%TO.N,DAC_LRCK*%
X125500000Y-207100000D03*
%TO.N,+3.3V_DAC_A*%
X120100000Y-199400000D03*
X116300000Y-211100000D03*
X116900000Y-208100000D03*
X116200000Y-202900000D03*
X119100000Y-201900000D03*
X119600000Y-203500000D03*
%TO.N,+5V*%
X152200000Y-129000000D03*
X151900000Y-132700000D03*
X152400000Y-126500000D03*
X146500000Y-141100000D03*
X154262500Y-133800000D03*
X144200000Y-138900000D03*
X146600000Y-140000000D03*
X152100000Y-131800000D03*
%TO.N,VOCMR*%
X212900000Y-196000000D03*
X206100000Y-192200000D03*
%TO.N,Net-(Q5-D)*%
X218100000Y-209380000D03*
%TO.N,-15V*%
X235500000Y-191900000D03*
X236100000Y-187600000D03*
X235200000Y-189600000D03*
X195300000Y-192000000D03*
X194700000Y-189700000D03*
X196000000Y-187400000D03*
%TO.N,+3.3V*%
X123100000Y-201800000D03*
X153200000Y-159900000D03*
X175800000Y-156800000D03*
X176600000Y-158400000D03*
X151100000Y-166000000D03*
X153200000Y-166000000D03*
X126200000Y-202000000D03*
X150500000Y-158000000D03*
X178500000Y-158400000D03*
X153900000Y-170000000D03*
X201100000Y-152800000D03*
X123000000Y-203200000D03*
X152300000Y-156800000D03*
X219400000Y-158300000D03*
X177600000Y-155500000D03*
%TO.N,Net-(Q1-D)*%
X180220000Y-227300000D03*
%TO.N,Net-(Q6-D)*%
X242980000Y-211400000D03*
%TO.N,DAC_BCK*%
X125500000Y-208400000D03*
%TO.N,Net-(U2-XSMT)*%
X125600000Y-205900000D03*
%TO.N,-15V*%
X191900000Y-138700000D03*
X200600000Y-139200000D03*
X193500000Y-141400000D03*
X196000000Y-140400000D03*
X199600000Y-139200000D03*
%TO.N,Net-(Q3-D)*%
X202900000Y-211700000D03*
%TO.N,HPFDL*%
X226369364Y-166860879D03*
%TO.N,FS0*%
X226519022Y-166074999D03*
%TO.N,DF*%
X226422551Y-164535628D03*
%TO.N,DSDEN*%
X226035493Y-163835493D03*
%TO.N,MODEN*%
X225233184Y-163191913D03*
%TO.N,DSDMODE*%
X224000000Y-162800000D03*
%TO.N,SUB1*%
X222851773Y-160817050D03*
%TO.N,SUB0*%
X222091913Y-160566816D03*
%TO.N,OVFL*%
X213652983Y-162841051D03*
%TO.N,OVFR*%
X213400000Y-163600000D03*
%TO.N,S{slash}\u002AM*%
X213300000Y-164500000D03*
%TO.N,OWL1*%
X212600000Y-165500000D03*
%TO.N,OWL0*%
X212679817Y-166327779D03*
%TO.N,FMT1*%
X212895133Y-167098261D03*
%TO.N,VOCML*%
X245400000Y-192200000D03*
X253100000Y-196100000D03*
%TO.N,Net-(Q4-D)*%
X220220000Y-227300000D03*
%TO.N,GND*%
X145687500Y-114300000D03*
X181800000Y-159800000D03*
X250500000Y-210600000D03*
X143987500Y-101900000D03*
X178700000Y-215900000D03*
X127100000Y-199400000D03*
X122700000Y-206100000D03*
X176087500Y-103100000D03*
X114600000Y-199300000D03*
X173662500Y-136600000D03*
X167987500Y-102500000D03*
X176300000Y-128900000D03*
X252900000Y-193300000D03*
X173400000Y-142000000D03*
X173200000Y-222600000D03*
X143662500Y-131600000D03*
X217300000Y-108800000D03*
X143800000Y-108500000D03*
X119700000Y-205400000D03*
X155287500Y-104700000D03*
X146700000Y-132300000D03*
X210100000Y-115300000D03*
X155362500Y-129900000D03*
X203600000Y-141800000D03*
X210700000Y-210500000D03*
X252300000Y-206400000D03*
X259400000Y-168700000D03*
X117100000Y-197700000D03*
X117000000Y-200100000D03*
X173487500Y-119200000D03*
X203600000Y-112900000D03*
X161462500Y-127600000D03*
X256400000Y-93900000D03*
X208400000Y-188200000D03*
X259900000Y-156900000D03*
X176887500Y-104600000D03*
X224000000Y-95300000D03*
X218400000Y-108800000D03*
X175862500Y-126900000D03*
X173287500Y-112500000D03*
X124000000Y-199300000D03*
X179800000Y-214400000D03*
X170000000Y-166300000D03*
X259700000Y-198400000D03*
X247200000Y-190400000D03*
X219500000Y-198600000D03*
X182800000Y-167800000D03*
X157987500Y-104200000D03*
X210200000Y-129300000D03*
X213000000Y-193400000D03*
X177462500Y-128700000D03*
X162000000Y-109000000D03*
X166287500Y-108100000D03*
X212600000Y-223300000D03*
X209300000Y-115400000D03*
X259800000Y-167000000D03*
X255500000Y-97900000D03*
X156100000Y-161977500D03*
X143887500Y-110200000D03*
X207800000Y-210200000D03*
X123700000Y-210500000D03*
X114100000Y-207300000D03*
X143800000Y-100300000D03*
X193200000Y-120900000D03*
X127500000Y-205475000D03*
X181800000Y-155900000D03*
X122700000Y-204400000D03*
X207300000Y-190500000D03*
X215900000Y-222800000D03*
X194200000Y-133800000D03*
X219600000Y-190700000D03*
X119000000Y-210500000D03*
X128900000Y-199500000D03*
X211800000Y-108900000D03*
X176200000Y-223000000D03*
X146800000Y-127800000D03*
X112100000Y-214300000D03*
X172900000Y-166400000D03*
X168962500Y-126700000D03*
X168362500Y-128700000D03*
X248400000Y-187100000D03*
X162262500Y-133200000D03*
X125500000Y-209300000D03*
X212300000Y-206200000D03*
X146662500Y-130600000D03*
X248100000Y-162100000D03*
X232000000Y-190400000D03*
X257600000Y-93900000D03*
X148000000Y-164877500D03*
X117073192Y-209673192D03*
X146662500Y-126200000D03*
X173362500Y-143100000D03*
X255400000Y-99000000D03*
X218200000Y-175600000D03*
X168987500Y-104500000D03*
X244900000Y-161900000D03*
X220900000Y-175600000D03*
X193200000Y-133800000D03*
X230800000Y-187000000D03*
X209400000Y-129400000D03*
X152300000Y-154277500D03*
X219400000Y-214000000D03*
X173400000Y-111600000D03*
X253400000Y-149000000D03*
X224900000Y-95300000D03*
X113000000Y-210600000D03*
X247500000Y-210100000D03*
X173700000Y-137600000D03*
X173400000Y-118200000D03*
X194000000Y-120900000D03*
X132900000Y-204200000D03*
X156100000Y-156577500D03*
X218900000Y-216300000D03*
X259700000Y-190300000D03*
X166500000Y-132205000D03*
%TD*%
%TO.N,-15V*%
D89*
X214162500Y-202812500D02*
X214205000Y-202770000D01*
X214162500Y-205000000D02*
X214162500Y-202812500D01*
%TO.N,GND*%
X167900000Y-206400000D02*
X167000000Y-207300000D01*
X168500000Y-206400000D02*
X167900000Y-206400000D01*
X155600000Y-206400000D02*
X154800000Y-207200000D01*
X156300000Y-206400000D02*
X155600000Y-206400000D01*
X156300000Y-211300000D02*
X156300000Y-210800000D01*
X129900000Y-214000000D02*
X130200000Y-213700000D01*
X128962500Y-214000000D02*
X129900000Y-214000000D01*
%TO.N,Net-(C51-Pad2)*%
X251725000Y-185300000D02*
X251700000Y-185275000D01*
X254600000Y-185300000D02*
X251725000Y-185300000D01*
%TO.N,GND*%
X176262500Y-184962500D02*
X176100000Y-184800000D01*
X177237500Y-184962500D02*
X176262500Y-184962500D01*
X176637500Y-182062500D02*
X176100000Y-182600000D01*
X177237500Y-182062500D02*
X176637500Y-182062500D01*
X175662500Y-180837500D02*
X175200000Y-181300000D01*
X175662500Y-180167500D02*
X175662500Y-180837500D01*
X172075000Y-180225000D02*
X171400000Y-180900000D01*
X172437500Y-180225000D02*
X172075000Y-180225000D01*
X170675000Y-177525000D02*
X170300000Y-177900000D01*
X170675000Y-176562500D02*
X170675000Y-177525000D01*
%TO.N,+5V*%
X150100000Y-161800000D02*
X148800000Y-161800000D01*
X146400000Y-160700000D02*
X145700000Y-160000000D01*
X146400000Y-161472500D02*
X146400000Y-160700000D01*
%TO.N,ADC_LRCK*%
X134200000Y-204650000D02*
X134200000Y-204700000D01*
X134375000Y-204475000D02*
X134200000Y-204650000D01*
X144700000Y-150700000D02*
X134375000Y-161025000D01*
X207425413Y-152941529D02*
X205183884Y-150700000D01*
X134375000Y-161025000D02*
X134375000Y-204475000D01*
X205183884Y-150700000D02*
X144700000Y-150700000D01*
%TO.N,ADC_BCK*%
X135125000Y-205275000D02*
X134550000Y-205850000D01*
X135125000Y-161275000D02*
X135125000Y-205275000D01*
X145100000Y-151300000D02*
X135125000Y-161275000D01*
X206550000Y-152950000D02*
X204900000Y-151300000D01*
X204900000Y-151300000D02*
X145100000Y-151300000D01*
%TO.N,+3.3V*%
X201900000Y-152900000D02*
X201900000Y-153287500D01*
X201800000Y-152800000D02*
X201900000Y-152900000D01*
X201100000Y-152800000D02*
X201800000Y-152800000D01*
%TO.N,GND*%
X156090000Y-177890000D02*
X157100000Y-178900000D01*
X155812500Y-177890000D02*
X156090000Y-177890000D01*
%TO.N,+3.3V*%
X219350000Y-163850000D02*
X219350000Y-161829249D01*
X219300000Y-163900000D02*
X219350000Y-163850000D01*
%TO.N,FMT0*%
X216249999Y-166950001D02*
X215229249Y-166950001D01*
X216966241Y-166567820D02*
X216632180Y-166567820D01*
X216632180Y-166567820D02*
X216249999Y-166950001D01*
%TO.N,GND*%
X216450000Y-167450000D02*
X215229249Y-167450000D01*
X216562874Y-167337126D02*
X216450000Y-167450000D01*
X216746758Y-167337126D02*
X216562874Y-167337126D01*
%TO.N,PCMEN*%
X222050000Y-167450000D02*
X223970751Y-167450000D01*
X221400000Y-168100000D02*
X222050000Y-167450000D01*
%TO.N,FS1*%
X222850001Y-165449999D02*
X223970751Y-165449999D01*
X222400000Y-165900000D02*
X222850001Y-165449999D01*
%TO.N,GND*%
X211200000Y-170100000D02*
X211000000Y-170300000D01*
X211200000Y-168900000D02*
X211200000Y-170100000D01*
X212737500Y-171362500D02*
X212400000Y-171700000D01*
X212737500Y-170600000D02*
X212737500Y-171362500D01*
%TO.N,ADC_BCK*%
X215900000Y-152300000D02*
X214200000Y-150600000D01*
X214200000Y-150600000D02*
X213812500Y-150600000D01*
X215900000Y-157900000D02*
X215900000Y-152300000D01*
X218350000Y-160350000D02*
X215900000Y-157900000D01*
X218350000Y-161829249D02*
X218350000Y-160350000D01*
%TO.N,ADC_SCKI{slash}MCKI*%
X217349999Y-160886395D02*
X217349999Y-161829249D01*
X198400000Y-159900000D02*
X216363604Y-159900000D01*
X216363604Y-159900000D02*
X217349999Y-160886395D01*
X189184700Y-164760000D02*
X193540000Y-164760000D01*
X193540000Y-164760000D02*
X198400000Y-159900000D01*
%TO.N,Net-(C65-Pad2)*%
X198100000Y-166262500D02*
X199137500Y-167300000D01*
X198100000Y-163850000D02*
X198100000Y-166262500D01*
%TO.N,GND*%
X230800000Y-172000000D02*
X231900000Y-173100000D01*
X230800000Y-171975000D02*
X230800000Y-172000000D01*
X231750000Y-171975000D02*
X231925000Y-171800000D01*
X230800000Y-171975000D02*
X231750000Y-171975000D01*
X228062500Y-169837499D02*
X227696926Y-170203073D01*
X228062500Y-168900000D02*
X228062500Y-169837499D01*
X226800000Y-170600000D02*
X227400000Y-171200000D01*
X226462500Y-170600000D02*
X226800000Y-170600000D01*
X222650001Y-168450001D02*
X222600000Y-168400000D01*
X223970751Y-168450001D02*
X222650001Y-168450001D01*
X222350000Y-169538142D02*
X222124460Y-169312602D01*
X222350000Y-170570751D02*
X222350000Y-169538142D01*
X219850000Y-168950000D02*
X220100000Y-168700000D01*
X219850000Y-170570751D02*
X219850000Y-168950000D01*
X219350000Y-169150000D02*
X218900000Y-168700000D01*
X219350000Y-170570751D02*
X219350000Y-169150000D01*
X220560302Y-169294100D02*
X220800000Y-169294100D01*
X220350001Y-169504401D02*
X220560302Y-169294100D01*
X220350001Y-170570751D02*
X220350001Y-169504401D01*
X218639698Y-169294100D02*
X218400000Y-169294100D01*
X218849999Y-169504401D02*
X218639698Y-169294100D01*
X218849999Y-170570751D02*
X218849999Y-169504401D01*
X216850000Y-169550000D02*
X217200000Y-169200000D01*
X216850000Y-170570751D02*
X216850000Y-169550000D01*
X216549999Y-168450001D02*
X216700000Y-168300000D01*
X215229249Y-168450001D02*
X216549999Y-168450001D01*
X216450000Y-164950000D02*
X216700000Y-164700000D01*
X215229249Y-164950000D02*
X216450000Y-164950000D01*
X219850000Y-163050000D02*
X220200000Y-163400000D01*
X219850000Y-161829249D02*
X219850000Y-163050000D01*
X221662500Y-159337500D02*
X222700000Y-158300000D01*
X221662500Y-159500000D02*
X221662500Y-159337500D01*
%TO.N,+15V*%
X210800000Y-195600000D02*
X210500000Y-195900000D01*
X211700000Y-195600000D02*
X210800000Y-195600000D01*
X211665000Y-199135000D02*
X211300000Y-199500000D01*
X211665000Y-197830000D02*
X211665000Y-199135000D01*
%TO.N,GND*%
X191750000Y-188250000D02*
X191000000Y-189000000D01*
X191750000Y-187400000D02*
X191750000Y-188250000D01*
X192700000Y-190800000D02*
X191800000Y-191700000D01*
X192975000Y-190800000D02*
X192700000Y-190800000D01*
X207075000Y-171975000D02*
X206400000Y-171300000D01*
X208500000Y-171975000D02*
X207075000Y-171975000D01*
%TO.N,TEENSY_ADC_DATA*%
X212800000Y-149200000D02*
X212572500Y-149200000D01*
X212572500Y-149200000D02*
X212072500Y-149700000D01*
%TO.N,TEENSY_ADC_BCK*%
X210900000Y-150600000D02*
X210800000Y-150500000D01*
X212072500Y-150600000D02*
X210900000Y-150600000D01*
%TO.N,TEENSY_ADC_LRCK*%
X210900000Y-151400000D02*
X210800000Y-151300000D01*
X212072500Y-151400000D02*
X210900000Y-151400000D01*
%TO.N,+5V*%
D90*
X143000000Y-126800000D02*
X143000000Y-127400000D01*
X123900000Y-107100000D02*
X123900000Y-85700000D01*
X143000000Y-126700000D02*
X143000000Y-126800000D01*
X143000000Y-126700000D02*
X143000000Y-126200000D01*
X117800000Y-79600000D02*
X112940000Y-79600000D01*
X143000000Y-126200000D02*
X123900000Y-107100000D01*
X123900000Y-85700000D02*
X117800000Y-79600000D01*
X143000000Y-127400000D02*
X143000000Y-128000000D01*
%TO.N,+3.3V_DAC_A*%
D89*
X152400000Y-172700000D02*
X152800000Y-173100000D01*
X152400000Y-172700000D02*
X152000000Y-173100000D01*
X152400000Y-172005000D02*
X152400000Y-172700000D01*
X156502500Y-172302500D02*
X156900000Y-172700000D01*
X155800000Y-172302500D02*
X156502500Y-172302500D01*
%TO.N,ADC_LRCK*%
X215200000Y-153200000D02*
X215200000Y-152517754D01*
X217850001Y-160750001D02*
X217850001Y-161829249D01*
X215200000Y-158100000D02*
X217850001Y-160750001D01*
X215200000Y-152517754D02*
X214082246Y-151400000D01*
X215200000Y-153200000D02*
X215200000Y-158100000D01*
X214082246Y-151400000D02*
X213812500Y-151400000D01*
%TO.N,ADC_DATA*%
X214277499Y-149700000D02*
X213812500Y-149700000D01*
X216600000Y-157600000D02*
X216600000Y-152022501D01*
X218849999Y-159849999D02*
X216600000Y-157600000D01*
X216600000Y-152022501D02*
X214277499Y-149700000D01*
X218849999Y-161829249D02*
X218849999Y-159849999D01*
%TO.N,CAL_PSource_R*%
X180000000Y-217600000D02*
X180700000Y-216900000D01*
X180000000Y-217800000D02*
X180000000Y-217600000D01*
X151500000Y-208600000D02*
X151900000Y-209000000D01*
X150300000Y-208600000D02*
X151500000Y-208600000D01*
%TO.N,CAL_NSource_R*%
X157622250Y-208600000D02*
X158097250Y-209075000D01*
X156300000Y-208600000D02*
X157622250Y-208600000D01*
%TO.N,CAL_NSource_L*%
X169500000Y-209600000D02*
X168500000Y-208600000D01*
X170300000Y-209600000D02*
X169500000Y-209600000D01*
%TO.N,CAL_PSource_L*%
X163900000Y-209500000D02*
X163400000Y-209500000D01*
X163400000Y-209500000D02*
X162500000Y-208600000D01*
%TO.N,CAL_NSource_R*%
X186400000Y-217200000D02*
X186700000Y-216900000D01*
X184900000Y-217200000D02*
X186400000Y-217200000D01*
%TO.N,CAL_NSource_L*%
X226800000Y-216000000D02*
X226500000Y-215700000D01*
X226800000Y-216800000D02*
X226800000Y-216000000D01*
%TO.N,CAL_PSource_L*%
X220325000Y-217275000D02*
X217900000Y-217275000D01*
X220800000Y-216800000D02*
X220325000Y-217275000D01*
%TO.N,OUTL*%
X159300000Y-210800000D02*
X162500000Y-210800000D01*
X148020000Y-209700000D02*
X158200000Y-209700000D01*
X158200000Y-209700000D02*
X159300000Y-210800000D01*
X141300000Y-216420000D02*
X148020000Y-209700000D01*
%TO.N,DC_REF_2V5*%
X164300000Y-206400000D02*
X162500000Y-206400000D01*
X171700000Y-204800000D02*
X165900000Y-204800000D01*
X175100000Y-201400000D02*
X171700000Y-204800000D01*
X175100000Y-193625000D02*
X175100000Y-201400000D01*
X179037500Y-189687500D02*
X175100000Y-193625000D01*
X165900000Y-204800000D02*
X164300000Y-206400000D01*
X151900000Y-204800000D02*
X150300000Y-206400000D01*
X159300000Y-204800000D02*
X151900000Y-204800000D01*
X160900000Y-206400000D02*
X159300000Y-204800000D01*
X162500000Y-206400000D02*
X160900000Y-206400000D01*
%TO.N,GND*%
X168500000Y-211200000D02*
X169100000Y-211800000D01*
X168500000Y-210800000D02*
X168500000Y-211200000D01*
X156300000Y-211300000D02*
X156800000Y-211800000D01*
%TO.N,OUTR*%
X145500000Y-218700000D02*
X150300000Y-213900000D01*
X112300000Y-218700000D02*
X145500000Y-218700000D01*
X150300000Y-213900000D02*
X150300000Y-210800000D01*
X103580000Y-218700000D02*
X112300000Y-218700000D01*
%TO.N,Net-(Q7-D)*%
X156300000Y-200780000D02*
X156880000Y-200200000D01*
X156300000Y-203200000D02*
X156300000Y-200780000D01*
%TO.N,Net-(Q8-D)*%
X168500000Y-200780000D02*
X169080000Y-200200000D01*
X168500000Y-203200000D02*
X168500000Y-200780000D01*
%TO.N,+12V*%
X196400000Y-209600000D02*
X196000000Y-210000000D01*
X196400000Y-208800000D02*
X196400000Y-209600000D01*
%TO.N,-15V*%
X254300000Y-202780000D02*
X254340000Y-202740000D01*
X254300000Y-205000000D02*
X254300000Y-202780000D01*
X261000000Y-200300000D02*
X261000000Y-180800000D01*
X259500000Y-179300000D02*
X258600000Y-179300000D01*
X258560000Y-202740000D02*
X261000000Y-200300000D01*
X261000000Y-180800000D02*
X259500000Y-179300000D01*
X254340000Y-202740000D02*
X258560000Y-202740000D01*
X221500000Y-198800000D02*
X221500000Y-180200000D01*
X217530000Y-202770000D02*
X221500000Y-198800000D01*
X214205000Y-202770000D02*
X217530000Y-202770000D01*
%TO.N,+15V*%
X251800000Y-197800000D02*
X251800000Y-195562500D01*
%TO.N,Net-(F2-Pad1)*%
D90*
X203800000Y-96500000D02*
X203100000Y-97200000D01*
X204900899Y-96500000D02*
X203800000Y-96500000D01*
X203700000Y-96500000D02*
X203000000Y-95800000D01*
X204900899Y-96500000D02*
X203700000Y-96500000D01*
%TO.N,+48V*%
X211000000Y-96500000D02*
X211800000Y-97300000D01*
X210099101Y-96500000D02*
X211000000Y-96500000D01*
X210099101Y-96500000D02*
X211400000Y-96500000D01*
X211400000Y-96500000D02*
X211700000Y-96200000D01*
D89*
X234700000Y-94000000D02*
X234300000Y-93600000D01*
X235500000Y-94000000D02*
X234700000Y-94000000D01*
%TO.N,Net-(Q2-D)*%
X180900000Y-208997500D02*
X178702500Y-208997500D01*
X178702500Y-208997500D02*
X178100000Y-209600000D01*
%TO.N,Net-(K5-Pad2)*%
X184100000Y-211212500D02*
X185287500Y-212400000D01*
X184100000Y-208997500D02*
X184100000Y-211212500D01*
%TO.N,INPUT_N_R*%
X184300000Y-214600000D02*
X182700000Y-213000000D01*
X201488250Y-221502500D02*
X201488250Y-218962500D01*
X185400000Y-206800000D02*
X186300000Y-207700000D01*
X182700000Y-213000000D02*
X182700000Y-207900000D01*
X182700000Y-207900000D02*
X183800000Y-206800000D01*
X191328250Y-221502500D02*
X201488250Y-221502500D01*
X191328250Y-221502500D02*
X189102500Y-221502500D01*
X189102500Y-221502500D02*
X186700000Y-219100000D01*
X201488250Y-218962500D02*
X198948250Y-216422500D01*
X197125750Y-214600000D02*
X184300000Y-214600000D01*
X183800000Y-206800000D02*
X185400000Y-206800000D01*
X186300000Y-207700000D02*
X186300000Y-208997500D01*
X198948250Y-216422500D02*
X197125750Y-214600000D01*
%TO.N,Net-(K5-Pad4)*%
X201000000Y-203400000D02*
X202400000Y-203400000D01*
X188500000Y-208997500D02*
X189797500Y-207700000D01*
X198700000Y-207700000D02*
X200300000Y-206100000D01*
X189797500Y-207700000D02*
X198700000Y-207700000D01*
X188500000Y-211012500D02*
X187112500Y-212400000D01*
X200300000Y-204100000D02*
X201000000Y-203400000D01*
X200300000Y-206100000D02*
X200300000Y-204100000D01*
X188500000Y-208997500D02*
X188500000Y-211012500D01*
%TO.N,Net-(K5-Pad5)*%
X198400000Y-203400000D02*
X196400000Y-203400000D01*
X199000000Y-204000000D02*
X198400000Y-203400000D01*
X192302500Y-206800000D02*
X198100000Y-206800000D01*
X199000000Y-205900000D02*
X199000000Y-204000000D01*
X198100000Y-206800000D02*
X199000000Y-205900000D01*
X188500000Y-202997500D02*
X192302500Y-206800000D01*
X188500000Y-200975000D02*
X187225000Y-199700000D01*
X188500000Y-202997500D02*
X188500000Y-200975000D01*
%TO.N,INPUT_P_R*%
X182000000Y-207300000D02*
X182000000Y-216100000D01*
X182800000Y-219100000D02*
X180700000Y-219100000D01*
X182000000Y-216100000D02*
X183900000Y-218000000D01*
X183900000Y-218000000D02*
X182800000Y-219100000D01*
X196408250Y-216422500D02*
X194830750Y-218000000D01*
X194830750Y-218000000D02*
X183900000Y-218000000D01*
X186300000Y-202997500D02*
X186300000Y-203000000D01*
X186300000Y-203000000D02*
X182000000Y-207300000D01*
%TO.N,Net-(K5-Pad7)*%
X184100000Y-201000000D02*
X185400000Y-199700000D01*
X184100000Y-202997500D02*
X184100000Y-201000000D01*
%TO.N,+12V*%
D90*
X151077501Y-117900000D02*
X149900000Y-117900000D01*
D89*
X186700000Y-224500000D02*
X186700000Y-224600000D01*
X236470000Y-208600000D02*
X236470000Y-209130000D01*
D90*
X153300000Y-109100000D02*
X153900000Y-108500000D01*
D89*
X150300000Y-203200000D02*
X150300000Y-202300000D01*
D90*
X151487500Y-100700000D02*
X152100000Y-100700000D01*
D89*
X146787500Y-121387500D02*
X147200000Y-121800000D01*
X162502500Y-202402500D02*
X162300000Y-202200000D01*
D90*
X154575000Y-100700000D02*
X154575000Y-101025000D01*
D89*
X227500000Y-224400000D02*
X228500000Y-225400000D01*
D90*
X151487500Y-109100000D02*
X153300000Y-109100000D01*
D89*
X221000000Y-202800000D02*
X221000000Y-204300000D01*
X162502500Y-203200000D02*
X162502500Y-202402500D01*
D90*
X149900000Y-117900000D02*
X149300000Y-118500000D01*
D89*
X221000000Y-204300000D02*
X220600000Y-204700000D01*
X180900000Y-202997500D02*
X180900000Y-202900000D01*
X236470000Y-209130000D02*
X235700000Y-209900000D01*
X180900000Y-202900000D02*
X179600000Y-201600000D01*
D90*
X151487500Y-100700000D02*
X151487500Y-100312500D01*
D89*
X186700000Y-224600000D02*
X188100000Y-226000000D01*
D90*
X152100000Y-100700000D02*
X153300000Y-99500000D01*
D89*
X150300000Y-202300000D02*
X150200000Y-202200000D01*
D90*
X149900000Y-117900000D02*
X149300000Y-117300000D01*
D89*
X146787500Y-120662500D02*
X146787500Y-121387500D01*
D90*
X153300000Y-109100000D02*
X154000000Y-109800000D01*
X151487500Y-100312500D02*
X152300000Y-99500000D01*
X154575000Y-101025000D02*
X153900000Y-101700000D01*
D89*
X226800000Y-224400000D02*
X227500000Y-224400000D01*
%TO.N,Net-(C34-Pad2)*%
X184200000Y-185337500D02*
X187050000Y-185337500D01*
X192000000Y-181200000D02*
X192100000Y-181200000D01*
X187812500Y-185387500D02*
X192000000Y-181200000D01*
X197000000Y-182987500D02*
X197000000Y-181200000D01*
X192100000Y-181200000D02*
X193887500Y-182987500D01*
X187050000Y-185337500D02*
X187100000Y-185387500D01*
X193887500Y-182987500D02*
X197000000Y-182987500D01*
X187100000Y-185387500D02*
X187812500Y-185387500D01*
%TO.N,Net-(U4-VIN-)*%
X210200000Y-191162500D02*
X211700000Y-189662500D01*
X202900000Y-196475000D02*
X202900000Y-194360000D01*
X211825000Y-187125000D02*
X211875000Y-187075000D01*
X202900000Y-194360000D02*
X201940000Y-193400000D01*
X201940000Y-193400000D02*
X207962500Y-193400000D01*
X211700000Y-189662500D02*
X211700000Y-187125000D01*
X211700000Y-187125000D02*
X211825000Y-187125000D01*
X211875000Y-187075000D02*
X214600000Y-187075000D01*
X207962500Y-193400000D02*
X210200000Y-191162500D01*
%TO.N,Net-(U4-VOUT+)*%
X210200000Y-189437500D02*
X210200000Y-188629900D01*
X201940000Y-189590000D02*
X201940000Y-184872500D01*
X201940000Y-184872500D02*
X202000000Y-184812500D01*
X210200000Y-188629900D02*
X206382600Y-184812500D01*
X206382600Y-184812500D02*
X202000000Y-184812500D01*
%TO.N,Net-(C51-Pad2)*%
X242100000Y-182887500D02*
X242100000Y-181112500D01*
X251275000Y-185275000D02*
X247100000Y-181100000D01*
X251700000Y-185275000D02*
X251275000Y-185275000D01*
X247100000Y-181100000D02*
X245312500Y-182887500D01*
X245312500Y-182887500D02*
X242100000Y-182887500D01*
%TO.N,+VIN_L*%
X242100000Y-178800000D02*
X242100000Y-179287500D01*
X221850001Y-172387501D02*
X225562500Y-176100000D01*
X221850001Y-170570751D02*
X221850001Y-172387501D01*
X225562500Y-176100000D02*
X239400000Y-176100000D01*
X239400000Y-176100000D02*
X242100000Y-178800000D01*
%TO.N,+4V_A*%
X249275000Y-155775000D02*
X251600000Y-158100000D01*
D91*
X248925000Y-155775000D02*
X249227500Y-155775000D01*
D89*
X244725000Y-165010000D02*
X244725000Y-165325000D01*
X246925000Y-150775000D02*
X246200000Y-151500000D01*
X244725000Y-165325000D02*
X245500000Y-166100000D01*
X220850000Y-172387500D02*
X220400000Y-172837500D01*
D90*
X252800000Y-166122500D02*
X252800000Y-168825000D01*
D89*
X218350000Y-172387500D02*
X218800000Y-172837500D01*
X172427500Y-173162500D02*
X173537500Y-173162500D01*
D91*
X254000000Y-160547500D02*
X254000000Y-161572500D01*
D90*
X248187500Y-164447500D02*
X247625000Y-165010000D01*
D89*
X251125000Y-165375000D02*
X250700000Y-165800000D01*
X248625000Y-155775000D02*
X246300000Y-158100000D01*
X246925000Y-149947500D02*
X246925000Y-150775000D01*
X246925000Y-151025000D02*
X247400000Y-151500000D01*
X248925000Y-155775000D02*
X248575000Y-155775000D01*
X251200000Y-153400000D02*
X251600000Y-153400000D01*
X250700000Y-170200000D02*
X251300000Y-170800000D01*
X248925000Y-155775000D02*
X249275000Y-155775000D01*
X247625000Y-165225000D02*
X248400000Y-166000000D01*
D90*
X251125000Y-164447500D02*
X252800000Y-166122500D01*
D89*
X248575000Y-155775000D02*
X246400000Y-153600000D01*
D90*
X247625000Y-165010000D02*
X244725000Y-165010000D01*
D89*
X248925000Y-155775000D02*
X248625000Y-155775000D01*
X220850000Y-170570751D02*
X220850000Y-172387500D01*
D90*
X252800000Y-168825000D02*
X252725000Y-168900000D01*
D89*
X246925000Y-149947500D02*
X246925000Y-151025000D01*
D90*
X251100000Y-168900000D02*
X249800000Y-170200000D01*
D89*
X173537500Y-173162500D02*
X173900000Y-172800000D01*
X249800000Y-170200000D02*
X250700000Y-170200000D01*
X251125000Y-164447500D02*
X251125000Y-165375000D01*
D90*
X218800000Y-172837500D02*
X218800000Y-172600000D01*
X220400000Y-172837500D02*
X220400000Y-172400000D01*
D91*
X246925000Y-149947500D02*
X246925000Y-153775000D01*
D90*
X252725000Y-168900000D02*
X251100000Y-168900000D01*
D89*
X218350000Y-170570751D02*
X218350000Y-172387500D01*
X247625000Y-165010000D02*
X247625000Y-165225000D01*
D91*
X249227500Y-155775000D02*
X254000000Y-160547500D01*
D89*
X248925000Y-155775000D02*
X248925000Y-155675000D01*
D91*
X246925000Y-153775000D02*
X248925000Y-155775000D01*
D89*
X252725000Y-168900000D02*
X252700000Y-168900000D01*
X252700000Y-168900000D02*
X251800000Y-168000000D01*
D90*
X251125000Y-164447500D02*
X248187500Y-164447500D01*
X218800000Y-172600000D02*
X219300000Y-172100000D01*
D89*
X248925000Y-155675000D02*
X251200000Y-153400000D01*
D90*
X220400000Y-172400000D02*
X220100000Y-172100000D01*
D91*
X254000000Y-161572500D02*
X251125000Y-164447500D01*
%TO.N,Net-(K8-Pad7)*%
D89*
X234487500Y-205400000D02*
X233200000Y-204112500D01*
X236470000Y-205400000D02*
X234487500Y-205400000D01*
%TO.N,Net-(K8-Pad5)*%
X236470000Y-198712500D02*
X235970000Y-198212500D01*
X234487500Y-201000000D02*
X233200000Y-202287500D01*
X236470000Y-201000000D02*
X234487500Y-201000000D01*
X236470000Y-201000000D02*
X236470000Y-198712500D01*
%TO.N,Net-(U2-OUTL)*%
X123187500Y-212187500D02*
X124400000Y-212187500D01*
X118337500Y-207025000D02*
X120125000Y-207025000D01*
X122200000Y-211200000D02*
X123187500Y-212187500D01*
X122200000Y-209100000D02*
X122200000Y-211200000D01*
X120125000Y-207025000D02*
X122200000Y-209100000D01*
%TO.N,OUTL*%
X137580000Y-212700000D02*
X128100000Y-212700000D01*
X127225000Y-214012500D02*
X127237500Y-214000000D01*
X124400000Y-214012500D02*
X127225000Y-214012500D01*
X127237500Y-213562500D02*
X127237500Y-214000000D01*
X141300000Y-216420000D02*
X137580000Y-212700000D01*
X128100000Y-212700000D02*
X127237500Y-213562500D01*
%TO.N,Net-(K6-Pad7)*%
X196400000Y-205600000D02*
X194387500Y-205600000D01*
X194387500Y-205600000D02*
X193100000Y-204312500D01*
%TO.N,Net-(K6-Pad5)*%
X196400000Y-201200000D02*
X196400000Y-198812500D01*
X196400000Y-198812500D02*
X195900000Y-198312500D01*
X196400000Y-201200000D02*
X194387500Y-201200000D01*
X194387500Y-201200000D02*
X193100000Y-202487500D01*
%TO.N,Net-(K6-Pad2)*%
X202400000Y-205600000D02*
X204612500Y-205600000D01*
X204612500Y-205600000D02*
X205900000Y-204312500D01*
%TO.N,Net-(K6-Pad4)*%
X202400000Y-198800000D02*
X202900000Y-198300000D01*
X204612500Y-201200000D02*
X205900000Y-202487500D01*
X202400000Y-201200000D02*
X204612500Y-201200000D01*
X202400000Y-201200000D02*
X202400000Y-198800000D01*
%TO.N,Net-(U4-VIN+)*%
X195900000Y-196487500D02*
X195900000Y-194500000D01*
X187100000Y-189662500D02*
X187100000Y-187212500D01*
X195900000Y-194500000D02*
X197000000Y-193400000D01*
X187100000Y-187212500D02*
X184350000Y-187212500D01*
X190837500Y-193400000D02*
X188600000Y-191162500D01*
X184350000Y-187212500D02*
X184200000Y-187062500D01*
X188600000Y-191162500D02*
X187100000Y-189662500D01*
X197000000Y-193400000D02*
X190837500Y-193400000D01*
%TO.N,Net-(U4-VOUT-)*%
X188600000Y-188754900D02*
X192542400Y-184812500D01*
X197000000Y-189590000D02*
X197000000Y-184812500D01*
X188600000Y-189437500D02*
X188600000Y-188754900D01*
X192542400Y-184812500D02*
X197000000Y-184812500D01*
%TO.N,Net-(U8-FB)*%
D90*
X165675000Y-103985552D02*
X163465552Y-106195000D01*
X156400000Y-100700000D02*
X162775000Y-100700000D01*
X162775000Y-100700000D02*
X165675000Y-103600000D01*
X165675000Y-103600000D02*
X165675000Y-103985552D01*
%TO.N,Net-(K8-Pad4)*%
D89*
X242470000Y-198712500D02*
X242970000Y-198212500D01*
X242470000Y-201000000D02*
X242470000Y-198712500D01*
X242470000Y-201000000D02*
X244512500Y-201000000D01*
X244512500Y-201000000D02*
X245800000Y-202287500D01*
%TO.N,Net-(U7-VIN-)*%
X242970000Y-194235000D02*
X242040000Y-193305000D01*
X251700000Y-189662500D02*
X251700000Y-187100000D01*
X242040000Y-193305000D02*
X248057500Y-193305000D01*
X250300000Y-191062500D02*
X251700000Y-189662500D01*
X254525000Y-187100000D02*
X254600000Y-187025000D01*
X242970000Y-196387500D02*
X242970000Y-194235000D01*
X248057500Y-193305000D02*
X250300000Y-191062500D01*
X251700000Y-187100000D02*
X254525000Y-187100000D01*
%TO.N,DAC_DIN*%
X122700000Y-207600000D02*
X122800000Y-207700000D01*
X124037500Y-207700000D02*
X124062500Y-207675000D01*
X122800000Y-207700000D02*
X124037500Y-207700000D01*
%TO.N,Net-(C36-Pad2)*%
X207000000Y-181200000D02*
X205212500Y-182987500D01*
X211750000Y-185350000D02*
X211700000Y-185300000D01*
X211100000Y-185300000D02*
X207000000Y-181200000D01*
X211700000Y-185300000D02*
X211100000Y-185300000D01*
X205212500Y-182987500D02*
X202000000Y-182987500D01*
X202000000Y-182987500D02*
X202000000Y-181212500D01*
X214600000Y-185350000D02*
X211750000Y-185350000D01*
%TO.N,Net-(D9-K)*%
X254475000Y-168900000D02*
X256287500Y-168900000D01*
%TO.N,Net-(U12-VOUT)*%
X178962500Y-182062500D02*
X178962500Y-184962500D01*
X179627501Y-178897500D02*
X178962500Y-179562501D01*
X178962500Y-184962500D02*
X178962500Y-187787500D01*
X178962500Y-179562501D02*
X178962500Y-182062500D01*
X178962500Y-187787500D02*
X179037500Y-187862500D01*
%TO.N,+15V*%
X204237500Y-190800000D02*
X204237500Y-190137500D01*
X251800000Y-195562500D02*
X250537500Y-195562500D01*
X240965000Y-190765000D02*
X240600000Y-190400000D01*
X251800000Y-197800000D02*
X251800000Y-199100000D01*
X204225000Y-187400000D02*
X203500000Y-187400000D01*
X204237500Y-190137500D02*
X203900000Y-189800000D01*
X240582500Y-186917500D02*
X241100000Y-186400000D01*
X244307500Y-189607500D02*
X244300000Y-189600000D01*
X200325000Y-187700000D02*
X200325000Y-187275000D01*
X200325000Y-187275000D02*
X201000000Y-186600000D01*
X242040000Y-190765000D02*
X240965000Y-190765000D01*
X244225000Y-187300000D02*
X243900000Y-187300000D01*
X200460000Y-190860000D02*
X200300000Y-190700000D01*
X240582500Y-187600000D02*
X240582500Y-186917500D01*
X244307500Y-190700000D02*
X244307500Y-189607500D01*
X243900000Y-187300000D02*
X243000000Y-186400000D01*
X250537500Y-195562500D02*
X250500000Y-195600000D01*
X251800000Y-199100000D02*
X251400000Y-199500000D01*
X203500000Y-187400000D02*
X203000000Y-186900000D01*
X201940000Y-190860000D02*
X200460000Y-190860000D01*
%TO.N,VCOMR*%
X216637500Y-191200000D02*
X216637500Y-176062500D01*
X216600000Y-193987500D02*
X216600000Y-191237500D01*
X214462500Y-170600000D02*
X214462500Y-169716749D01*
X214100000Y-174500000D02*
X214100000Y-173500000D01*
X214100000Y-173500000D02*
X214462500Y-173137500D01*
X216600000Y-191237500D02*
X216637500Y-191200000D01*
X214462500Y-169716749D02*
X215229249Y-168950000D01*
X216637500Y-176062500D02*
X217000000Y-175700000D01*
X214462500Y-173137500D02*
X214462500Y-170600000D01*
%TO.N,Net-(U11-BOOT)*%
D90*
X169268896Y-135218604D02*
X167187500Y-137300000D01*
X169268896Y-134110000D02*
X169268896Y-135218604D01*
%TO.N,Net-(D5-K)*%
D91*
X165462500Y-137300000D02*
X165462500Y-139162500D01*
X163625000Y-135462500D02*
X165462500Y-137300000D01*
X159325000Y-142800000D02*
X157325000Y-140800000D01*
X163625000Y-134110000D02*
X163625000Y-135462500D01*
X165462500Y-139162500D02*
X161825000Y-142800000D01*
X161825000Y-142800000D02*
X159325000Y-142800000D01*
%TO.N,+48V*%
D89*
X173025000Y-133100000D02*
X173025000Y-133675000D01*
X176925000Y-134075000D02*
X176600000Y-134400000D01*
X176925000Y-133162500D02*
X176925000Y-134075000D01*
X173025000Y-133675000D02*
X173025000Y-133925000D01*
X177675000Y-136700000D02*
X178300000Y-136700000D01*
X176787500Y-109587500D02*
X177200000Y-110000000D01*
D90*
X217690000Y-100325000D02*
X218000000Y-100015000D01*
D89*
X218000000Y-99100000D02*
X217200000Y-98300000D01*
D90*
X224500000Y-83800000D02*
X224500000Y-81700000D01*
X233390001Y-87000000D02*
X232400000Y-87000000D01*
D89*
X169109448Y-108735000D02*
X170535000Y-108735000D01*
X176925000Y-133925000D02*
X177500000Y-134500000D01*
D90*
X232400000Y-87000000D02*
X231700000Y-86300000D01*
D89*
X212000000Y-100100000D02*
X212700000Y-99400000D01*
D90*
X224500000Y-83800000D02*
X224500000Y-81500000D01*
D89*
X177562500Y-112300000D02*
X178500000Y-112300000D01*
X218000000Y-100015000D02*
X218000000Y-99100000D01*
X212000000Y-100325000D02*
X212000000Y-100100000D01*
X178200000Y-112300000D02*
X178700000Y-112800000D01*
X178500000Y-112300000D02*
X178800000Y-112000000D01*
X176787500Y-108875000D02*
X176787500Y-109512500D01*
D90*
X224500000Y-81500000D02*
X224900000Y-81100000D01*
D89*
X178300000Y-136700000D02*
X178800000Y-137200000D01*
X170535000Y-108735000D02*
X170700000Y-108900000D01*
X176787500Y-109512500D02*
X176400000Y-109900000D01*
D90*
X232100000Y-87000000D02*
X231700000Y-87400000D01*
D89*
X170540000Y-132840000D02*
X170900000Y-133200000D01*
D90*
X224500000Y-81700000D02*
X223900000Y-81100000D01*
D89*
X218000000Y-99100000D02*
X218700000Y-98400000D01*
X173025000Y-133675000D02*
X172500000Y-134200000D01*
X172787500Y-109887500D02*
X172800000Y-109900000D01*
X177675000Y-136700000D02*
X178500000Y-136700000D01*
X176925000Y-133162500D02*
X176925000Y-133925000D01*
X173025000Y-133925000D02*
X173400000Y-134300000D01*
X169268896Y-132840000D02*
X170540000Y-132840000D01*
X176787500Y-108875000D02*
X176787500Y-109587500D01*
X178500000Y-136700000D02*
X178800000Y-136400000D01*
X172787500Y-108800000D02*
X172787500Y-109887500D01*
X177562500Y-112300000D02*
X178200000Y-112300000D01*
D90*
X233390001Y-87000000D02*
X232100000Y-87000000D01*
%TO.N,\u002ARST*%
D89*
X200800000Y-167362500D02*
X200862500Y-167300000D01*
X204620751Y-161829249D02*
X216850000Y-161829249D01*
X202600000Y-163850000D02*
X204620751Y-161829249D01*
X200862500Y-165587500D02*
X202600000Y-163850000D01*
X200862500Y-167300000D02*
X200862500Y-165587500D01*
X200800000Y-171900000D02*
X200800000Y-167362500D01*
%TO.N,Net-(R63-Pad2)*%
X201900000Y-155112500D02*
X201900000Y-156650000D01*
X201900000Y-156650000D02*
X202600000Y-157350000D01*
%TO.N,Net-(U13-+Vout)*%
D91*
X231400000Y-117500000D02*
X215500000Y-117500000D01*
X209800000Y-123200000D02*
X200609999Y-123200000D01*
X215500000Y-117500000D02*
X209800000Y-123200000D01*
X200609999Y-123200000D02*
X200300000Y-123509999D01*
%TO.N,Net-(K7-Pad7)*%
D89*
X224200000Y-200887500D02*
X225587500Y-199500000D01*
X224200000Y-202800000D02*
X224200000Y-200887500D01*
%TO.N,Net-(K7-Pad5)*%
X238700000Y-203600000D02*
X238300000Y-203200000D01*
X238700000Y-205700000D02*
X238700000Y-203600000D01*
X232400000Y-206600000D02*
X237800000Y-206600000D01*
X238300000Y-203200000D02*
X236470000Y-203200000D01*
X228600000Y-200687500D02*
X227412500Y-199500000D01*
X228600000Y-202800000D02*
X228600000Y-200687500D01*
X237800000Y-206600000D02*
X238700000Y-205700000D01*
X228600000Y-202800000D02*
X232400000Y-206600000D01*
%TO.N,Net-(D2-A)*%
D90*
X255225000Y-158055000D02*
X257382500Y-158055000D01*
X255825000Y-160547500D02*
X256312500Y-160547500D01*
X256312500Y-160547500D02*
X257812500Y-162047500D01*
X255225000Y-159947500D02*
X255825000Y-160547500D01*
X257382500Y-158055000D02*
X257675000Y-158347500D01*
X255412500Y-164447500D02*
X257812500Y-162047500D01*
X255125000Y-164447500D02*
X255412500Y-164447500D01*
X255225000Y-158055000D02*
X255225000Y-159947500D01*
%TO.N,Net-(R75-Pad2)*%
X259625000Y-163835000D02*
X259625000Y-162060000D01*
X259625000Y-162060000D02*
X259637500Y-162047500D01*
%TO.N,+15V*%
X200300000Y-115900000D02*
X199800000Y-115400000D01*
X255225000Y-150610000D02*
X255787500Y-150047500D01*
X193600000Y-116400000D02*
X192800000Y-115600000D01*
D91*
X248850000Y-139450000D02*
X248400000Y-139000000D01*
D90*
X200300000Y-117290001D02*
X200300000Y-116300000D01*
X193600000Y-116825000D02*
X193600000Y-116400000D01*
D89*
X196825000Y-113100000D02*
X196825000Y-112825000D01*
D90*
X200300000Y-117290001D02*
X200300000Y-115900000D01*
D92*
X250925000Y-149947500D02*
X251677500Y-149947500D01*
D91*
X248400000Y-139000000D02*
X248000000Y-138600000D01*
D92*
X251677500Y-149947500D02*
X255225000Y-153495000D01*
D90*
X255225000Y-153495000D02*
X255225000Y-150610000D01*
D89*
X196825000Y-112825000D02*
X196000000Y-112000000D01*
D91*
X248850000Y-139450000D02*
X250925000Y-141525000D01*
X250925000Y-141525000D02*
X250925000Y-149947500D01*
D90*
X200300000Y-116300000D02*
X201100000Y-115500000D01*
%TO.N,DAC_LRCK*%
D89*
X124062500Y-207025000D02*
X125425000Y-207025000D01*
X125425000Y-207025000D02*
X125500000Y-207100000D01*
%TO.N,+3.3V_DAC_A*%
X118012500Y-202250000D02*
X118100000Y-202162500D01*
X118337500Y-203775000D02*
X119325000Y-203775000D01*
X115862500Y-210662500D02*
X116300000Y-211100000D01*
X118837500Y-202162500D02*
X119100000Y-201900000D01*
X118337500Y-208325000D02*
X117125000Y-208325000D01*
X120050000Y-199350000D02*
X120100000Y-199400000D01*
X120050000Y-198200000D02*
X120050000Y-199350000D01*
X118100000Y-202162500D02*
X118837500Y-202162500D01*
X119325000Y-203775000D02*
X119600000Y-203500000D01*
X115000000Y-202250000D02*
X115550000Y-202250000D01*
X117125000Y-208325000D02*
X116900000Y-208100000D01*
X115862500Y-210000000D02*
X115862500Y-210662500D01*
X115550000Y-202250000D02*
X116200000Y-202900000D01*
%TO.N,+5V*%
D90*
X148325000Y-140800000D02*
X146800000Y-140800000D01*
D89*
X144762500Y-138337500D02*
X144200000Y-138900000D01*
X152712500Y-127600000D02*
X152712500Y-126812500D01*
X144762500Y-137775000D02*
X144762500Y-138337500D01*
D90*
X148325000Y-140800000D02*
X147400000Y-140800000D01*
D89*
X151700000Y-132200000D02*
X152100000Y-131800000D01*
X150900000Y-132200000D02*
X151700000Y-132200000D01*
X150900000Y-127700000D02*
X152200000Y-129000000D01*
X152712500Y-126812500D02*
X152400000Y-126500000D01*
X150900000Y-132200000D02*
X151400000Y-132200000D01*
D90*
X147400000Y-140800000D02*
X146600000Y-140000000D01*
D89*
X151400000Y-132200000D02*
X151900000Y-132700000D01*
X150900000Y-127600000D02*
X150900000Y-127700000D01*
D90*
X146800000Y-140800000D02*
X146500000Y-141100000D01*
D89*
X152712500Y-127600000D02*
X150900000Y-127600000D01*
%TO.N,VOCMR*%
X212900000Y-196000000D02*
X212900000Y-197795000D01*
X211665000Y-202770000D02*
X211665000Y-201785001D01*
X206100000Y-192200000D02*
X206030000Y-192130000D01*
X212900000Y-197795000D02*
X212935000Y-197830000D01*
X211665000Y-201785001D02*
X212935000Y-200515001D01*
X212935000Y-200515001D02*
X212935000Y-197830000D01*
X211665000Y-203574340D02*
X211665000Y-202770000D01*
X209700000Y-206600000D02*
X209700000Y-205539340D01*
X209700000Y-205539340D02*
X211665000Y-203574340D01*
X206030000Y-192130000D02*
X201940000Y-192130000D01*
%TO.N,Net-(Q5-D)*%
X218680000Y-208800000D02*
X218100000Y-209380000D01*
X221000000Y-208800000D02*
X218680000Y-208800000D01*
%TO.N,Net-(K7-Pad2)*%
X224200000Y-210912500D02*
X225487500Y-212200000D01*
X224200000Y-208800000D02*
X224200000Y-210912500D01*
%TO.N,INPUT_N_L*%
X241580000Y-218890000D02*
X239040000Y-216350000D01*
X239040000Y-216350000D02*
X237190000Y-214500000D01*
X223000000Y-212500000D02*
X223000000Y-207500000D01*
X226400000Y-207500000D02*
X226400000Y-208800000D01*
X226800000Y-219000000D02*
X229200000Y-221400000D01*
X223000000Y-207500000D02*
X223900000Y-206600000D01*
X237190000Y-214500000D02*
X225000000Y-214500000D01*
X231420000Y-221430000D02*
X241580000Y-221430000D01*
X223900000Y-206600000D02*
X225500000Y-206600000D01*
X229200000Y-221400000D02*
X231390000Y-221400000D01*
X225000000Y-214500000D02*
X223000000Y-212500000D01*
X231390000Y-221400000D02*
X231420000Y-221430000D01*
X241580000Y-221430000D02*
X241580000Y-218890000D01*
X225500000Y-206600000D02*
X226400000Y-207500000D01*
%TO.N,Net-(K7-Pad4)*%
X241100000Y-203200000D02*
X242470000Y-203200000D01*
X228600000Y-210912500D02*
X227312500Y-212200000D01*
X240500000Y-207000000D02*
X240500000Y-203800000D01*
X228600000Y-208800000D02*
X228600000Y-210912500D01*
X240500000Y-203800000D02*
X241100000Y-203200000D01*
X230000000Y-207400000D02*
X240100000Y-207400000D01*
X240100000Y-207400000D02*
X240500000Y-207000000D01*
X228600000Y-208800000D02*
X230000000Y-207400000D01*
%TO.N,INPUT_P_L*%
X222600000Y-219000000D02*
X220800000Y-219000000D01*
X222200000Y-216400000D02*
X222200000Y-207000000D01*
X223700000Y-217900000D02*
X222600000Y-219000000D01*
X223700000Y-217900000D02*
X222200000Y-216400000D01*
X234950000Y-217900000D02*
X223700000Y-217900000D01*
X222200000Y-207000000D02*
X226400000Y-202800000D01*
X236500000Y-216350000D02*
X234950000Y-217900000D01*
%TO.N,-15V*%
X237100000Y-190765000D02*
X236635000Y-190765000D01*
X235800000Y-187300000D02*
X236100000Y-187600000D01*
X194700000Y-190800000D02*
X194700000Y-189700000D01*
X234832500Y-190700000D02*
X234832500Y-189967500D01*
X197000000Y-190860000D02*
X196440000Y-190860000D01*
X234832500Y-189967500D02*
X235200000Y-189600000D01*
X194700000Y-187400000D02*
X196000000Y-187400000D01*
X234875000Y-187300000D02*
X235800000Y-187300000D01*
X236635000Y-190765000D02*
X235500000Y-191900000D01*
X196440000Y-190860000D02*
X195300000Y-192000000D01*
%TO.N,Net-(U13-+Vin)*%
D92*
X239609999Y-91715001D02*
X237325000Y-94000000D01*
D93*
X251700000Y-105900000D02*
X251700000Y-125200000D01*
X244800000Y-87000000D02*
X244800000Y-98000000D01*
X239609999Y-87000000D02*
X244800000Y-87000000D01*
X244300000Y-98500000D02*
X251700000Y-105900000D01*
X244800000Y-98000000D02*
X244300000Y-98500000D01*
D92*
X239609999Y-87000000D02*
X239609999Y-91715001D01*
%TO.N,Net-(K8-Pad2)*%
D89*
X244512500Y-205400000D02*
X245800000Y-204112500D01*
X242470000Y-205400000D02*
X244512500Y-205400000D01*
%TO.N,Net-(D10-K)*%
X149500000Y-153890000D02*
X149387500Y-153777500D01*
X149500000Y-156702500D02*
X149500000Y-153890000D01*
%TO.N,+3.3V*%
X178822200Y-155360000D02*
X177740000Y-155360000D01*
X124062500Y-203775000D02*
X123575000Y-203775000D01*
X150047500Y-158452500D02*
X150500000Y-158000000D01*
X178822200Y-158722200D02*
X178500000Y-158400000D01*
D90*
X152400000Y-161800000D02*
X152400000Y-160700000D01*
X152400000Y-170225000D02*
X153675000Y-170225000D01*
X152400000Y-166800000D02*
X153200000Y-166000000D01*
D89*
X174709700Y-156160000D02*
X175160000Y-156160000D01*
X219937500Y-159500000D02*
X219350000Y-160087500D01*
X177740000Y-155360000D02*
X177600000Y-155500000D01*
X127500000Y-202300000D02*
X126500000Y-202300000D01*
X219937500Y-159500000D02*
X219937500Y-158837500D01*
D90*
X152400000Y-167600000D02*
X152400000Y-166800000D01*
D89*
X123462500Y-202162500D02*
X123100000Y-201800000D01*
X219937500Y-158837500D02*
X219400000Y-158300000D01*
X123575000Y-203775000D02*
X123000000Y-203200000D01*
X124300000Y-202162500D02*
X123462500Y-202162500D01*
D90*
X152800000Y-157300000D02*
X152300000Y-156800000D01*
D89*
X175160000Y-156160000D02*
X175800000Y-156800000D01*
X176087799Y-159620000D02*
X176087799Y-158912201D01*
D90*
X152800000Y-158125000D02*
X152800000Y-157300000D01*
X153675000Y-170225000D02*
X153900000Y-170000000D01*
X152400000Y-160700000D02*
X153200000Y-159900000D01*
D89*
X124437500Y-202300000D02*
X124300000Y-202162500D01*
X149500000Y-158452500D02*
X150047500Y-158452500D01*
X178762200Y-159620000D02*
X178822200Y-159560000D01*
D90*
X152400000Y-167300000D02*
X151100000Y-166000000D01*
D89*
X219937500Y-159500000D02*
X219937500Y-159337500D01*
X219937500Y-159337500D02*
X220000000Y-159275000D01*
X178822200Y-159560000D02*
X178822200Y-158722200D01*
X126500000Y-202300000D02*
X126200000Y-202000000D01*
X176087799Y-158912201D02*
X176600000Y-158400000D01*
X219350000Y-160087500D02*
X219350000Y-161829249D01*
D90*
X152400000Y-167600000D02*
X152400000Y-167300000D01*
%TO.N,Net-(Q1-D)*%
D89*
X180220000Y-225933800D02*
X180700000Y-225453800D01*
X180220000Y-227300000D02*
X180220000Y-225933800D01*
X180700000Y-225453800D02*
X180700000Y-224500000D01*
%TO.N,Net-(Q6-D)*%
X242470000Y-210890000D02*
X242980000Y-211400000D01*
X242470000Y-208600000D02*
X242470000Y-210890000D01*
%TO.N,OUTR*%
X115112500Y-214012500D02*
X115100000Y-214000000D01*
X105020000Y-212700000D02*
X101300000Y-216420000D01*
X118000000Y-214012500D02*
X115112500Y-214012500D01*
X115100000Y-214000000D02*
X115100000Y-213600000D01*
X114200000Y-212700000D02*
X105020000Y-212700000D01*
X115100000Y-213600000D02*
X114200000Y-212700000D01*
%TO.N,Net-(D8-K)*%
X146787500Y-117100000D02*
X146787500Y-118912500D01*
%TO.N,Net-(C11-Pad2)*%
D92*
X252200000Y-87000000D02*
X254550000Y-87000000D01*
X254550000Y-87000000D02*
X257000000Y-89450000D01*
%TO.N,Net-(U13--Vout)*%
D91*
X209800000Y-137000000D02*
X204100000Y-131300000D01*
X231400000Y-137900000D02*
X210700000Y-137900000D01*
X204100000Y-131300000D02*
X200300000Y-131300000D01*
X210700000Y-137900000D02*
X209800000Y-137000000D01*
%TO.N,Net-(U2-CAPP)*%
D89*
X111100000Y-200900000D02*
X114625000Y-204425000D01*
X111100000Y-200425000D02*
X111100000Y-200900000D01*
X114625000Y-204425000D02*
X118337500Y-204425000D01*
%TO.N,Net-(U2-CAPM)*%
X115025000Y-205725000D02*
X112675000Y-203375000D01*
X111100000Y-203375000D02*
X112675000Y-203375000D01*
X118337500Y-205725000D02*
X115025000Y-205725000D01*
%TO.N,Net-(U2-VNEG)*%
X113700000Y-205200000D02*
X114875000Y-206375000D01*
X110025000Y-206700000D02*
X110025000Y-206375000D01*
X110025000Y-206375000D02*
X111200000Y-205200000D01*
X114875000Y-206375000D02*
X118337500Y-206375000D01*
X111200000Y-205200000D02*
X113700000Y-205200000D01*
%TO.N,Net-(U2-OUTR)*%
X119074999Y-207675000D02*
X119900000Y-208500001D01*
X119112500Y-212187500D02*
X118000000Y-212187500D01*
X119900000Y-208500001D02*
X119900000Y-211400000D01*
X119900000Y-211400000D02*
X119112500Y-212187500D01*
X118337500Y-207675000D02*
X119074999Y-207675000D01*
%TO.N,DAC_BCK*%
X125425000Y-208325000D02*
X125500000Y-208400000D01*
X124062500Y-208325000D02*
X125425000Y-208325000D01*
%TO.N,Net-(U2-XSMT)*%
X124062500Y-205725000D02*
X125425000Y-205725000D01*
X125425000Y-205725000D02*
X125600000Y-205900000D01*
%TO.N,Net-(U2-LDOO)*%
X126137500Y-204600000D02*
X125662500Y-205075000D01*
X126137500Y-203762500D02*
X126137500Y-204600000D01*
X128800000Y-203400000D02*
X126500000Y-203400000D01*
X126500000Y-203400000D02*
X126137500Y-203762500D01*
X125662500Y-205075000D02*
X124062500Y-205075000D01*
X129800000Y-204400000D02*
X128800000Y-203400000D01*
%TO.N,Net-(U7-VIN+)*%
X235970000Y-194435000D02*
X237100000Y-193305000D01*
X235970000Y-196387500D02*
X235970000Y-194435000D01*
X237100000Y-193305000D02*
X231042500Y-193305000D01*
X224450000Y-187112500D02*
X224400000Y-187062500D01*
X231042500Y-193305000D02*
X228800000Y-191062500D01*
X227300000Y-187112500D02*
X224450000Y-187112500D01*
X227300000Y-189562500D02*
X227300000Y-187112500D01*
X228800000Y-191062500D02*
X227300000Y-189562500D01*
%TO.N,Net-(C48-Pad2)*%
X227300000Y-185287500D02*
X228012500Y-185287500D01*
X227250000Y-185337500D02*
X227300000Y-185287500D01*
X233975000Y-182875000D02*
X237200000Y-182875000D01*
X232200000Y-181100000D02*
X233975000Y-182875000D01*
X224400000Y-185337500D02*
X227250000Y-185337500D01*
X237200000Y-182875000D02*
X237200000Y-181112500D01*
X228012500Y-185287500D02*
X232200000Y-181100000D01*
%TO.N,Net-(D7-K)*%
X144762500Y-136025000D02*
X144762500Y-134212500D01*
%TO.N,Net-(D3-K)*%
D91*
X165325000Y-113195000D02*
X165325000Y-115262500D01*
X158197499Y-118800000D02*
X157297499Y-117900000D01*
X163465552Y-110005000D02*
X163465552Y-111335552D01*
X163465552Y-111335552D02*
X165325000Y-113195000D01*
X165325000Y-115262500D02*
X161787500Y-118800000D01*
X161787500Y-118800000D02*
X158197499Y-118800000D01*
%TO.N,Net-(D11-K)*%
D89*
X200587500Y-113100000D02*
X198575000Y-113100000D01*
%TO.N,Net-(U7-VOUT+)*%
X242040000Y-184772500D02*
X242100000Y-184712500D01*
X242100000Y-184712500D02*
X248112500Y-184712500D01*
X248112500Y-184712500D02*
X250300000Y-186900000D01*
X242040000Y-189495000D02*
X242040000Y-184772500D01*
X250300000Y-186900000D02*
X250300000Y-189337500D01*
%TO.N,Net-(D13-K)*%
X155812500Y-174065000D02*
X155800000Y-174052500D01*
X155812500Y-176065000D02*
X155812500Y-174065000D01*
%TO.N,Net-(U7-VOUT-)*%
X237100000Y-184800000D02*
X237200000Y-184700000D01*
X237200000Y-184700000D02*
X230800000Y-184700000D01*
X237100000Y-189495000D02*
X237100000Y-184800000D01*
X230800000Y-184700000D02*
X228800000Y-186700000D01*
X228800000Y-186700000D02*
X228800000Y-189337500D01*
%TO.N,Net-(U8-RT{slash}CLK)*%
D90*
X169109448Y-106195000D02*
X170305000Y-106195000D01*
X170305000Y-106195000D02*
X171500000Y-105000000D01*
X171500000Y-105000000D02*
X171500000Y-103600000D01*
%TO.N,DC_REF_2V5*%
D89*
X179037500Y-189687500D02*
X173262500Y-189687500D01*
X173262500Y-189687500D02*
X172437500Y-188862500D01*
%TO.N,Net-(U4-ENABLE)*%
X198500000Y-191614999D02*
X198500000Y-187700000D01*
X197984999Y-192130000D02*
X198500000Y-191614999D01*
X197000000Y-192130000D02*
X197984999Y-192130000D01*
%TO.N,Net-(D12-A)*%
X200687500Y-141400000D02*
X198775000Y-141400000D01*
%TO.N,Net-(U6-+IN)*%
X256700000Y-198400000D02*
X256700000Y-195712500D01*
X255825001Y-199000000D02*
X256737500Y-199000000D01*
X253070000Y-202740000D02*
X253070000Y-201755001D01*
X256737500Y-199000000D02*
X256737500Y-198437500D01*
X253070000Y-201755001D02*
X255825001Y-199000000D01*
X256737500Y-198437500D02*
X256700000Y-198400000D01*
%TO.N,VCOML*%
X256700000Y-191137500D02*
X256737500Y-191100000D01*
X224737500Y-170600000D02*
X224737500Y-169716749D01*
X256737500Y-191100000D02*
X256737500Y-183537500D01*
X224737500Y-169716749D02*
X223970751Y-168950000D01*
X256737500Y-183537500D02*
X247762500Y-174562500D01*
X256700000Y-193887500D02*
X256700000Y-191137500D01*
X247762500Y-174562500D02*
X228700000Y-174562500D01*
X228700000Y-174562500D02*
X224737500Y-170600000D01*
%TO.N,+VIN_R*%
X217850001Y-170570751D02*
X217850001Y-173724999D01*
X217850001Y-173724999D02*
X215475000Y-176100000D01*
X202000000Y-179100000D02*
X202000000Y-179387500D01*
X203800000Y-177300000D02*
X202000000Y-179100000D01*
X214275000Y-177300000D02*
X203800000Y-177300000D01*
X215475000Y-176100000D02*
X214275000Y-177300000D01*
%TO.N,Net-(U12-VIN)*%
X174372500Y-177627500D02*
X175662500Y-177627500D01*
X172400000Y-176562500D02*
X172400000Y-178462500D01*
X173500000Y-178500000D02*
X174372500Y-177627500D01*
X172400000Y-178462500D02*
X172437500Y-178500000D01*
X172437500Y-178500000D02*
X173500000Y-178500000D01*
X170647500Y-173162500D02*
X170647500Y-174810000D01*
X170647500Y-174810000D02*
X172400000Y-176562500D01*
%TO.N,Net-(D6-K)*%
D90*
X212000000Y-102075000D02*
X212000000Y-104350000D01*
%TO.N,-15V*%
X192625000Y-137975000D02*
X191900000Y-138700000D01*
X200300000Y-138900000D02*
X200600000Y-139200000D01*
D89*
X197025000Y-141400000D02*
X197000000Y-141400000D01*
D90*
X200300000Y-138500000D02*
X199600000Y-139200000D01*
X193500000Y-137975000D02*
X192625000Y-137975000D01*
X200300000Y-137519998D02*
X200300000Y-138500000D01*
D89*
X197000000Y-141400000D02*
X196000000Y-140400000D01*
D90*
X200300000Y-137519998D02*
X200300000Y-138900000D01*
%TO.N,ADC_VREFR*%
D89*
X212925000Y-168725000D02*
X212925000Y-168900000D01*
X209800000Y-165600000D02*
X212925000Y-168725000D01*
X212925000Y-168900000D02*
X213875001Y-167949999D01*
X209800000Y-165600000D02*
X208500000Y-166900000D01*
X213875001Y-167949999D02*
X215229249Y-167949999D01*
X208500000Y-166900000D02*
X208500000Y-169025000D01*
%TO.N,-VIN_L*%
X223837500Y-176100000D02*
X225237500Y-177500000D01*
X221349999Y-170570751D02*
X221349999Y-173612499D01*
X225237500Y-177500000D02*
X235600000Y-177500000D01*
X235600000Y-177500000D02*
X237200000Y-179100000D01*
X221349999Y-173612499D02*
X223837500Y-176100000D01*
X237200000Y-179100000D02*
X237200000Y-179287500D01*
%TO.N,Net-(U8-BOOT)*%
D90*
X169109448Y-110005000D02*
X169109448Y-111135552D01*
X169109448Y-111135552D02*
X167050000Y-113195000D01*
%TO.N,Net-(U8-EN)*%
X172787500Y-104087500D02*
X173275000Y-103600000D01*
X169109448Y-107465000D02*
X172122500Y-107465000D01*
X172122500Y-107465000D02*
X172787500Y-106800000D01*
X172787500Y-106800000D02*
X172787500Y-104087500D01*
%TO.N,Net-(U8-COMP)*%
X161050000Y-107450000D02*
X161100000Y-107500000D01*
X161100000Y-107500000D02*
X163430552Y-107500000D01*
X163430552Y-107500000D02*
X163465552Y-107465000D01*
X161050000Y-104600000D02*
X161050000Y-107450000D01*
%TO.N,Net-(Q3-D)*%
D89*
X202400000Y-211200000D02*
X202900000Y-211700000D01*
X202400000Y-208800000D02*
X202400000Y-211200000D01*
%TO.N,ADC_SCKI{slash}MCKI*%
X180197200Y-164760000D02*
X183184700Y-164760000D01*
X183184700Y-164760000D02*
X189184700Y-164760000D01*
%TO.N,-VIN_R*%
X200275000Y-176100000D02*
X197000000Y-179375000D01*
X213925000Y-176100000D02*
X200275000Y-176100000D01*
X217349999Y-170570751D02*
X217349999Y-172675001D01*
X217349999Y-172675001D02*
X213925000Y-176100000D01*
%TO.N,ADC_VREFL*%
X230800000Y-166900000D02*
X230800000Y-169025000D01*
X226337500Y-168900000D02*
X225387499Y-167949999D01*
X229500000Y-165600000D02*
X230800000Y-166900000D01*
X226337500Y-168762500D02*
X226337500Y-168900000D01*
X229500000Y-165600000D02*
X226337500Y-168762500D01*
X225387499Y-167949999D02*
X223970751Y-167949999D01*
%TO.N,HPFDL*%
X223970751Y-166950001D02*
X223970751Y-166450000D01*
X226369364Y-166860879D02*
X225958485Y-166450000D01*
X225958485Y-166450000D02*
X223970751Y-166450000D01*
%TO.N,FS0*%
X226519022Y-166074999D02*
X226394023Y-165950000D01*
X226394023Y-165950000D02*
X223970751Y-165950000D01*
%TO.N,DF*%
X226316610Y-164535628D02*
X225902238Y-164950000D01*
X226422551Y-164535628D02*
X226316610Y-164535628D01*
X225902238Y-164950000D02*
X223970751Y-164950000D01*
%TO.N,DSDEN*%
X225420984Y-164450001D02*
X223970751Y-164450001D01*
X226035493Y-163835493D02*
X225420984Y-164450001D01*
%TO.N,MODEN*%
X225037101Y-163949999D02*
X225233184Y-163753916D01*
X223970751Y-163949999D02*
X225037101Y-163949999D01*
X225233184Y-163753916D02*
X225233184Y-163191913D01*
%TO.N,DSDMODE*%
X223970751Y-163450000D02*
X223970751Y-162829249D01*
X223970751Y-162829249D02*
X224000000Y-162800000D01*
%TO.N,SUB1*%
X222350000Y-161829249D02*
X222350000Y-161318823D01*
X222350000Y-161318823D02*
X222851773Y-160817050D01*
%TO.N,SUB0*%
X221850001Y-160808728D02*
X222091913Y-160566816D01*
X221850001Y-161829249D02*
X221850001Y-160808728D01*
%TO.N,OVFL*%
X214261932Y-163450000D02*
X213652983Y-162841051D01*
X215229249Y-163450000D02*
X214261932Y-163450000D01*
%TO.N,OVFR*%
X213749999Y-163949999D02*
X213400000Y-163600000D01*
X215229249Y-163949999D02*
X213749999Y-163949999D01*
%TO.N,S{slash}\u002AM*%
X213300000Y-164500000D02*
X213349999Y-164450001D01*
X213349999Y-164450001D02*
X215229249Y-164450001D01*
%TO.N,OWL1*%
X212600000Y-165500000D02*
X212650001Y-165449999D01*
X212650001Y-165449999D02*
X215229249Y-165449999D01*
%TO.N,OWL0*%
X212679817Y-166327779D02*
X213057596Y-165950000D01*
X213057596Y-165950000D02*
X215229249Y-165950000D01*
%TO.N,FMT1*%
X213543394Y-166450000D02*
X215229249Y-166450000D01*
X212895133Y-167098261D02*
X213543394Y-166450000D01*
%TO.N,Net-(U11-EN)*%
D90*
X169268896Y-131570000D02*
X172555000Y-131570000D01*
X172555000Y-131570000D02*
X173025000Y-131100000D01*
X173325000Y-127800000D02*
X173325000Y-130800000D01*
X173325000Y-130800000D02*
X173025000Y-131100000D01*
%TO.N,VOCML*%
D89*
X249900000Y-205624999D02*
X249900000Y-206700000D01*
X251800000Y-202740000D02*
X251800000Y-201755001D01*
X251800000Y-201755001D02*
X253070000Y-200485001D01*
X253100000Y-197770000D02*
X253070000Y-197800000D01*
X253100000Y-196100000D02*
X253100000Y-197770000D01*
X251800000Y-203724999D02*
X249900000Y-205624999D01*
X245235000Y-192035000D02*
X245400000Y-192200000D01*
X253070000Y-200485001D02*
X253070000Y-197800000D01*
X251800000Y-202740000D02*
X251800000Y-203724999D01*
X242040000Y-192035000D02*
X245235000Y-192035000D01*
%TO.N,Net-(U5-+IN)*%
X212935000Y-201785001D02*
X215620001Y-199100000D01*
X215620001Y-199100000D02*
X216637500Y-199100000D01*
X212935000Y-202770000D02*
X212935000Y-201785001D01*
X216637500Y-195850000D02*
X216600000Y-195812500D01*
X216637500Y-199100000D02*
X216637500Y-195850000D01*
%TO.N,Net-(OSC1-OUTPUTENABLE{slash}DISABLE)*%
X172884700Y-158416901D02*
X171681601Y-159620000D01*
X172884700Y-156160000D02*
X172884700Y-158416901D01*
%TO.N,Net-(D14-K)*%
X116590000Y-83482500D02*
X116590000Y-85395000D01*
%TO.N,Net-(D14-A)*%
X116590000Y-87145000D02*
X113015000Y-87145000D01*
X113015000Y-87145000D02*
X112940000Y-87220000D01*
%TO.N,Net-(U11-RT{slash}CLK)*%
D90*
X171537500Y-128031396D02*
X169268896Y-130300000D01*
X171537500Y-127800000D02*
X171537500Y-128031396D01*
%TO.N,Net-(U11-FB)*%
X155287500Y-126850000D02*
X164862500Y-126850000D01*
X165812500Y-127800000D02*
X165812500Y-128112500D01*
X164862500Y-126850000D02*
X165812500Y-127800000D01*
X165812500Y-128112500D02*
X163625000Y-130300000D01*
X154537500Y-127600000D02*
X155287500Y-126850000D01*
%TO.N,Net-(U11-COMP)*%
X158100000Y-133300000D02*
X160100000Y-133300000D01*
X161237500Y-132162500D02*
X161237500Y-131600000D01*
X156525000Y-131725000D02*
X158100000Y-133300000D01*
X161267500Y-131570000D02*
X161237500Y-131600000D01*
X160100000Y-133300000D02*
X161237500Y-132162500D01*
X163625000Y-131570000D02*
X161267500Y-131570000D01*
X156525000Y-131500000D02*
X156525000Y-131725000D01*
%TO.N,Net-(C14-Pad2)*%
X159462500Y-128700000D02*
X159462500Y-131550000D01*
X159462500Y-131550000D02*
X159412500Y-131600000D01*
%TO.N,Net-(OSC1-OUTPUT)*%
D89*
X178312200Y-164700000D02*
X178372200Y-164760000D01*
X176087799Y-164700000D02*
X178312200Y-164700000D01*
%TO.N,Net-(C21-Pad2)*%
D90*
X159275000Y-107500000D02*
X156375000Y-107500000D01*
X156375000Y-107500000D02*
X156300000Y-107425000D01*
%TO.N,Net-(Q4-D)*%
D89*
X220800000Y-224400000D02*
X220800000Y-226720000D01*
X220800000Y-226720000D02*
X220220000Y-227300000D01*
%TO.N,Net-(U7-ENABLE)*%
X238084999Y-192035000D02*
X238757500Y-191362499D01*
X238757500Y-191362499D02*
X238757500Y-187600000D01*
X237100000Y-192035000D02*
X238084999Y-192035000D01*
%TO.N,GND*%
X127500000Y-205375000D02*
X127862500Y-205012500D01*
X246032500Y-190700000D02*
X246900000Y-190700000D01*
D90*
X162265000Y-108735000D02*
X162000000Y-109000000D01*
D89*
X122975000Y-206375000D02*
X122700000Y-206100000D01*
X259100000Y-199000000D02*
X259700000Y-198400000D01*
D90*
X144987500Y-109100000D02*
X143887500Y-110200000D01*
D89*
X224500000Y-92200000D02*
X224500000Y-94900000D01*
X118900000Y-210400000D02*
X118900000Y-210187500D01*
X252575000Y-206125000D02*
X252300000Y-206400000D01*
X169460000Y-165760000D02*
X170000000Y-166300000D01*
X117600000Y-198200000D02*
X117100000Y-197700000D01*
D90*
X176787500Y-105925000D02*
X176787500Y-104700000D01*
X151212500Y-153777500D02*
X151800000Y-153777500D01*
D89*
X224500000Y-94900000D02*
X224900000Y-95300000D01*
X127862500Y-205012500D02*
X127862500Y-204600000D01*
X113422500Y-81657500D02*
X112940000Y-82140000D01*
X132700000Y-204400000D02*
X132900000Y-204200000D01*
X232300000Y-190700000D02*
X232000000Y-190400000D01*
D90*
X176925000Y-129525000D02*
X176300000Y-128900000D01*
D89*
X115000000Y-200350000D02*
X115000000Y-199700000D01*
X220400000Y-175100000D02*
X220900000Y-175600000D01*
X205962500Y-190800000D02*
X207000000Y-190800000D01*
X251800000Y-193837500D02*
X252362500Y-193837500D01*
D90*
X212000000Y-107450000D02*
X212000000Y-108700000D01*
X156525000Y-129775000D02*
X155487500Y-129775000D01*
X172600000Y-142800000D02*
X173400000Y-142000000D01*
X144450000Y-132387500D02*
X143662500Y-131600000D01*
X172800000Y-118800000D02*
X173400000Y-118200000D01*
D89*
X180547200Y-159560000D02*
X181560000Y-159560000D01*
D90*
X145187500Y-100700000D02*
X143987500Y-101900000D01*
D89*
X258462500Y-199000000D02*
X259100000Y-199000000D01*
D90*
X146087500Y-100700000D02*
X145187500Y-100700000D01*
X144200000Y-100700000D02*
X143800000Y-100300000D01*
X167637500Y-127800000D02*
X167637500Y-127975000D01*
X156300000Y-105700000D02*
X156287500Y-105700000D01*
D89*
X193500000Y-135025000D02*
X193500000Y-134500000D01*
X118337500Y-205075000D02*
X119375000Y-205075000D01*
D90*
X151800000Y-153777500D02*
X152300000Y-154277500D01*
D89*
X231100000Y-187300000D02*
X230800000Y-187000000D01*
X131700000Y-204400000D02*
X132700000Y-204400000D01*
D90*
X161187500Y-127875000D02*
X161462500Y-127600000D01*
D89*
X117771384Y-208975000D02*
X117073192Y-209673192D01*
X181560000Y-159560000D02*
X181800000Y-159800000D01*
X181260000Y-155360000D02*
X181800000Y-155900000D01*
X209800000Y-117800000D02*
X209800000Y-115900000D01*
X113600000Y-210000000D02*
X113000000Y-210600000D01*
X193600000Y-120500000D02*
X194000000Y-120900000D01*
D90*
X257000000Y-93300000D02*
X256400000Y-93900000D01*
X224500000Y-92200000D02*
X224500000Y-94800000D01*
D89*
X210200000Y-129300000D02*
X209800000Y-129700000D01*
D90*
X259625000Y-166825000D02*
X259800000Y-167000000D01*
X167500000Y-102987500D02*
X167987500Y-102500000D01*
X218000000Y-106985000D02*
X218000000Y-108100000D01*
X252700000Y-98500000D02*
X254900000Y-98500000D01*
D89*
X209800000Y-115900000D02*
X209300000Y-115400000D01*
D90*
X159325000Y-104600000D02*
X158387500Y-104600000D01*
D89*
X218362500Y-191200000D02*
X219100000Y-191200000D01*
X233107500Y-190700000D02*
X232300000Y-190700000D01*
X123700000Y-210500000D02*
X123725000Y-210500000D01*
D90*
X147300000Y-164177500D02*
X148000000Y-164877500D01*
D89*
X113500000Y-206700000D02*
X114100000Y-207300000D01*
D90*
X146087500Y-100700000D02*
X144200000Y-100700000D01*
D89*
X127500000Y-205475000D02*
X127500000Y-205375000D01*
X207175000Y-187400000D02*
X207600000Y-187400000D01*
X114137500Y-210000000D02*
X113600000Y-210000000D01*
X118900000Y-210187500D02*
X118337500Y-209625000D01*
D90*
X155505000Y-157172500D02*
X156100000Y-156577500D01*
X146087500Y-109100000D02*
X144987500Y-109100000D01*
D89*
X231925000Y-187300000D02*
X231100000Y-187300000D01*
D90*
X255500000Y-97900000D02*
X255200000Y-98200000D01*
D89*
X193500000Y-134500000D02*
X194200000Y-133800000D01*
D90*
X144762500Y-132387500D02*
X144450000Y-132387500D01*
X224500000Y-94800000D02*
X224000000Y-95300000D01*
X146800000Y-132200000D02*
X146700000Y-132300000D01*
X254062500Y-150047500D02*
X254062500Y-149662500D01*
X146662500Y-115275000D02*
X145687500Y-114300000D01*
X174725000Y-136700000D02*
X173762500Y-136700000D01*
X147950000Y-127487500D02*
X146662500Y-126200000D01*
X147950000Y-127600000D02*
X147000000Y-127600000D01*
D89*
X124062500Y-204425000D02*
X122725000Y-204425000D01*
D90*
X174725000Y-136700000D02*
X174600000Y-136700000D01*
X173762500Y-136700000D02*
X173662500Y-136600000D01*
D89*
X171681601Y-164700000D02*
X171681601Y-165181601D01*
D90*
X167637500Y-127975000D02*
X168362500Y-128700000D01*
X147950000Y-132200000D02*
X146800000Y-132200000D01*
X147950000Y-132200000D02*
X147950000Y-131887500D01*
X175100000Y-103600000D02*
X175587500Y-103600000D01*
D89*
X112975000Y-206700000D02*
X113500000Y-206700000D01*
D90*
X174600000Y-136700000D02*
X173700000Y-137600000D01*
D89*
X247175000Y-187300000D02*
X248200000Y-187300000D01*
X258900000Y-191100000D02*
X259700000Y-190300000D01*
D90*
X247625000Y-162575000D02*
X248100000Y-162100000D01*
D89*
X112400000Y-214000000D02*
X112100000Y-214300000D01*
X124062500Y-208975000D02*
X125175000Y-208975000D01*
X171681601Y-165181601D02*
X172900000Y-166400000D01*
X209800000Y-115600000D02*
X210100000Y-115300000D01*
D90*
X163625000Y-132840000D02*
X162622500Y-132840000D01*
D89*
X116590000Y-81657500D02*
X113422500Y-81657500D01*
X168184700Y-165760000D02*
X169460000Y-165760000D01*
X252362500Y-193837500D02*
X252900000Y-193300000D01*
D90*
X176787500Y-104700000D02*
X176887500Y-104600000D01*
X170587500Y-118800000D02*
X172800000Y-118800000D01*
D89*
X203400000Y-113100000D02*
X203600000Y-112900000D01*
D90*
X176925000Y-130037500D02*
X176925000Y-129525000D01*
D89*
X246900000Y-190700000D02*
X247200000Y-190400000D01*
X124300000Y-200437500D02*
X124300000Y-199600000D01*
X183184700Y-167415300D02*
X182800000Y-167800000D01*
X193600000Y-120500000D02*
X193200000Y-120900000D01*
D90*
X158387500Y-104600000D02*
X157987500Y-104200000D01*
X218000000Y-108100000D02*
X217300000Y-108800000D01*
X174612500Y-112300000D02*
X174100000Y-112300000D01*
D89*
X207000000Y-190800000D02*
X207300000Y-190500000D01*
D90*
X176925000Y-129237500D02*
X177462500Y-128700000D01*
D89*
X118337500Y-208975000D02*
X117771384Y-208975000D01*
D90*
X259575000Y-158347500D02*
X259575000Y-157225000D01*
X253000000Y-98200000D02*
X252700000Y-98500000D01*
D89*
X117337500Y-200437500D02*
X117000000Y-200100000D01*
X180547200Y-155360000D02*
X181260000Y-155360000D01*
D90*
X244725000Y-162075000D02*
X244900000Y-161900000D01*
X154700000Y-161800000D02*
X155922500Y-161800000D01*
X162622500Y-132840000D02*
X162262500Y-133200000D01*
D89*
X118100000Y-200437500D02*
X117337500Y-200437500D01*
X124300000Y-199600000D02*
X124000000Y-199300000D01*
D90*
X257000000Y-93300000D02*
X257600000Y-93900000D01*
D89*
X124062500Y-210162500D02*
X124062500Y-209625000D01*
X207600000Y-187400000D02*
X208400000Y-188200000D01*
X124062500Y-206375000D02*
X122975000Y-206375000D01*
X115000000Y-199700000D02*
X114600000Y-199300000D01*
X209800000Y-117800000D02*
X209800000Y-115600000D01*
D90*
X175587500Y-103600000D02*
X176087500Y-103100000D01*
D89*
X209800000Y-129700000D02*
X209800000Y-131600000D01*
D90*
X170625000Y-142800000D02*
X173062500Y-142800000D01*
D89*
X127500000Y-200400000D02*
X127500000Y-199800000D01*
X203200000Y-141400000D02*
X203600000Y-141800000D01*
X209800000Y-131600000D02*
X209800000Y-129800000D01*
D90*
X144400000Y-109100000D02*
X143800000Y-108500000D01*
X175150000Y-127612500D02*
X175862500Y-126900000D01*
D89*
X212437500Y-206062500D02*
X212300000Y-206200000D01*
D90*
X259625000Y-165660000D02*
X259625000Y-166825000D01*
X169712500Y-127800000D02*
X169712500Y-127450000D01*
D89*
X219100000Y-191200000D02*
X219600000Y-190700000D01*
D90*
X170625000Y-142800000D02*
X172600000Y-142800000D01*
X167500000Y-103600000D02*
X167500000Y-102987500D01*
D89*
X122725000Y-204425000D02*
X122700000Y-204400000D01*
D90*
X146400000Y-164177500D02*
X147300000Y-164177500D01*
X155922500Y-161800000D02*
X156100000Y-161977500D01*
X161187500Y-128700000D02*
X161187500Y-127875000D01*
D89*
X209800000Y-129800000D02*
X209400000Y-129400000D01*
D90*
X247625000Y-163285000D02*
X247625000Y-162575000D01*
X155505000Y-158125000D02*
X155505000Y-157172500D01*
D89*
X118150000Y-198200000D02*
X117600000Y-198200000D01*
X193600000Y-119775000D02*
X193600000Y-120500000D01*
X248200000Y-187300000D02*
X248400000Y-187100000D01*
X218000000Y-106985000D02*
X218000000Y-108400000D01*
D90*
X173062500Y-142800000D02*
X173362500Y-143100000D01*
X259575000Y-157225000D02*
X259900000Y-156900000D01*
X259200000Y-168900000D02*
X259400000Y-168700000D01*
X174612500Y-112300000D02*
X173487500Y-112300000D01*
X169675000Y-103812500D02*
X168987500Y-104500000D01*
D89*
X212525000Y-193875000D02*
X213000000Y-193400000D01*
X193500000Y-135025000D02*
X193500000Y-134100000D01*
D90*
X257000000Y-92550000D02*
X257000000Y-93300000D01*
D89*
X193500000Y-134100000D02*
X193200000Y-133800000D01*
D90*
X244725000Y-163285000D02*
X244725000Y-162075000D01*
X212000000Y-108700000D02*
X211800000Y-108900000D01*
D89*
X258462500Y-191100000D02*
X258900000Y-191100000D01*
X218362500Y-199100000D02*
X219000000Y-199100000D01*
X211700000Y-193875000D02*
X212525000Y-193875000D01*
X183184700Y-166485000D02*
X183184700Y-167415300D01*
X218800000Y-175000000D02*
X218200000Y-175600000D01*
X218000000Y-108400000D02*
X218400000Y-108800000D01*
X220400000Y-174562500D02*
X220400000Y-175100000D01*
D90*
X173487500Y-112300000D02*
X173287500Y-112500000D01*
D89*
X119000000Y-210500000D02*
X118900000Y-210400000D01*
D90*
X255200000Y-98200000D02*
X253000000Y-98200000D01*
X175150000Y-127800000D02*
X175150000Y-127612500D01*
X254062500Y-149662500D02*
X253400000Y-149000000D01*
D89*
X212437500Y-205000000D02*
X212437500Y-206062500D01*
D90*
X147000000Y-127600000D02*
X146800000Y-127800000D01*
X254900000Y-98500000D02*
X255400000Y-99000000D01*
D89*
X252575000Y-205000000D02*
X252575000Y-206125000D01*
D90*
X147950000Y-127600000D02*
X147950000Y-127487500D01*
D89*
X119375000Y-205075000D02*
X119700000Y-205400000D01*
D90*
X258112500Y-168900000D02*
X259200000Y-168900000D01*
X173087500Y-118800000D02*
X173487500Y-119200000D01*
X176925000Y-130037500D02*
X176925000Y-129237500D01*
X147950000Y-131887500D02*
X146662500Y-130600000D01*
D89*
X202412500Y-113100000D02*
X203400000Y-113100000D01*
X218800000Y-174562500D02*
X218800000Y-175000000D01*
D90*
X169675000Y-103600000D02*
X169675000Y-103812500D01*
X163465552Y-108735000D02*
X162265000Y-108735000D01*
X146787500Y-115275000D02*
X146662500Y-115275000D01*
X156287500Y-105700000D02*
X155287500Y-104700000D01*
X169712500Y-127450000D02*
X168962500Y-126700000D01*
X174100000Y-112300000D02*
X173400000Y-111600000D01*
X170587500Y-118800000D02*
X173087500Y-118800000D01*
X146087500Y-109100000D02*
X144400000Y-109100000D01*
X165652500Y-108735000D02*
X166287500Y-108100000D01*
D89*
X113375000Y-214000000D02*
X112400000Y-214000000D01*
X127500000Y-199800000D02*
X127100000Y-199400000D01*
X219000000Y-199100000D02*
X219500000Y-198600000D01*
D90*
X155487500Y-129775000D02*
X155362500Y-129900000D01*
D89*
X202512500Y-141400000D02*
X203200000Y-141400000D01*
X125175000Y-208975000D02*
X125500000Y-209300000D01*
X123725000Y-210500000D02*
X124062500Y-210162500D01*
%TO.N,OUTR*%
X101300000Y-216420000D02*
X103580000Y-218700000D01*
%TD*%
M02*
