M48
; DRILL file KiCad 10.0.1 date 2026-05-14T15:32:25
; FORMAT={-:-/ absolute / metric / decimal}
; #@! TF.CreationDate,2026-05-14T15:32:25+02:00
; #@! TF.GenerationSoftware,Kicad,Pcbnew,10.0.1
; #@! TF.FileFunction,Plated,1,4,PTH
FMAT,2
METRIC
; #@! TA.AperFunction,Plated,PTH,ViaDrill
T1C0.300
; #@! TA.AperFunction,Plated,PTH,ComponentDrill
T2C0.500
; #@! TA.AperFunction,Plated,PTH,ComponentDrill
T3C0.700
; #@! TA.AperFunction,Plated,PTH,ComponentDrill
T4C0.750
; #@! TA.AperFunction,Plated,PTH,ComponentDrill
T5C0.800
; #@! TA.AperFunction,Plated,PTH,ComponentDrill
T6C0.890
; #@! TA.AperFunction,Plated,PTH,ComponentDrill
T7C1.000
; #@! TA.AperFunction,Plated,PTH,ComponentDrill
T8C1.300
; #@! TA.AperFunction,Plated,PTH,ComponentDrill
T9C1.400
; #@! TA.AperFunction,Plated,PTH,ComponentDrill
T10C2.000
; #@! TA.AperFunction,Plated,PTH,ComponentDrill
T11C3.200
%
G90
G05
T1
X97.2Y-151.6
X101.4Y-127.3
X112.1Y-214.3
X113.0Y-210.6
X114.1Y-207.3
X114.6Y-199.3
X116.2Y-202.9
X116.3Y-211.1
X116.9Y-208.1
X117.0Y-200.1
X117.073Y-209.673
X117.1Y-197.7
X119.0Y-210.5
X119.1Y-201.9
X119.6Y-203.5
X119.7Y-205.4
X120.1Y-199.4
X120.4Y-96.6
X120.6Y-143.8
X122.7Y-204.4
X122.7Y-206.1
X122.7Y-207.6
X123.0Y-203.2
X123.1Y-201.8
X123.7Y-210.5
X124.0Y-199.3
X125.5Y-207.1
X125.5Y-208.4
X125.5Y-209.3
X125.6Y-205.9
X126.2Y-202.0
X127.1Y-199.4
X127.5Y-205.475
X128.7Y-222.4
X128.9Y-199.5
X129.4Y-108.2
X130.2Y-213.7
X132.9Y-204.2
X134.2Y-204.7
X134.55Y-205.85
X136.5Y-105.9
X143.0Y-126.8
X143.0Y-127.4
X143.0Y-128.0
X143.662Y-131.6
X143.8Y-100.3
X143.8Y-108.5
X143.887Y-110.2
X143.987Y-101.9
X144.2Y-138.9
X145.688Y-114.3
X145.7Y-160.0
X146.3Y-167.577
X146.5Y-141.1
X146.6Y-140.0
X146.662Y-126.2
X146.662Y-130.6
X146.7Y-132.3
X146.8Y-127.8
X147.2Y-121.8
X148.0Y-164.877
X148.8Y-161.8
X149.3Y-117.3
X149.3Y-118.5
X150.2Y-202.2
X150.5Y-158.0
X151.1Y-166.0
X151.7Y-199.3
X151.9Y-132.7
X151.9Y-209.0
X152.0Y-173.1
X152.1Y-131.8
X152.2Y-129.0
X152.3Y-99.5
X152.3Y-154.278
X152.3Y-156.8
X152.4Y-126.5
X152.8Y-173.1
X153.2Y-159.9
X153.2Y-166.0
X153.3Y-99.5
X153.9Y-101.7
X153.9Y-108.5
X153.9Y-170.0
X154.0Y-109.8
X154.262Y-133.8
X154.8Y-207.2
X155.287Y-104.7
X155.362Y-129.9
X156.1Y-156.577
X156.1Y-161.977
X156.588Y-111.4
X156.8Y-211.8
X156.88Y-200.2
X156.9Y-172.7
X157.1Y-178.9
X157.987Y-104.2
X158.097Y-209.075
X158.9Y-195.1
X159.2Y-192.2
X161.0Y-216.0
X161.0Y-220.0
X161.2Y-174.1
X161.463Y-127.6
X162.0Y-109.0
X162.262Y-133.2
X162.3Y-202.2
X162.6Y-195.2
X163.7Y-199.2
X163.9Y-209.5
X166.287Y-108.1
X166.5Y-132.205
X167.0Y-207.3
X167.987Y-102.5
X168.362Y-128.7
X168.963Y-126.7
X168.987Y-104.5
X169.08Y-200.2
X169.1Y-211.8
X170.0Y-166.3
X170.3Y-177.9
X170.3Y-209.6
X170.7Y-108.9
X170.9Y-133.2
X171.0Y-195.2
X171.3Y-192.3
X171.4Y-180.9
X172.5Y-134.2
X172.537Y-184.062
X172.8Y-109.9
X172.9Y-166.4
X173.2Y-222.6
X173.287Y-112.5
X173.362Y-143.1
X173.4Y-111.6
X173.4Y-118.2
X173.4Y-134.3
X173.4Y-142.0
X173.487Y-119.2
X173.662Y-136.6
X173.7Y-137.6
X173.9Y-172.8
X175.2Y-181.3
X175.8Y-156.8
X175.862Y-126.9
X176.088Y-103.1
X176.1Y-182.6
X176.1Y-184.8
X176.2Y-223.0
X176.3Y-128.9
X176.4Y-109.9
X176.6Y-134.4
X176.6Y-158.4
X176.887Y-104.6
X177.2Y-110.0
X177.2Y-204.2
X177.463Y-128.7
X177.5Y-134.5
X177.6Y-155.5
X178.1Y-209.6
X178.5Y-158.4
X178.7Y-112.8
X178.7Y-215.9
X178.8Y-112.0
X178.8Y-136.4
X178.8Y-137.2
X179.6Y-201.6
X179.8Y-214.4
X180.0Y-217.8
X180.22Y-227.3
X181.8Y-155.9
X181.8Y-159.8
X182.8Y-167.8
X184.9Y-217.2
X185.8Y-228.4
X188.1Y-226.0
X191.0Y-189.0
X191.8Y-191.7
X191.9Y-138.7
X192.8Y-115.6
X193.2Y-120.9
X193.2Y-133.8
X193.5Y-141.4
X193.6Y-113.1
X194.0Y-120.9
X194.2Y-133.8
X194.7Y-189.7
X195.3Y-192.0
X196.0Y-112.0
X196.0Y-140.4
X196.0Y-187.4
X196.0Y-210.0
X197.5Y-212.7
X199.6Y-139.2
X199.8Y-115.4
X200.3Y-190.7
X200.6Y-139.2
X201.0Y-186.6
X201.1Y-115.5
X201.1Y-152.8
X202.9Y-211.7
X203.0Y-95.8
X203.0Y-186.9
X203.1Y-97.2
X203.6Y-112.9
X203.6Y-141.8
X203.9Y-189.8
X206.1Y-192.2
X206.4Y-171.3
X206.55Y-152.95
X207.3Y-190.5
X207.425Y-152.942
X207.5Y-154.7
X207.5Y-163.3
X207.5Y-166.0
X207.5Y-167.9
X207.6Y-102.0
X207.8Y-210.2
X208.4Y-188.2
X208.675Y-171.9
X209.3Y-115.4
X209.4Y-129.4
X210.1Y-115.3
X210.2Y-129.3
X210.5Y-195.9
X210.7Y-210.5
X210.8Y-150.5
X210.8Y-151.3
X211.0Y-170.3
X211.3Y-199.5
X211.7Y-96.2
X211.8Y-97.3
X211.8Y-108.9
X212.3Y-154.7
X212.3Y-206.2
X212.4Y-171.7
X212.6Y-165.5
X212.6Y-223.3
X212.68Y-166.328
X212.7Y-99.4
X212.8Y-149.2
X212.895Y-167.098
X212.9Y-196.0
X213.0Y-193.4
X213.3Y-164.5
X213.4Y-163.6
X213.653Y-162.841
X214.0Y-213.0
X214.0Y-217.0
X214.1Y-174.5
X215.2Y-153.2
X215.9Y-154.6
X215.9Y-222.8
X216.7Y-164.7
X216.7Y-168.3
X216.747Y-167.337
X216.8Y-204.2
X216.966Y-166.568
X217.0Y-175.7
X217.2Y-98.3
X217.2Y-169.2
X217.3Y-108.8
X217.9Y-217.275
X218.1Y-209.38
X218.2Y-175.6
X218.4Y-108.8
X218.4Y-169.294
X218.7Y-98.4
X218.9Y-168.7
X218.9Y-216.3
X219.3Y-163.9
X219.3Y-172.1
X219.4Y-158.3
X219.4Y-214.0
X219.5Y-198.6
X219.6Y-190.7
X220.0Y-154.9
X220.1Y-168.7
X220.1Y-172.1
X220.2Y-163.4
X220.22Y-227.3
X220.6Y-204.7
X220.8Y-169.294
X220.9Y-175.6
X221.4Y-168.1
X221.5Y-180.2
X222.092Y-160.567
X222.124Y-169.313
X222.4Y-165.9
X222.6Y-168.4
X222.7Y-158.3
X222.852Y-160.817
X223.9Y-81.1
X224.0Y-95.3
X224.0Y-162.8
X224.9Y-81.1
X224.9Y-95.3
X225.233Y-163.192
X225.7Y-226.3
X226.0Y-151.3
X226.035Y-163.835
X226.369Y-166.861
X226.423Y-164.536
X226.5Y-215.7
X226.519Y-166.075
X227.4Y-171.2
X227.697Y-170.203
X228.5Y-225.4
X228.7Y-151.3
X230.8Y-187.0
X231.3Y-151.2
X231.7Y-86.3
X231.7Y-87.4
X231.9Y-173.1
X231.925Y-171.8
X232.0Y-190.4
X233.0Y-156.7
X233.0Y-159.9
X233.2Y-162.7
X233.2Y-168.2
X234.3Y-93.6
X235.2Y-189.6
X235.5Y-191.9
X235.7Y-209.9
X236.1Y-187.6
X237.7Y-212.2
X240.6Y-190.4
X241.1Y-186.4
X242.98Y-211.4
X243.0Y-186.4
X244.3Y-189.6
X244.9Y-161.9
X245.4Y-192.2
X245.5Y-166.1
X246.2Y-151.5
X246.3Y-158.1
X246.4Y-153.6
X247.2Y-190.4
X247.4Y-151.5
X247.5Y-210.1
X248.0Y-138.6
X248.1Y-162.1
X248.4Y-139.0
X248.4Y-166.0
X248.4Y-187.1
X248.85Y-139.45
X248.925Y-155.775
X250.5Y-195.6
X250.5Y-210.6
X250.7Y-165.8
X251.3Y-170.8
X251.4Y-199.5
X251.6Y-153.4
X251.6Y-158.1
X251.8Y-168.0
X252.3Y-206.4
X252.9Y-193.3
X253.1Y-196.1
X253.4Y-149.0
X255.4Y-99.0
X255.5Y-97.9
X256.4Y-93.9
X257.6Y-93.9
X258.6Y-179.3
X259.4Y-168.7
X259.7Y-190.3
X259.7Y-198.4
X259.8Y-167.0
X259.9Y-156.9
T2
X71.956Y-83.7
X71.956Y-224.824
X72.659Y-82.003
X72.659Y-85.397
X72.659Y-223.127
X72.659Y-226.521
X74.356Y-81.3
X74.356Y-86.1
X74.356Y-222.424
X74.356Y-227.224
X76.053Y-82.003
X76.053Y-85.397
X76.053Y-223.127
X76.053Y-226.521
X76.756Y-83.7
X76.756Y-224.824
X260.8Y-83.7
X260.844Y-224.824
X261.503Y-82.003
X261.503Y-85.397
X261.547Y-223.127
X261.547Y-226.521
X263.2Y-81.3
X263.2Y-86.1
X263.244Y-222.424
X263.244Y-227.224
X264.897Y-82.003
X264.897Y-85.397
X264.941Y-223.127
X264.941Y-226.521
X265.6Y-83.7
X265.644Y-224.824
T3
X108.49Y-94.57
T4
X100.75Y-93.57
X100.75Y-96.11
T5
X97.7Y-79.6
X97.7Y-99.92
X97.7Y-102.46
X97.7Y-117.7
X97.7Y-120.24
X97.7Y-122.78
X97.7Y-125.32
X97.7Y-127.86
X97.7Y-130.4
X97.7Y-132.94
X97.7Y-135.48
X105.32Y-125.32
X110.4Y-82.14
X112.94Y-79.6
X112.94Y-82.14
X112.94Y-87.22
X112.94Y-92.3
X112.94Y-94.84
X112.94Y-107.54
X112.94Y-110.08
X112.94Y-115.16
X112.94Y-127.86
X112.94Y-130.4
X112.94Y-132.94
X112.94Y-135.48
T6
X101.3Y-216.42
X103.84Y-216.42
X141.3Y-216.42
X143.84Y-216.42
X196.408Y-216.422
X198.948Y-216.422
X236.5Y-216.35
X239.04Y-216.35
T7
X131.75Y-88.685
X134.29Y-88.685
X136.83Y-88.685
X139.37Y-88.685
X141.91Y-88.685
X144.45Y-88.685
X198.1Y-157.35
X198.1Y-163.85
X202.6Y-157.35
X202.6Y-163.85
T8
X231.4Y-117.5
X231.4Y-127.7
X231.4Y-137.9
X251.7Y-125.2
X251.7Y-130.3
T9
X152.265Y-88.677
X157.345Y-88.677
T10
X96.22Y-221.5
X106.38Y-221.5
X136.22Y-221.5
X146.38Y-221.5
X191.328Y-221.502
X201.488Y-221.502
X231.42Y-221.43
X241.58Y-221.43
T11
X74.356Y-83.7
X74.356Y-224.824
X263.2Y-83.7
X263.244Y-224.824
T7
G00X203.0Y-84.25
M15
G01X203.0Y-82.75
M16
G05
G00X208.15Y-84.5
M15
G01X206.85Y-84.5
M16
G05
G00X208.5Y-90.5
M15
G01X206.5Y-90.5
M16
G05
G00X212.0Y-84.25
M15
G01X212.0Y-82.75
M16
G05
M30
