%TF.GenerationSoftware,KiCad,Pcbnew,10.0.1*%
%TF.CreationDate,2026-05-14T15:32:22+02:00*%
%TF.ProjectId,AudioAnalyZer,41756469-6f41-46e6-916c-795a65722e6b,rev?*%
%TF.SameCoordinates,Original*%
%TF.FileFunction,Paste,Bot*%
%TF.FilePolarity,Positive*%
%FSLAX46Y46*%
G04 Gerber Fmt 4.6, Leading zero omitted, Abs format (unit mm)*
G04 Created by KiCad (PCBNEW 10.0.1) date 2026-05-14 15:32:22*
%MOMM*%
%LPD*%
G01*
G04 APERTURE LIST*
G04 Aperture macros list*
%AMRoundRect*
0 Rectangle with rounded corners*
0 $1 Rounding radius*
0 $2 $3 $4 $5 $6 $7 $8 $9 X,Y pos of 4 corners*
0 Add a 4 corners polygon primitive as box body*
4,1,4,$2,$3,$4,$5,$6,$7,$8,$9,$2,$3,0*
0 Add four circle primitives for the rounded corners*
1,1,$1+$1,$2,$3*
1,1,$1+$1,$4,$5*
1,1,$1+$1,$6,$7*
1,1,$1+$1,$8,$9*
0 Add four rect primitives between the rounded corners*
20,1,$1+$1,$2,$3,$4,$5,0*
20,1,$1+$1,$4,$5,$6,$7,0*
20,1,$1+$1,$6,$7,$8,$9,0*
20,1,$1+$1,$8,$9,$2,$3,0*%
G04 Aperture macros list end*
%ADD10R,1.651000X1.524000*%
%ADD11RoundRect,0.237500X0.237500X-0.250000X0.237500X0.250000X-0.237500X0.250000X-0.237500X-0.250000X0*%
%ADD12R,1.168400X0.457200*%
%ADD13RoundRect,0.237500X0.250000X0.237500X-0.250000X0.237500X-0.250000X-0.237500X0.250000X-0.237500X0*%
%ADD14R,1.524000X1.651000*%
%ADD15RoundRect,0.237500X-0.237500X0.300000X-0.237500X-0.300000X0.237500X-0.300000X0.237500X0.300000X0*%
%ADD16RoundRect,0.237500X-0.237500X0.250000X-0.237500X-0.250000X0.237500X-0.250000X0.237500X0.250000X0*%
%ADD17RoundRect,0.237500X-0.250000X-0.237500X0.250000X-0.237500X0.250000X0.237500X-0.250000X0.237500X0*%
%ADD18RoundRect,0.237500X0.237500X-0.300000X0.237500X0.300000X-0.237500X0.300000X-0.237500X-0.300000X0*%
%ADD19R,0.457200X1.168400*%
%ADD20RoundRect,0.250000X-0.475000X0.250000X-0.475000X-0.250000X0.475000X-0.250000X0.475000X0.250000X0*%
G04 APERTURE END LIST*
D10*
%TO.C,CR5*%
X218100000Y-209380000D03*
X218100000Y-205620000D03*
%TD*%
D11*
%TO.C,R94*%
X211400000Y-160412500D03*
X211400000Y-158587500D03*
%TD*%
D12*
%TO.C,Q3*%
X206400000Y-208200000D03*
X206400000Y-209499998D03*
X204647400Y-208849999D03*
%TD*%
D13*
%TO.C,R55*%
X231925000Y-160400000D03*
X230100000Y-160400000D03*
%TD*%
D14*
%TO.C,CR4*%
X223980000Y-227300000D03*
X220220000Y-227300000D03*
%TD*%
D15*
%TO.C,C7*%
X231400000Y-121837500D03*
X231400000Y-123562500D03*
%TD*%
D13*
%TO.C,R66*%
X231925000Y-174600000D03*
X230100000Y-174600000D03*
%TD*%
D16*
%TO.C,R33*%
X249500000Y-207787500D03*
X249500000Y-209612500D03*
%TD*%
D11*
%TO.C,R31*%
X213900000Y-225412500D03*
X213900000Y-223587500D03*
%TD*%
D16*
%TO.C,R49*%
X217900000Y-165187500D03*
X217900000Y-167012500D03*
%TD*%
%TO.C,R96*%
X211400000Y-154875000D03*
X211400000Y-156700000D03*
%TD*%
D17*
%TO.C,R50*%
X208675000Y-171900000D03*
X210500000Y-171900000D03*
%TD*%
D16*
%TO.C,R71*%
X121200000Y-202387500D03*
X121200000Y-204212500D03*
%TD*%
%TO.C,R29*%
X209500000Y-207987500D03*
X209500000Y-209812500D03*
%TD*%
D18*
%TO.C,C6*%
X231400000Y-133762500D03*
X231400000Y-132037500D03*
%TD*%
D17*
%TO.C,R53*%
X208675000Y-163500000D03*
X210500000Y-163500000D03*
%TD*%
D16*
%TO.C,R80*%
X153300000Y-190887500D03*
X153300000Y-192712500D03*
%TD*%
%TO.C,R61*%
X221300000Y-165200000D03*
X221300000Y-167025000D03*
%TD*%
D13*
%TO.C,R62*%
X231937500Y-163200000D03*
X230112500Y-163200000D03*
%TD*%
D19*
%TO.C,Q5*%
X221599998Y-212800000D03*
X220300000Y-212800000D03*
X220949999Y-211047400D03*
%TD*%
%TO.C,Q7*%
X156400000Y-195687500D03*
X157699998Y-195687500D03*
X157049999Y-197440100D03*
%TD*%
D17*
%TO.C,R51*%
X208675000Y-169100000D03*
X210500000Y-169100000D03*
%TD*%
%TO.C,R52*%
X208675000Y-166300000D03*
X210500000Y-166300000D03*
%TD*%
D14*
%TO.C,CR1*%
X183980000Y-227300000D03*
X180220000Y-227300000D03*
%TD*%
D16*
%TO.C,R70*%
X129200000Y-200587500D03*
X129200000Y-202412500D03*
%TD*%
D17*
%TO.C,R79*%
X168237501Y-192700000D03*
X170062501Y-192700000D03*
%TD*%
D12*
%TO.C,Q4*%
X216823700Y-225049999D03*
X216823700Y-223750001D03*
X218576300Y-224400000D03*
%TD*%
D20*
%TO.C,C10*%
X255600000Y-126650000D03*
X255600000Y-128550000D03*
%TD*%
D14*
%TO.C,CR8*%
X165320000Y-200200000D03*
X169080000Y-200200000D03*
%TD*%
D16*
%TO.C,R57*%
X232000000Y-152387500D03*
X232000000Y-154212500D03*
%TD*%
D10*
%TO.C,CR2*%
X178100000Y-205840000D03*
X178100000Y-209600000D03*
%TD*%
D16*
%TO.C,R59*%
X229100000Y-152375000D03*
X229100000Y-154200000D03*
%TD*%
D17*
%TO.C,R67*%
X230100000Y-171800000D03*
X231925000Y-171800000D03*
%TD*%
%TO.C,R78*%
X156087500Y-192687500D03*
X157912500Y-192687500D03*
%TD*%
D13*
%TO.C,R28*%
X181712500Y-216100000D03*
X179887500Y-216100000D03*
%TD*%
%TO.C,R72*%
X129100000Y-210000000D03*
X127275000Y-210000000D03*
%TD*%
D11*
%TO.C,R93*%
X208600000Y-160412500D03*
X208600000Y-158587500D03*
%TD*%
D13*
%TO.C,R73*%
X129100000Y-207200000D03*
X127275000Y-207200000D03*
%TD*%
%TO.C,R32*%
X221900000Y-215900000D03*
X220075000Y-215900000D03*
%TD*%
D17*
%TO.C,R69*%
X127287500Y-204300000D03*
X129112500Y-204300000D03*
%TD*%
D19*
%TO.C,Q2*%
X181500000Y-213000000D03*
X180200002Y-213000000D03*
X180850001Y-211247400D03*
%TD*%
D16*
%TO.C,R60*%
X219600000Y-165187500D03*
X219600000Y-167012500D03*
%TD*%
%TO.C,R58*%
X226200000Y-152387500D03*
X226200000Y-154212500D03*
%TD*%
D14*
%TO.C,CR3*%
X199140000Y-211700000D03*
X202900000Y-211700000D03*
%TD*%
D13*
%TO.C,R56*%
X231925000Y-157500000D03*
X230100000Y-157500000D03*
%TD*%
D11*
%TO.C,R27*%
X173800000Y-225412500D03*
X173800000Y-223587500D03*
%TD*%
D12*
%TO.C,Q1*%
X176723700Y-225149999D03*
X176723700Y-223850001D03*
X178476300Y-224500000D03*
%TD*%
D14*
%TO.C,CR7*%
X153120000Y-200200000D03*
X156880000Y-200200000D03*
%TD*%
%TO.C,CR6*%
X239220000Y-211400000D03*
X242980000Y-211400000D03*
%TD*%
D13*
%TO.C,R54*%
X231925000Y-169000000D03*
X230100000Y-169000000D03*
%TD*%
D16*
%TO.C,R81*%
X165450001Y-190887500D03*
X165450001Y-192712500D03*
%TD*%
D12*
%TO.C,Q6*%
X246452600Y-207950001D03*
X246452600Y-209249999D03*
X244700000Y-208600000D03*
%TD*%
D16*
%TO.C,R95*%
X208600000Y-154887500D03*
X208600000Y-156712500D03*
%TD*%
D19*
%TO.C,Q8*%
X168550001Y-195700000D03*
X169849999Y-195700000D03*
X169200000Y-197452600D03*
%TD*%
M02*
